G04 Layer_Color=16711935*
%FSLAX42Y42*%
%MOMM*%
G71*
G01*
G75*
%ADD67C,0.10*%
D67*
X5827Y6954D02*
G03*
X5827Y6954I-50J0D01*
G01*
X6201Y3205D02*
G03*
X6201Y3205I-50J0D01*
G01*
X3181Y4249D02*
G03*
X3181Y4249I-50J0D01*
G01*
X10512Y4536D02*
G03*
X10512Y4536I-50J0D01*
G01*
X8683Y4535D02*
G03*
X8683Y4535I-50J0D01*
G01*
X8606Y1287D02*
G03*
X8606Y1287I-50J0D01*
G01*
X1755Y4163D02*
G03*
X1755Y4163I-50J0D01*
G01*
X9499Y6181D02*
G03*
X9499Y6181I-50J0D01*
G01*
X2024Y4148D02*
Y4488D01*
X2294Y4148D02*
Y4488D01*
X2024Y4148D02*
X2294D01*
X2024Y4488D02*
X2294D01*
X6987Y6864D02*
Y7624D01*
X5687Y6864D02*
Y7624D01*
X6987D01*
X5687Y6864D02*
X6987D01*
X9396Y3005D02*
Y3269D01*
X9061Y3005D02*
Y3269D01*
Y3005D02*
X9396D01*
X9061Y3269D02*
X9396D01*
X9279Y7558D02*
X9619D01*
X9279Y7288D02*
X9619D01*
X9279D02*
Y7558D01*
X9619Y7288D02*
Y7558D01*
X6231Y4250D02*
X6571D01*
X6231Y3980D02*
X6571D01*
X6231D02*
Y4250D01*
X6571Y3980D02*
Y4250D01*
X1198Y3655D02*
X1462D01*
X1198Y3990D02*
X1462D01*
X1198Y3655D02*
Y3990D01*
X1462Y3655D02*
Y3990D01*
X865Y3960D02*
X1128D01*
X865Y4295D02*
X1128D01*
X865Y3960D02*
Y4295D01*
X1128Y3960D02*
Y4295D01*
X6061Y2295D02*
Y3295D01*
X7061Y2295D02*
Y3295D01*
X6061D02*
X7061D01*
X6061Y2295D02*
X7061D01*
X1468Y5421D02*
X1732D01*
X1468Y5756D02*
X1732D01*
X1468Y5421D02*
Y5756D01*
X1732Y5421D02*
Y5756D01*
X4219Y1671D02*
Y1935D01*
X4554Y1671D02*
Y1935D01*
X4219D02*
X4554D01*
X4219Y1671D02*
X4554D01*
X3744Y1671D02*
Y1935D01*
X4079Y1671D02*
Y1935D01*
X3744D02*
X4079D01*
X3744Y1671D02*
X4079D01*
X3742Y2024D02*
X4082D01*
X3742Y2294D02*
X4082D01*
Y2024D02*
Y2294D01*
X3742Y2024D02*
Y2294D01*
X3589Y4386D02*
X3929D01*
X3589Y4656D02*
X3929D01*
Y4386D02*
Y4656D01*
X3589Y4386D02*
Y4656D01*
X5037Y2929D02*
X5377D01*
X5037Y2659D02*
X5377D01*
X5037D02*
Y2929D01*
X5377Y2659D02*
Y2929D01*
X3041Y3179D02*
X3791D01*
X3041Y4339D02*
X3791D01*
Y3179D02*
Y4339D01*
X3041Y3179D02*
Y4339D01*
X10912Y4948D02*
X11252D01*
X10912Y4678D02*
X11252D01*
X10912D02*
Y4948D01*
X11252Y4678D02*
Y4948D01*
X9083D02*
X9423D01*
X9083Y4678D02*
X9423D01*
X9083D02*
Y4948D01*
X9423Y4678D02*
Y4948D01*
X10372Y2816D02*
X11132D01*
X10372Y4626D02*
X11132D01*
Y2816D02*
Y4626D01*
X10372Y2816D02*
Y4626D01*
X8543Y3325D02*
X9303D01*
X8543Y4625D02*
X9303D01*
Y3325D02*
Y4625D01*
X8543Y3325D02*
Y4625D01*
X8720Y1888D02*
X9060D01*
X8720Y1618D02*
X9060D01*
X8720D02*
Y1888D01*
X9060Y1618D02*
Y1888D01*
X8109Y1377D02*
X9003D01*
X8109D02*
X8219Y1487D01*
X9003D01*
Y593D02*
Y1487D01*
X8109Y593D02*
X9003D01*
X8109D02*
Y1377D01*
X4034Y4968D02*
X4298D01*
X4034Y4633D02*
X4298D01*
Y4968D01*
X4034Y4633D02*
Y4968D01*
Y4536D02*
X4298D01*
X4034Y4201D02*
X4298D01*
Y4536D01*
X4034Y4201D02*
Y4536D01*
X4631Y4631D02*
Y4971D01*
X4361Y4631D02*
Y4971D01*
X4631D01*
X4361Y4631D02*
X4631D01*
X1795Y4073D02*
Y4563D01*
X1405Y4073D02*
Y4563D01*
Y4073D02*
X1795D01*
X1405Y4563D02*
X1795D01*
X1659Y3793D02*
X1999D01*
X1659Y3523D02*
X1999D01*
X1659D02*
Y3793D01*
X1999Y3523D02*
Y3793D01*
X1659Y3386D02*
X1999D01*
X1659Y3116D02*
X1999D01*
X1659D02*
Y3386D01*
X1999Y3116D02*
Y3386D01*
X10028Y6091D02*
Y7139D01*
X8870D02*
X10028D01*
X8870Y5981D02*
Y7139D01*
Y5981D02*
X9918D01*
X10028Y6091D01*
X8870D02*
X10028D01*
X6485Y6342D02*
X6825D01*
X6485Y6612D02*
X6825D01*
Y6342D02*
Y6612D01*
X6485Y6342D02*
Y6612D01*
X6256Y1595D02*
X6596D01*
X6256Y1326D02*
X6596D01*
X6256D02*
Y1595D01*
X6596Y1326D02*
Y1595D01*
X4996Y719D02*
Y1059D01*
X5266Y719D02*
Y1059D01*
X4996Y719D02*
X5266D01*
X4996Y1059D02*
X5266D01*
X5698Y719D02*
Y1059D01*
X5428Y719D02*
Y1059D01*
X5698D01*
X5428Y719D02*
X5698D01*
X1853Y1164D02*
Y2189D01*
X918Y1164D02*
Y2189D01*
Y1164D02*
X1853D01*
X918Y2189D02*
X1853D01*
X1491Y617D02*
Y957D01*
X1761Y617D02*
Y957D01*
X1491Y617D02*
X1761D01*
X1491Y957D02*
X1761D01*
M02*
