G04 Layer_Color=16711935*
%FSLAX42Y42*%
%MOMM*%
G71*
G01*
G75*
%ADD55C,1.70*%
%ADD56R,1.70X1.70*%
%ADD57R,1.70X1.70*%
%ADD58C,2.20*%
%ADD59R,2.20X2.20*%
%ADD60C,1.50*%
%ADD61C,1.89*%
%ADD62R,1.89X1.89*%
%ADD63C,4.96*%
%ADD64R,2.05X2.05*%
%ADD65C,2.05*%
%ADD66C,1.47*%
D55*
X6553Y432D02*
D03*
Y686D02*
D03*
X6807Y432D02*
D03*
Y686D02*
D03*
X7061Y432D02*
D03*
Y686D02*
D03*
X7315Y432D02*
D03*
Y686D02*
D03*
X7569Y432D02*
D03*
X10058Y8153D02*
D03*
X9804D02*
D03*
X9550D02*
D03*
X9296D02*
D03*
X9042D02*
D03*
X8788D02*
D03*
X8534D02*
D03*
X8280D02*
D03*
X8026D02*
D03*
X7772D02*
D03*
X7518D02*
D03*
X635Y5893D02*
D03*
Y6147D02*
D03*
Y4534D02*
D03*
X997Y3721D02*
D03*
X10516Y6807D02*
D03*
Y6553D02*
D03*
Y6299D02*
D03*
Y6045D02*
D03*
X1118Y914D02*
D03*
D56*
X7569Y686D02*
D03*
X7264Y8153D02*
D03*
X743Y3721D02*
D03*
D57*
X635Y5639D02*
D03*
Y4280D02*
D03*
X10516Y5791D02*
D03*
X1118Y660D02*
D03*
D58*
X4866Y5436D02*
D03*
D59*
X3820D02*
D03*
D60*
X2337Y3299D02*
D03*
Y3609D02*
D03*
X5692Y1473D02*
D03*
X5382D02*
D03*
D61*
X4617Y6980D02*
D03*
X4479Y7264D02*
D03*
X4341Y6980D02*
D03*
X4203Y7264D02*
D03*
X4065Y6980D02*
D03*
X3927Y7264D02*
D03*
X3789Y6980D02*
D03*
X3651Y7264D02*
D03*
X3513Y6980D02*
D03*
X3375Y7264D02*
D03*
X3237Y6980D02*
D03*
X3099Y7264D02*
D03*
X2961Y6980D02*
D03*
X2823Y7264D02*
D03*
X2685Y6980D02*
D03*
X2547Y7264D02*
D03*
X2409Y6980D02*
D03*
X2270Y7264D02*
D03*
X2132Y6980D02*
D03*
X1994Y7264D02*
D03*
X1856Y6980D02*
D03*
X1718Y7264D02*
D03*
X1580Y6980D02*
D03*
X1442Y7264D02*
D03*
D62*
X1304Y6980D02*
D03*
D63*
X608Y7122D02*
D03*
X5313D02*
D03*
D64*
X3277Y2261D02*
D03*
D65*
Y1753D02*
D03*
D66*
X2692Y965D02*
D03*
X1168Y2642D02*
D03*
X330Y1854D02*
D03*
X10770Y1499D02*
D03*
X7341Y7341D02*
D03*
X4750Y2184D02*
D03*
X2997Y5461D02*
D03*
X6071Y5766D02*
D03*
X5817Y5588D02*
D03*
X5131Y4293D02*
D03*
X4343Y1270D02*
D03*
X7518Y1016D02*
D03*
X7061Y889D02*
D03*
X7734Y1181D02*
D03*
X6909Y1321D02*
D03*
X5359Y4039D02*
D03*
X5461Y5994D02*
D03*
X5309Y6147D02*
D03*
X5156Y6299D02*
D03*
X1930Y6147D02*
D03*
X2032Y5969D02*
D03*
X8534Y1803D02*
D03*
X1880Y2540D02*
D03*
X2413Y4267D02*
D03*
X5486Y2337D02*
D03*
X8128Y4420D02*
D03*
X11227Y5105D02*
D03*
X10414Y5080D02*
D03*
X9195Y5791D02*
D03*
X6833Y6172D02*
D03*
X8560Y6947D02*
D03*
X8687Y7100D02*
D03*
X8534Y6433D02*
D03*
Y6172D02*
D03*
X8661Y6306D02*
D03*
X8534Y6680D02*
D03*
X8661Y6814D02*
D03*
X9093Y7366D02*
D03*
X6706Y5410D02*
D03*
X7087Y5207D02*
D03*
X8001Y3505D02*
D03*
X8128Y3658D02*
D03*
X8255Y3785D02*
D03*
X8128Y3912D02*
D03*
Y4166D02*
D03*
X8255Y4039D02*
D03*
Y4293D02*
D03*
X7239Y2235D02*
D03*
X7518D02*
D03*
X7071Y2210D02*
D03*
X7366Y2362D02*
D03*
X8331Y2896D02*
D03*
X8128D02*
D03*
X7925D02*
D03*
X8687Y2362D02*
D03*
X8458D02*
D03*
X8255D02*
D03*
X8153Y2083D02*
D03*
X7899D02*
D03*
X7696D02*
D03*
X8153Y1803D02*
D03*
X7899Y1651D02*
D03*
X7696Y1499D02*
D03*
X9195Y1041D02*
D03*
X9369Y1165D02*
D03*
X9525Y1295D02*
D03*
X10922Y2616D02*
D03*
X10566D02*
D03*
X11633Y4420D02*
D03*
X11582Y3404D02*
D03*
X11430Y3277D02*
D03*
X11582Y2896D02*
D03*
Y3150D02*
D03*
X11430Y3023D02*
D03*
X9982Y2921D02*
D03*
Y3099D02*
D03*
Y3277D02*
D03*
X6020Y2057D02*
D03*
X6147Y1930D02*
D03*
X5766Y2489D02*
D03*
X5486Y2794D02*
D03*
X5436Y3759D02*
D03*
X5588Y3607D02*
D03*
X5486Y3480D02*
D03*
X5410Y3302D02*
D03*
X5486Y3150D02*
D03*
X1803Y6325D02*
D03*
X4343Y4013D02*
D03*
X4394Y3759D02*
D03*
X4089Y3886D02*
D03*
X4115Y3632D02*
D03*
X4293Y2235D02*
D03*
X1892Y4674D02*
D03*
X2730Y4140D02*
D03*
X9804Y1524D02*
D03*
M02*
