G04 Layer_Color=255*
%FSLAX42Y42*%
%MOMM*%
G71*
G01*
G75*
%ADD10R,2.60X1.10*%
%ADD11R,0.60X2.00*%
%ADD12R,1.10X2.60*%
%ADD13O,1.50X0.55*%
%ADD14O,0.55X1.50*%
%ADD15R,2.00X0.60*%
%ADD16O,1.90X0.60*%
%ADD17O,0.65X2.50*%
%ADD18O,2.50X0.65*%
%ADD19R,1.55X0.60*%
%ADD20R,3.20X1.00*%
%ADD21R,8.20X6.05*%
%ADD25C,1.50*%
%ADD26R,1.50X1.50*%
%ADD27R,1.50X1.50*%
%ADD28C,2.00*%
%ADD29R,2.00X2.00*%
%ADD30C,1.30*%
%ADD31C,1.69*%
%ADD32R,1.69X1.69*%
%ADD33C,4.76*%
%ADD34R,1.85X1.85*%
%ADD35C,1.85*%
D10*
X2159Y4183D02*
D03*
Y4453D02*
D03*
X1330Y3688D02*
D03*
Y3958D02*
D03*
X997Y3992D02*
D03*
Y4262D02*
D03*
X1600Y5453D02*
D03*
Y5723D02*
D03*
X4166Y4936D02*
D03*
Y4666D02*
D03*
Y4504D02*
D03*
Y4234D02*
D03*
X4496Y4936D02*
D03*
Y4666D02*
D03*
X5131Y754D02*
D03*
Y1024D02*
D03*
X5563D02*
D03*
Y754D02*
D03*
X1626Y652D02*
D03*
Y922D02*
D03*
D11*
X6908Y7709D02*
D03*
X6781D02*
D03*
X6654D02*
D03*
X6527D02*
D03*
X6400D02*
D03*
X6273D02*
D03*
X6146D02*
D03*
X6019D02*
D03*
X5892D02*
D03*
X5765D02*
D03*
X6908Y6779D02*
D03*
X6781D02*
D03*
X6654D02*
D03*
X6527D02*
D03*
X6400D02*
D03*
X6273D02*
D03*
X6146D02*
D03*
X6019D02*
D03*
X5892D02*
D03*
X5765D02*
D03*
D12*
X9363Y3137D02*
D03*
X9093D02*
D03*
X9314Y7423D02*
D03*
X9584D02*
D03*
X6266Y4115D02*
D03*
X6536D02*
D03*
X4251Y1803D02*
D03*
X4521D02*
D03*
X3777Y1803D02*
D03*
X4047D02*
D03*
Y2159D02*
D03*
X3777D02*
D03*
X3894Y4521D02*
D03*
X3624D02*
D03*
X5072Y2794D02*
D03*
X5342D02*
D03*
X10947Y4813D02*
D03*
X11217D02*
D03*
X9118D02*
D03*
X9388D02*
D03*
X8755Y1753D02*
D03*
X9025D02*
D03*
X1694Y3658D02*
D03*
X1964D02*
D03*
X1694Y3251D02*
D03*
X1964D02*
D03*
X6790Y6477D02*
D03*
X6520D02*
D03*
X6291Y1460D02*
D03*
X6561D02*
D03*
D13*
X5986Y3195D02*
D03*
Y3115D02*
D03*
Y3035D02*
D03*
Y2955D02*
D03*
Y2875D02*
D03*
Y2795D02*
D03*
Y2715D02*
D03*
Y2635D02*
D03*
Y2555D02*
D03*
Y2475D02*
D03*
Y2395D02*
D03*
X7136D02*
D03*
Y2475D02*
D03*
Y2555D02*
D03*
Y2635D02*
D03*
Y2715D02*
D03*
Y2795D02*
D03*
Y2875D02*
D03*
Y2955D02*
D03*
Y3035D02*
D03*
Y3115D02*
D03*
Y3195D02*
D03*
D14*
X6161Y2220D02*
D03*
X6241D02*
D03*
X6321D02*
D03*
X6401D02*
D03*
X6481D02*
D03*
X6561D02*
D03*
X6641D02*
D03*
X6721D02*
D03*
X6801D02*
D03*
X6881D02*
D03*
X6961D02*
D03*
Y3370D02*
D03*
X6881D02*
D03*
X6801D02*
D03*
X6721D02*
D03*
X6641D02*
D03*
X6561D02*
D03*
X6481D02*
D03*
X6401D02*
D03*
X6321D02*
D03*
X6241D02*
D03*
X6161D02*
D03*
D15*
X3886Y3251D02*
D03*
Y3378D02*
D03*
Y3505D02*
D03*
Y3632D02*
D03*
Y3759D02*
D03*
Y3886D02*
D03*
Y4013D02*
D03*
Y4140D02*
D03*
Y4267D02*
D03*
X2946Y3251D02*
D03*
Y3378D02*
D03*
Y3505D02*
D03*
Y3632D02*
D03*
Y3759D02*
D03*
Y3886D02*
D03*
Y4013D02*
D03*
Y4140D02*
D03*
Y4267D02*
D03*
X9388Y3404D02*
D03*
Y3531D02*
D03*
Y3658D02*
D03*
Y3785D02*
D03*
Y3912D02*
D03*
Y4039D02*
D03*
Y4166D02*
D03*
Y4293D02*
D03*
Y4420D02*
D03*
Y4547D02*
D03*
X8458Y3404D02*
D03*
Y3531D02*
D03*
Y3658D02*
D03*
Y3785D02*
D03*
Y3912D02*
D03*
Y4039D02*
D03*
Y4166D02*
D03*
Y4293D02*
D03*
Y4420D02*
D03*
Y4547D02*
D03*
D16*
X11227Y2896D02*
D03*
Y3023D02*
D03*
Y3150D02*
D03*
Y3277D02*
D03*
Y3404D02*
D03*
Y3531D02*
D03*
Y3658D02*
D03*
Y3785D02*
D03*
Y3912D02*
D03*
Y4039D02*
D03*
Y4166D02*
D03*
Y4293D02*
D03*
Y4420D02*
D03*
Y4547D02*
D03*
X10277Y2896D02*
D03*
Y3023D02*
D03*
Y3150D02*
D03*
Y3277D02*
D03*
Y3404D02*
D03*
Y3531D02*
D03*
Y3658D02*
D03*
Y3785D02*
D03*
Y3912D02*
D03*
Y4039D02*
D03*
Y4166D02*
D03*
Y4293D02*
D03*
Y4420D02*
D03*
Y4547D02*
D03*
D17*
X8306Y1448D02*
D03*
X8431D02*
D03*
X8556D02*
D03*
X8681D02*
D03*
X8806D02*
D03*
Y633D02*
D03*
X8681D02*
D03*
X8556D02*
D03*
X8431D02*
D03*
X8306D02*
D03*
X9830Y7100D02*
D03*
X9703D02*
D03*
X9576D02*
D03*
X9449D02*
D03*
X9322D02*
D03*
X9195D02*
D03*
X9068D02*
D03*
Y6020D02*
D03*
X9195D02*
D03*
X9322D02*
D03*
X9449D02*
D03*
X9576D02*
D03*
X9703D02*
D03*
X9830D02*
D03*
D18*
X8963Y1290D02*
D03*
Y1165D02*
D03*
Y1040D02*
D03*
Y915D02*
D03*
Y790D02*
D03*
X8148D02*
D03*
Y915D02*
D03*
Y1040D02*
D03*
Y1165D02*
D03*
Y1290D02*
D03*
X9989Y6179D02*
D03*
Y6306D02*
D03*
Y6433D02*
D03*
Y6560D02*
D03*
Y6687D02*
D03*
Y6814D02*
D03*
Y6941D02*
D03*
X8909D02*
D03*
Y6814D02*
D03*
Y6687D02*
D03*
Y6560D02*
D03*
Y6433D02*
D03*
Y6306D02*
D03*
Y6179D02*
D03*
D19*
X1870Y4128D02*
D03*
Y4254D02*
D03*
Y4381D02*
D03*
Y4508D02*
D03*
X1330Y4128D02*
D03*
Y4254D02*
D03*
Y4381D02*
D03*
Y4508D02*
D03*
D20*
X2113Y1422D02*
D03*
Y1930D02*
D03*
D21*
X1143Y1676D02*
D03*
D25*
X6553Y432D02*
D03*
Y686D02*
D03*
X6807Y432D02*
D03*
Y686D02*
D03*
X7061Y432D02*
D03*
Y686D02*
D03*
X7315Y432D02*
D03*
Y686D02*
D03*
X7569Y432D02*
D03*
X10058Y8153D02*
D03*
X9804D02*
D03*
X9550D02*
D03*
X9296D02*
D03*
X9042D02*
D03*
X8788D02*
D03*
X8534D02*
D03*
X8280D02*
D03*
X8026D02*
D03*
X7772D02*
D03*
X7518D02*
D03*
X635Y5893D02*
D03*
Y6147D02*
D03*
Y4534D02*
D03*
X997Y3721D02*
D03*
X10516Y6807D02*
D03*
Y6553D02*
D03*
Y6299D02*
D03*
Y6045D02*
D03*
X1118Y914D02*
D03*
D26*
X7569Y686D02*
D03*
X7264Y8153D02*
D03*
X743Y3721D02*
D03*
D27*
X635Y5639D02*
D03*
Y4280D02*
D03*
X10516Y5791D02*
D03*
X1118Y660D02*
D03*
D28*
X4866Y5436D02*
D03*
D29*
X3820D02*
D03*
D30*
X2337Y3299D02*
D03*
Y3609D02*
D03*
X5692Y1473D02*
D03*
X5382D02*
D03*
D31*
X4617Y6980D02*
D03*
X4479Y7264D02*
D03*
X4341Y6980D02*
D03*
X4203Y7264D02*
D03*
X4065Y6980D02*
D03*
X3927Y7264D02*
D03*
X3789Y6980D02*
D03*
X3651Y7264D02*
D03*
X3513Y6980D02*
D03*
X3375Y7264D02*
D03*
X3237Y6980D02*
D03*
X3099Y7264D02*
D03*
X2961Y6980D02*
D03*
X2823Y7264D02*
D03*
X2685Y6980D02*
D03*
X2547Y7264D02*
D03*
X2409Y6980D02*
D03*
X2270Y7264D02*
D03*
X2132Y6980D02*
D03*
X1994Y7264D02*
D03*
X1856Y6980D02*
D03*
X1718Y7264D02*
D03*
X1580Y6980D02*
D03*
X1442Y7264D02*
D03*
D32*
X1304Y6980D02*
D03*
D33*
X608Y7122D02*
D03*
X5313D02*
D03*
D34*
X3277Y2261D02*
D03*
D35*
Y1753D02*
D03*
M02*
