G04 Layer_Physical_Order=2*
G04 Layer_Color=16711680*
%FSLAX42Y42*%
%MOMM*%
G71*
G01*
G75*
%ADD22C,0.51*%
%ADD25C,1.50*%
%ADD26R,1.50X1.50*%
%ADD27R,1.50X1.50*%
%ADD28C,2.00*%
%ADD29R,2.00X2.00*%
%ADD30C,1.30*%
%ADD31C,1.69*%
%ADD32R,1.69X1.69*%
%ADD33C,4.76*%
%ADD34R,1.85X1.85*%
%ADD35C,1.85*%
%ADD36C,1.27*%
G36*
X12192Y127D02*
X127D01*
Y8763D01*
X12192D01*
Y127D01*
D02*
G37*
%LPC*%
G36*
X735Y4380D02*
X535D01*
Y4179D01*
X735D01*
Y4380D01*
D02*
G37*
G36*
X6071Y5855D02*
X6047Y5852D01*
X6026Y5843D01*
X6007Y5829D01*
X5993Y5811D01*
X5984Y5789D01*
X5981Y5766D01*
X5984Y5743D01*
X5993Y5721D01*
X6007Y5702D01*
X6019Y5693D01*
Y4771D01*
X5374Y4126D01*
X5359Y4128D01*
X5336Y4125D01*
X5315Y4116D01*
X5296Y4102D01*
X5282Y4083D01*
X5273Y4062D01*
X5270Y4039D01*
X5273Y4015D01*
X5282Y3994D01*
X5296Y3975D01*
X5315Y3961D01*
X5336Y3952D01*
X5359Y3949D01*
X5383Y3952D01*
X5404Y3961D01*
X5423Y3975D01*
X5437Y3994D01*
X5446Y4015D01*
X5449Y4039D01*
X5447Y4053D01*
X6107Y4713D01*
X6118Y4730D01*
X6122Y4750D01*
Y5693D01*
X6134Y5702D01*
X6148Y5721D01*
X6157Y5743D01*
X6160Y5766D01*
X6157Y5789D01*
X6148Y5811D01*
X6134Y5829D01*
X6115Y5843D01*
X6094Y5852D01*
X6071Y5855D01*
D02*
G37*
G36*
X4343Y4103D02*
X4320Y4100D01*
X4299Y4091D01*
X4280Y4077D01*
X4266Y4058D01*
X4257Y4036D01*
X4254Y4013D01*
X4257Y3990D01*
X4266Y3968D01*
X4280Y3950D01*
X4299Y3936D01*
X4320Y3927D01*
X4343Y3924D01*
X4358Y3925D01*
X4428Y3855D01*
X4421Y3844D01*
X4417Y3846D01*
X4394Y3849D01*
X4371Y3846D01*
X4349Y3837D01*
X4331Y3823D01*
X4317Y3804D01*
X4308Y3782D01*
X4305Y3762D01*
X4293Y3755D01*
X4177Y3872D01*
X4179Y3886D01*
X4176Y3909D01*
X4167Y3931D01*
X4153Y3950D01*
X4134Y3964D01*
X4113Y3973D01*
X4089Y3976D01*
X4066Y3973D01*
X4045Y3964D01*
X4026Y3950D01*
X4012Y3931D01*
X4003Y3909D01*
X4000Y3886D01*
X4003Y3863D01*
X4012Y3841D01*
X4026Y3823D01*
X4045Y3809D01*
X4066Y3800D01*
X4089Y3797D01*
X4104Y3798D01*
X4459Y3443D01*
X4476Y3432D01*
X4496Y3428D01*
X5414D01*
X5423Y3416D01*
X5442Y3402D01*
X5463Y3393D01*
X5486Y3390D01*
X5510Y3393D01*
X5531Y3402D01*
X5550Y3416D01*
X5564Y3435D01*
X5573Y3457D01*
X5576Y3480D01*
X5573Y3503D01*
X5571Y3508D01*
X5579Y3518D01*
X5588Y3517D01*
X5611Y3520D01*
X5633Y3529D01*
X5651Y3543D01*
X5666Y3562D01*
X5675Y3584D01*
X5678Y3607D01*
X5675Y3630D01*
X5666Y3652D01*
X5651Y3670D01*
X5633Y3684D01*
X5611Y3693D01*
X5588Y3696D01*
X5565Y3693D01*
X5543Y3684D01*
X5525Y3670D01*
X5516Y3659D01*
X5450D01*
X5449Y3671D01*
X5459Y3673D01*
X5480Y3682D01*
X5499Y3696D01*
X5513Y3714D01*
X5522Y3736D01*
X5525Y3759D01*
X5522Y3782D01*
X5513Y3804D01*
X5499Y3823D01*
X5480Y3837D01*
X5459Y3846D01*
X5436Y3849D01*
X5412Y3846D01*
X5391Y3837D01*
X5372Y3823D01*
X5363Y3811D01*
X4619D01*
X4431Y3999D01*
X4433Y4013D01*
X4430Y4036D01*
X4421Y4058D01*
X4407Y4077D01*
X4388Y4091D01*
X4367Y4100D01*
X4343Y4103D01*
D02*
G37*
G36*
X635Y4635D02*
X609Y4632D01*
X584Y4622D01*
X563Y4606D01*
X547Y4585D01*
X537Y4560D01*
X534Y4534D01*
X537Y4508D01*
X547Y4483D01*
X563Y4462D01*
X584Y4446D01*
X609Y4436D01*
X635Y4433D01*
X661Y4436D01*
X686Y4446D01*
X707Y4462D01*
X723Y4483D01*
X733Y4508D01*
X736Y4534D01*
X733Y4560D01*
X723Y4585D01*
X707Y4606D01*
X686Y4622D01*
X661Y4632D01*
X635Y4635D01*
D02*
G37*
G36*
X5817Y5678D02*
X5793Y5675D01*
X5772Y5666D01*
X5753Y5651D01*
X5739Y5633D01*
X5730Y5611D01*
X5727Y5588D01*
X5730Y5565D01*
X5739Y5543D01*
X5753Y5525D01*
X5765Y5516D01*
Y5000D01*
X5145Y4380D01*
X5131Y4382D01*
X5108Y4379D01*
X5086Y4370D01*
X5067Y4356D01*
X5053Y4337D01*
X5044Y4316D01*
X5041Y4293D01*
X5044Y4269D01*
X5053Y4248D01*
X5067Y4229D01*
X5086Y4215D01*
X5108Y4206D01*
X5131Y4203D01*
X5154Y4206D01*
X5176Y4215D01*
X5194Y4229D01*
X5208Y4248D01*
X5217Y4269D01*
X5220Y4293D01*
X5219Y4307D01*
X5853Y4942D01*
X5864Y4959D01*
X5868Y4978D01*
X5868Y4978D01*
Y5516D01*
X5880Y5525D01*
X5894Y5543D01*
X5903Y5565D01*
X5906Y5588D01*
X5903Y5611D01*
X5894Y5633D01*
X5880Y5651D01*
X5861Y5666D01*
X5840Y5675D01*
X5817Y5678D01*
D02*
G37*
G36*
X1892Y4763D02*
X1869Y4760D01*
X1847Y4751D01*
X1829Y4737D01*
X1815Y4718D01*
X1806Y4697D01*
X1803Y4674D01*
X1806Y4650D01*
X1815Y4629D01*
X1829Y4610D01*
X1847Y4596D01*
X1869Y4587D01*
X1892Y4584D01*
X1915Y4587D01*
X1937Y4596D01*
X1956Y4610D01*
X1965Y4622D01*
X2176D01*
X2430Y4367D01*
X2424Y4355D01*
X2413Y4357D01*
X2390Y4354D01*
X2368Y4345D01*
X2350Y4331D01*
X2341Y4319D01*
X2108D01*
X2088Y4315D01*
X2072Y4304D01*
X1767Y3999D01*
X1756Y3982D01*
X1752Y3962D01*
Y2616D01*
X1756Y2596D01*
X1767Y2580D01*
X1792Y2555D01*
X1790Y2540D01*
X1793Y2517D01*
X1802Y2495D01*
X1816Y2477D01*
X1835Y2462D01*
X1856Y2453D01*
X1880Y2450D01*
X1903Y2453D01*
X1924Y2462D01*
X1943Y2477D01*
X1957Y2495D01*
X1966Y2517D01*
X1969Y2540D01*
X1966Y2563D01*
X1957Y2585D01*
X1943Y2603D01*
X1924Y2618D01*
X1903Y2627D01*
X1880Y2630D01*
X1865Y2628D01*
X1855Y2638D01*
Y3941D01*
X2130Y4215D01*
X2341D01*
X2350Y4204D01*
X2368Y4190D01*
X2390Y4181D01*
X2413Y4178D01*
X2436Y4181D01*
X2458Y4190D01*
X2476Y4204D01*
X2491Y4222D01*
X2500Y4244D01*
X2503Y4267D01*
X2501Y4278D01*
X2513Y4284D01*
X2643Y4155D01*
X2641Y4140D01*
X2644Y4117D01*
X2653Y4095D01*
X2667Y4077D01*
X2686Y4063D01*
X2707Y4054D01*
X2730Y4051D01*
X2754Y4054D01*
X2775Y4063D01*
X2794Y4077D01*
X2808Y4095D01*
X2817Y4117D01*
X2820Y4140D01*
X2817Y4163D01*
X2808Y4185D01*
X2794Y4204D01*
X2775Y4218D01*
X2754Y4227D01*
X2730Y4230D01*
X2716Y4228D01*
X2234Y4710D01*
X2217Y4721D01*
X2197Y4725D01*
X1965D01*
X1956Y4737D01*
X1937Y4751D01*
X1915Y4760D01*
X1892Y4763D01*
D02*
G37*
G36*
X2337Y3391D02*
X2313Y3387D01*
X2291Y3378D01*
X2272Y3364D01*
X2258Y3345D01*
X2249Y3323D01*
X2246Y3299D01*
X2249Y3276D01*
X2258Y3254D01*
X2272Y3235D01*
X2291Y3220D01*
X2313Y3211D01*
X2337Y3208D01*
X2360Y3211D01*
X2382Y3220D01*
X2401Y3235D01*
X2416Y3254D01*
X2425Y3276D01*
X2428Y3299D01*
X2425Y3323D01*
X2416Y3345D01*
X2401Y3364D01*
X2382Y3378D01*
X2360Y3387D01*
X2337Y3391D01*
D02*
G37*
G36*
X4115Y3722D02*
X4092Y3719D01*
X4070Y3710D01*
X4051Y3696D01*
X4037Y3677D01*
X4028Y3655D01*
X4025Y3632D01*
X4028Y3609D01*
X4037Y3587D01*
X4051Y3569D01*
X4070Y3555D01*
X4092Y3546D01*
X4115Y3543D01*
X4129Y3544D01*
X4408Y3265D01*
X4425Y3254D01*
X4445Y3250D01*
X4445Y3250D01*
X5338D01*
X5347Y3239D01*
X5365Y3224D01*
X5387Y3215D01*
X5397Y3214D01*
X5396Y3201D01*
X4699D01*
X4679Y3197D01*
X4662Y3186D01*
X4256Y2780D01*
X4245Y2763D01*
X4241Y2743D01*
Y2308D01*
X4229Y2299D01*
X4215Y2280D01*
X4206Y2258D01*
X4203Y2235D01*
X4206Y2212D01*
X4215Y2190D01*
X4229Y2172D01*
X4248Y2158D01*
X4269Y2149D01*
X4293Y2146D01*
X4316Y2149D01*
X4337Y2158D01*
X4356Y2172D01*
X4370Y2190D01*
X4379Y2212D01*
X4382Y2235D01*
X4379Y2258D01*
X4370Y2280D01*
X4356Y2299D01*
X4344Y2308D01*
Y2722D01*
X4720Y3098D01*
X5414D01*
X5423Y3086D01*
X5442Y3072D01*
X5463Y3063D01*
X5486Y3060D01*
X5510Y3063D01*
X5531Y3072D01*
X5550Y3086D01*
X5564Y3105D01*
X5573Y3126D01*
X5576Y3150D01*
X5573Y3173D01*
X5564Y3194D01*
X5550Y3213D01*
X5531Y3227D01*
X5510Y3236D01*
X5490Y3239D01*
X5485Y3247D01*
X5484Y3252D01*
X5488Y3257D01*
X5497Y3279D01*
X5500Y3302D01*
X5497Y3325D01*
X5488Y3347D01*
X5474Y3365D01*
X5455Y3380D01*
X5433Y3389D01*
X5410Y3392D01*
X5387Y3389D01*
X5365Y3380D01*
X5347Y3365D01*
X5338Y3354D01*
X4466D01*
X4203Y3618D01*
X4204Y3632D01*
X4201Y3655D01*
X4192Y3677D01*
X4178Y3696D01*
X4160Y3710D01*
X4138Y3719D01*
X4115Y3722D01*
D02*
G37*
G36*
X3394Y2378D02*
X3289D01*
Y2273D01*
X3394D01*
Y2378D01*
D02*
G37*
G36*
X843Y3822D02*
X642D01*
Y3621D01*
X843D01*
Y3822D01*
D02*
G37*
G36*
X997Y3822D02*
X970Y3819D01*
X946Y3809D01*
X925Y3793D01*
X909Y3772D01*
X899Y3747D01*
X895Y3721D01*
X899Y3695D01*
X909Y3670D01*
X925Y3649D01*
X946Y3633D01*
X970Y3623D01*
X997Y3620D01*
X1023Y3623D01*
X1047Y3633D01*
X1068Y3649D01*
X1084Y3670D01*
X1094Y3695D01*
X1098Y3721D01*
X1094Y3747D01*
X1084Y3772D01*
X1068Y3793D01*
X1047Y3809D01*
X1023Y3819D01*
X997Y3822D01*
D02*
G37*
G36*
X2337Y3701D02*
X2313Y3697D01*
X2291Y3688D01*
X2272Y3674D01*
X2258Y3655D01*
X2249Y3633D01*
X2246Y3609D01*
X2249Y3586D01*
X2258Y3564D01*
X2272Y3545D01*
X2291Y3530D01*
X2313Y3521D01*
X2337Y3518D01*
X2360Y3521D01*
X2382Y3530D01*
X2401Y3545D01*
X2416Y3564D01*
X2425Y3586D01*
X2428Y3609D01*
X2425Y3633D01*
X2416Y3655D01*
X2401Y3674D01*
X2382Y3688D01*
X2360Y3697D01*
X2337Y3701D01*
D02*
G37*
G36*
X1803Y6414D02*
X1780Y6411D01*
X1759Y6402D01*
X1740Y6388D01*
X1726Y6369D01*
X1717Y6348D01*
X1714Y6325D01*
X1717Y6301D01*
X1726Y6280D01*
X1740Y6261D01*
X1759Y6247D01*
X1780Y6238D01*
X1803Y6235D01*
X1827Y6238D01*
X1848Y6247D01*
X1849Y6247D01*
X1916D01*
X1917Y6235D01*
X1907Y6233D01*
X1886Y6224D01*
X1867Y6210D01*
X1853Y6192D01*
X1844Y6170D01*
X1841Y6147D01*
X1844Y6124D01*
X1853Y6102D01*
X1867Y6083D01*
X1886Y6069D01*
X1907Y6060D01*
X1930Y6057D01*
X1954Y6060D01*
X1975Y6069D01*
X1994Y6083D01*
X2003Y6095D01*
X5236D01*
X5245Y6083D01*
X5264Y6069D01*
X5285Y6060D01*
X5295Y6059D01*
X5294Y6046D01*
X2077D01*
X2077Y6047D01*
X2055Y6056D01*
X2032Y6059D01*
X2009Y6056D01*
X1987Y6047D01*
X1969Y6032D01*
X1954Y6014D01*
X1945Y5992D01*
X1942Y5969D01*
X1945Y5946D01*
X1954Y5924D01*
X1969Y5906D01*
X1987Y5891D01*
X2009Y5882D01*
X2032Y5879D01*
X2055Y5882D01*
X2077Y5891D01*
X2095Y5906D01*
X2110Y5924D01*
X2117Y5943D01*
X5389D01*
X5398Y5931D01*
X5416Y5917D01*
X5438Y5908D01*
X5461Y5905D01*
X5484Y5908D01*
X5506Y5917D01*
X5524Y5931D01*
X5539Y5950D01*
X5548Y5971D01*
X5551Y5994D01*
X5548Y6018D01*
X5539Y6039D01*
X5524Y6058D01*
X5506Y6072D01*
X5484Y6081D01*
X5461Y6084D01*
X5438Y6081D01*
X5416Y6072D01*
X5398Y6058D01*
X5389Y6046D01*
X5323D01*
X5322Y6059D01*
X5332Y6060D01*
X5353Y6069D01*
X5372Y6083D01*
X5386Y6102D01*
X5395Y6124D01*
X5398Y6147D01*
X5395Y6170D01*
X5386Y6192D01*
X5372Y6210D01*
X5353Y6224D01*
X5332Y6233D01*
X5309Y6236D01*
X5285Y6233D01*
X5264Y6224D01*
X5245Y6210D01*
X5236Y6199D01*
X5170D01*
X5170Y6211D01*
X5179Y6213D01*
X5201Y6222D01*
X5220Y6236D01*
X5234Y6254D01*
X5243Y6276D01*
X5246Y6299D01*
X5243Y6322D01*
X5234Y6344D01*
X5220Y6363D01*
X5201Y6377D01*
X5179Y6386D01*
X5156Y6389D01*
X5133Y6386D01*
X5111Y6377D01*
X5093Y6363D01*
X5084Y6351D01*
X1889D01*
X1881Y6369D01*
X1867Y6388D01*
X1848Y6402D01*
X1827Y6411D01*
X1803Y6414D01*
D02*
G37*
G36*
X635Y6248D02*
X609Y6245D01*
X584Y6234D01*
X563Y6218D01*
X547Y6197D01*
X537Y6173D01*
X534Y6147D01*
X537Y6121D01*
X547Y6096D01*
X563Y6075D01*
X584Y6059D01*
X609Y6049D01*
X635Y6046D01*
X661Y6049D01*
X686Y6059D01*
X707Y6075D01*
X723Y6096D01*
X733Y6121D01*
X736Y6147D01*
X733Y6173D01*
X723Y6197D01*
X707Y6218D01*
X686Y6234D01*
X661Y6245D01*
X635Y6248D01*
D02*
G37*
G36*
X10516Y6146D02*
X10489Y6143D01*
X10465Y6133D01*
X10444Y6117D01*
X10428Y6096D01*
X10418Y6071D01*
X10414Y6045D01*
X10418Y6019D01*
X10428Y5995D01*
X10444Y5974D01*
X10465Y5958D01*
X10489Y5947D01*
X10516Y5944D01*
X10542Y5947D01*
X10566Y5958D01*
X10587Y5974D01*
X10603Y5995D01*
X10613Y6019D01*
X10617Y6045D01*
X10613Y6071D01*
X10603Y6096D01*
X10587Y6117D01*
X10566Y6133D01*
X10542Y6143D01*
X10516Y6146D01*
D02*
G37*
G36*
Y6908D02*
X10489Y6905D01*
X10465Y6895D01*
X10444Y6879D01*
X10428Y6858D01*
X10418Y6833D01*
X10414Y6807D01*
X10418Y6781D01*
X10428Y6757D01*
X10444Y6736D01*
X10465Y6720D01*
X10489Y6709D01*
X10516Y6706D01*
X10542Y6709D01*
X10566Y6720D01*
X10587Y6736D01*
X10603Y6757D01*
X10613Y6781D01*
X10617Y6807D01*
X10613Y6833D01*
X10603Y6858D01*
X10587Y6879D01*
X10566Y6895D01*
X10542Y6905D01*
X10516Y6908D01*
D02*
G37*
G36*
Y6654D02*
X10489Y6651D01*
X10465Y6641D01*
X10444Y6625D01*
X10428Y6604D01*
X10418Y6579D01*
X10414Y6553D01*
X10418Y6527D01*
X10428Y6503D01*
X10444Y6482D01*
X10465Y6466D01*
X10489Y6455D01*
X10516Y6452D01*
X10542Y6455D01*
X10566Y6466D01*
X10587Y6482D01*
X10603Y6503D01*
X10613Y6527D01*
X10617Y6553D01*
X10613Y6579D01*
X10603Y6604D01*
X10587Y6625D01*
X10566Y6641D01*
X10542Y6651D01*
X10516Y6654D01*
D02*
G37*
G36*
Y6400D02*
X10489Y6397D01*
X10465Y6387D01*
X10444Y6371D01*
X10428Y6350D01*
X10418Y6325D01*
X10414Y6299D01*
X10418Y6273D01*
X10428Y6249D01*
X10444Y6228D01*
X10465Y6212D01*
X10489Y6201D01*
X10516Y6198D01*
X10542Y6201D01*
X10566Y6212D01*
X10587Y6228D01*
X10603Y6249D01*
X10613Y6273D01*
X10617Y6299D01*
X10613Y6325D01*
X10603Y6350D01*
X10587Y6371D01*
X10566Y6387D01*
X10542Y6397D01*
X10516Y6400D01*
D02*
G37*
G36*
X3946Y5561D02*
X3695D01*
Y5310D01*
X3946D01*
Y5561D01*
D02*
G37*
G36*
X4866Y5562D02*
X4834Y5558D01*
X4803Y5545D01*
X4777Y5525D01*
X4757Y5499D01*
X4744Y5468D01*
X4740Y5436D01*
X4744Y5403D01*
X4757Y5372D01*
X4777Y5346D01*
X4803Y5326D01*
X4834Y5313D01*
X4866Y5309D01*
X4899Y5313D01*
X4930Y5326D01*
X4956Y5346D01*
X4976Y5372D01*
X4989Y5403D01*
X4993Y5436D01*
X4989Y5468D01*
X4976Y5499D01*
X4956Y5525D01*
X4930Y5545D01*
X4899Y5558D01*
X4866Y5562D01*
D02*
G37*
G36*
X11227Y5195D02*
X11204Y5192D01*
X11182Y5183D01*
X11163Y5169D01*
X11154Y5157D01*
X10459D01*
X10459Y5158D01*
X10437Y5167D01*
X10414Y5170D01*
X10391Y5167D01*
X10369Y5158D01*
X10351Y5143D01*
X10336Y5125D01*
X10327Y5103D01*
X10324Y5080D01*
X10327Y5057D01*
X10336Y5035D01*
X10351Y5017D01*
X10369Y5002D01*
X10391Y4993D01*
X10414Y4990D01*
X10437Y4993D01*
X10459Y5002D01*
X10477Y5017D01*
X10492Y5035D01*
X10499Y5054D01*
X11154D01*
X11163Y5042D01*
X11182Y5028D01*
X11204Y5019D01*
X11227Y5016D01*
X11250Y5019D01*
X11272Y5028D01*
X11290Y5042D01*
X11304Y5061D01*
X11313Y5082D01*
X11316Y5105D01*
X11313Y5129D01*
X11304Y5150D01*
X11290Y5169D01*
X11272Y5183D01*
X11250Y5192D01*
X11227Y5195D01*
D02*
G37*
G36*
X635Y5994D02*
X609Y5991D01*
X584Y5980D01*
X563Y5964D01*
X547Y5943D01*
X537Y5919D01*
X534Y5893D01*
X537Y5867D01*
X547Y5842D01*
X563Y5821D01*
X584Y5805D01*
X609Y5795D01*
X635Y5792D01*
X661Y5795D01*
X686Y5805D01*
X707Y5821D01*
X723Y5842D01*
X733Y5867D01*
X736Y5893D01*
X733Y5919D01*
X723Y5943D01*
X707Y5964D01*
X686Y5980D01*
X661Y5991D01*
X635Y5994D01*
D02*
G37*
G36*
X10616Y5892D02*
X10415D01*
Y5691D01*
X10616D01*
Y5892D01*
D02*
G37*
G36*
X735Y5739D02*
X535D01*
Y5538D01*
X735D01*
Y5739D01*
D02*
G37*
G36*
X1105Y902D02*
X1018D01*
X1020Y888D01*
X1030Y864D01*
X1046Y843D01*
X1067Y827D01*
X1091Y817D01*
X1105Y815D01*
Y902D01*
D02*
G37*
G36*
X7670Y786D02*
X7469D01*
Y585D01*
X7670D01*
Y786D01*
D02*
G37*
G36*
X1218Y761D02*
X1017D01*
Y560D01*
X1218D01*
Y761D01*
D02*
G37*
G36*
X1130Y1014D02*
Y927D01*
X1217D01*
X1215Y941D01*
X1205Y965D01*
X1189Y986D01*
X1168Y1002D01*
X1144Y1012D01*
X1130Y1014D01*
D02*
G37*
G36*
X1105D02*
X1091Y1012D01*
X1067Y1002D01*
X1046Y986D01*
X1030Y965D01*
X1020Y941D01*
X1018Y927D01*
X1105D01*
Y1014D01*
D02*
G37*
G36*
X1217Y902D02*
X1130D01*
Y815D01*
X1144Y817D01*
X1168Y827D01*
X1189Y843D01*
X1205Y864D01*
X1215Y888D01*
X1217Y902D01*
D02*
G37*
G36*
X6653Y419D02*
X6566D01*
Y332D01*
X6579Y334D01*
X6604Y344D01*
X6625Y360D01*
X6641Y381D01*
X6651Y406D01*
X6653Y419D01*
D02*
G37*
G36*
X7557D02*
X7470D01*
X7471Y406D01*
X7482Y381D01*
X7498Y360D01*
X7519Y344D01*
X7543Y334D01*
X7557Y332D01*
Y419D01*
D02*
G37*
G36*
X6540D02*
X6454D01*
X6455Y406D01*
X6466Y381D01*
X6482Y360D01*
X6503Y344D01*
X6527Y334D01*
X6540Y332D01*
Y419D01*
D02*
G37*
G36*
X7582Y531D02*
Y445D01*
X7669D01*
X7667Y458D01*
X7657Y482D01*
X7641Y503D01*
X7620Y519D01*
X7595Y530D01*
X7582Y531D01*
D02*
G37*
G36*
X7557D02*
X7543Y530D01*
X7519Y519D01*
X7498Y503D01*
X7482Y482D01*
X7471Y458D01*
X7470Y445D01*
X7557D01*
Y531D01*
D02*
G37*
G36*
X7669Y419D02*
X7582D01*
Y332D01*
X7595Y334D01*
X7620Y344D01*
X7641Y360D01*
X7657Y381D01*
X7667Y406D01*
X7669Y419D01*
D02*
G37*
G36*
X3394Y2248D02*
X3289D01*
Y2143D01*
X3394D01*
Y2248D01*
D02*
G37*
G36*
X3264D02*
X3159D01*
Y2143D01*
X3264D01*
Y2248D01*
D02*
G37*
G36*
X8534Y1893D02*
X8511Y1890D01*
X8490Y1881D01*
X8471Y1867D01*
X8462Y1855D01*
X8382D01*
X8362Y1851D01*
X8345Y1840D01*
X7769Y1263D01*
X7758Y1268D01*
X7734Y1271D01*
X7711Y1268D01*
X7689Y1259D01*
X7671Y1245D01*
X7657Y1226D01*
X7648Y1204D01*
X7645Y1181D01*
X7648Y1158D01*
X7657Y1136D01*
X7671Y1118D01*
X7689Y1103D01*
X7711Y1094D01*
X7734Y1091D01*
X7758Y1094D01*
X7779Y1103D01*
X7798Y1118D01*
X7812Y1136D01*
X7821Y1158D01*
X7823Y1171D01*
X8403Y1752D01*
X8462D01*
X8471Y1740D01*
X8490Y1726D01*
X8511Y1717D01*
X8534Y1714D01*
X8558Y1717D01*
X8579Y1726D01*
X8598Y1740D01*
X8612Y1759D01*
X8621Y1780D01*
X8624Y1803D01*
X8621Y1827D01*
X8612Y1848D01*
X8598Y1867D01*
X8579Y1881D01*
X8558Y1890D01*
X8534Y1893D01*
D02*
G37*
G36*
X3264Y2378D02*
X3159D01*
Y2273D01*
X3264D01*
Y2378D01*
D02*
G37*
G36*
X8687Y2452D02*
X8664Y2449D01*
X8642Y2440D01*
X8623Y2426D01*
X8609Y2407D01*
X8600Y2385D01*
X8597Y2362D01*
X8600Y2339D01*
X8609Y2317D01*
X8623Y2299D01*
X8642Y2285D01*
X8664Y2276D01*
X8673Y2274D01*
X8673Y2262D01*
X8632D01*
X8546Y2348D01*
X8548Y2362D01*
X8545Y2385D01*
X8536Y2407D01*
X8522Y2426D01*
X8503Y2440D01*
X8481Y2449D01*
X8458Y2452D01*
X8435Y2449D01*
X8413Y2440D01*
X8395Y2426D01*
X8381Y2407D01*
X8372Y2385D01*
X8369Y2362D01*
X8372Y2339D01*
X8373Y2335D01*
X8362Y2328D01*
X8343Y2348D01*
X8345Y2362D01*
X8342Y2385D01*
X8333Y2407D01*
X8318Y2426D01*
X8300Y2440D01*
X8278Y2449D01*
X8255Y2452D01*
X8232Y2449D01*
X8210Y2440D01*
X8192Y2426D01*
X8177Y2407D01*
X8168Y2385D01*
X8165Y2362D01*
X8168Y2339D01*
X8177Y2317D01*
X8192Y2299D01*
X8210Y2285D01*
X8232Y2276D01*
X8255Y2273D01*
X8270Y2274D01*
X8498Y2046D01*
X8515Y2035D01*
X8534Y2031D01*
X8792D01*
X9143Y1680D01*
Y1114D01*
X9131Y1105D01*
X9117Y1086D01*
X9108Y1065D01*
X9105Y1041D01*
X9108Y1018D01*
X9117Y997D01*
X9131Y978D01*
X9150Y964D01*
X9172Y955D01*
X9195Y952D01*
X9218Y955D01*
X9240Y964D01*
X9258Y978D01*
X9272Y997D01*
X9281Y1018D01*
X9284Y1041D01*
X9281Y1065D01*
X9272Y1086D01*
X9258Y1105D01*
X9247Y1114D01*
Y1702D01*
X9243Y1722D01*
X9231Y1738D01*
X8850Y2119D01*
X8834Y2131D01*
X8814Y2135D01*
X8556D01*
X8424Y2266D01*
X8431Y2277D01*
X8435Y2276D01*
X8458Y2273D01*
X8473Y2274D01*
X8574Y2173D01*
X8591Y2162D01*
X8611Y2158D01*
X8919D01*
X9318Y1760D01*
Y1238D01*
X9306Y1229D01*
X9292Y1210D01*
X9283Y1189D01*
X9280Y1165D01*
X9283Y1142D01*
X9292Y1120D01*
X9306Y1102D01*
X9325Y1088D01*
X9346Y1079D01*
X9369Y1076D01*
X9393Y1079D01*
X9414Y1088D01*
X9433Y1102D01*
X9447Y1120D01*
X9456Y1142D01*
X9459Y1165D01*
X9456Y1189D01*
X9447Y1210D01*
X9433Y1229D01*
X9421Y1238D01*
Y1781D01*
X9421Y1781D01*
X9417Y1801D01*
X9406Y1818D01*
X8977Y2246D01*
X8961Y2258D01*
X8941Y2262D01*
X8701D01*
X8700Y2274D01*
X8710Y2276D01*
X8732Y2285D01*
X8750Y2299D01*
X8759Y2310D01*
X8970D01*
X9473Y1807D01*
Y1368D01*
X9462Y1359D01*
X9447Y1340D01*
X9438Y1319D01*
X9435Y1295D01*
X9438Y1272D01*
X9447Y1251D01*
X9462Y1232D01*
X9480Y1218D01*
X9502Y1209D01*
X9525Y1206D01*
X9548Y1209D01*
X9570Y1218D01*
X9588Y1232D01*
X9603Y1251D01*
X9612Y1272D01*
X9615Y1295D01*
X9612Y1319D01*
X9603Y1340D01*
X9588Y1359D01*
X9577Y1368D01*
Y1829D01*
X9573Y1849D01*
X9562Y1865D01*
X9562Y1865D01*
X9028Y2399D01*
X9011Y2410D01*
X8992Y2414D01*
X8759D01*
X8750Y2426D01*
X8732Y2440D01*
X8710Y2449D01*
X8687Y2452D01*
D02*
G37*
G36*
X5486Y2884D02*
X5463Y2881D01*
X5442Y2872D01*
X5423Y2857D01*
X5409Y2839D01*
X5400Y2817D01*
X5397Y2794D01*
X5400Y2771D01*
X5409Y2749D01*
X5423Y2731D01*
X5435Y2722D01*
Y2409D01*
X5423Y2400D01*
X5409Y2382D01*
X5400Y2360D01*
X5397Y2337D01*
X5400Y2314D01*
X5409Y2292D01*
X5423Y2273D01*
X5442Y2259D01*
X5463Y2250D01*
X5486Y2247D01*
X5510Y2250D01*
X5531Y2259D01*
X5550Y2273D01*
X5564Y2292D01*
X5573Y2314D01*
X5576Y2337D01*
X5573Y2360D01*
X5564Y2382D01*
X5550Y2400D01*
X5538Y2409D01*
Y2722D01*
X5550Y2731D01*
X5564Y2749D01*
X5573Y2771D01*
X5576Y2794D01*
X5573Y2817D01*
X5564Y2839D01*
X5550Y2857D01*
X5531Y2872D01*
X5510Y2881D01*
X5486Y2884D01*
D02*
G37*
G36*
X7696Y2172D02*
X7673Y2169D01*
X7651Y2160D01*
X7633Y2146D01*
X7619Y2128D01*
X7610Y2106D01*
X7607Y2083D01*
X7610Y2060D01*
X7619Y2038D01*
X7633Y2019D01*
X7644Y2010D01*
Y1571D01*
X7633Y1562D01*
X7619Y1543D01*
X7610Y1522D01*
X7607Y1499D01*
X7610Y1475D01*
X7619Y1454D01*
X7633Y1435D01*
X7651Y1421D01*
X7673Y1412D01*
X7696Y1409D01*
X7719Y1412D01*
X7741Y1421D01*
X7760Y1435D01*
X7774Y1454D01*
X7783Y1475D01*
X7786Y1499D01*
X7783Y1522D01*
X7774Y1543D01*
X7760Y1562D01*
X7748Y1571D01*
Y2010D01*
X7760Y2019D01*
X7774Y2038D01*
X7783Y2060D01*
X7786Y2083D01*
X7783Y2106D01*
X7774Y2128D01*
X7760Y2146D01*
X7741Y2160D01*
X7719Y2169D01*
X7696Y2172D01*
D02*
G37*
G36*
X5692Y1564D02*
X5669Y1561D01*
X5647Y1552D01*
X5628Y1538D01*
X5613Y1519D01*
X5604Y1497D01*
X5601Y1473D01*
X5604Y1450D01*
X5613Y1428D01*
X5628Y1409D01*
X5647Y1394D01*
X5669Y1385D01*
X5692Y1382D01*
X5716Y1385D01*
X5738Y1394D01*
X5757Y1409D01*
X5771Y1428D01*
X5780Y1450D01*
X5783Y1473D01*
X5780Y1497D01*
X5771Y1519D01*
X5757Y1538D01*
X5738Y1552D01*
X5716Y1561D01*
X5692Y1564D01*
D02*
G37*
G36*
X5382D02*
X5359Y1561D01*
X5337Y1552D01*
X5318Y1538D01*
X5303Y1519D01*
X5294Y1497D01*
X5291Y1473D01*
X5294Y1450D01*
X5303Y1428D01*
X5318Y1409D01*
X5337Y1394D01*
X5359Y1385D01*
X5382Y1382D01*
X5406Y1385D01*
X5428Y1394D01*
X5447Y1409D01*
X5461Y1428D01*
X5470Y1450D01*
X5473Y1473D01*
X5470Y1497D01*
X5461Y1519D01*
X5447Y1538D01*
X5428Y1552D01*
X5406Y1561D01*
X5382Y1564D01*
D02*
G37*
G36*
X8153Y2172D02*
X8130Y2169D01*
X8109Y2160D01*
X8090Y2146D01*
X8076Y2128D01*
X8067Y2106D01*
X8064Y2083D01*
X8067Y2060D01*
X8076Y2038D01*
X8090Y2019D01*
X8102Y2010D01*
Y1876D01*
X8090Y1867D01*
X8076Y1848D01*
X8067Y1827D01*
X8064Y1803D01*
X8067Y1780D01*
X8076Y1759D01*
X8090Y1740D01*
X8109Y1726D01*
X8130Y1717D01*
X8153Y1714D01*
X8177Y1717D01*
X8198Y1726D01*
X8217Y1740D01*
X8231Y1759D01*
X8240Y1780D01*
X8243Y1803D01*
X8240Y1827D01*
X8231Y1848D01*
X8217Y1867D01*
X8205Y1876D01*
Y2010D01*
X8217Y2019D01*
X8231Y2038D01*
X8240Y2060D01*
X8243Y2083D01*
X8240Y2106D01*
X8231Y2128D01*
X8217Y2146D01*
X8198Y2160D01*
X8177Y2169D01*
X8153Y2172D01*
D02*
G37*
G36*
X3277Y1872D02*
X3246Y1867D01*
X3217Y1856D01*
X3193Y1837D01*
X3174Y1812D01*
X3162Y1783D01*
X3158Y1753D01*
X3162Y1722D01*
X3174Y1693D01*
X3193Y1669D01*
X3217Y1650D01*
X3246Y1638D01*
X3277Y1634D01*
X3307Y1638D01*
X3336Y1650D01*
X3361Y1669D01*
X3380Y1693D01*
X3391Y1722D01*
X3396Y1753D01*
X3391Y1783D01*
X3380Y1812D01*
X3361Y1837D01*
X3336Y1856D01*
X3307Y1867D01*
X3277Y1872D01*
D02*
G37*
G36*
X7899Y2172D02*
X7876Y2169D01*
X7855Y2160D01*
X7836Y2146D01*
X7822Y2128D01*
X7813Y2106D01*
X7810Y2083D01*
X7813Y2060D01*
X7822Y2038D01*
X7836Y2019D01*
X7848Y2010D01*
Y1723D01*
X7836Y1714D01*
X7822Y1696D01*
X7813Y1674D01*
X7810Y1651D01*
X7813Y1628D01*
X7822Y1606D01*
X7836Y1588D01*
X7855Y1573D01*
X7876Y1564D01*
X7899Y1561D01*
X7923Y1564D01*
X7944Y1573D01*
X7963Y1588D01*
X7977Y1606D01*
X7986Y1628D01*
X7989Y1651D01*
X7986Y1674D01*
X7977Y1696D01*
X7963Y1714D01*
X7951Y1723D01*
Y2010D01*
X7963Y2019D01*
X7977Y2038D01*
X7986Y2060D01*
X7989Y2083D01*
X7986Y2106D01*
X7977Y2128D01*
X7963Y2146D01*
X7944Y2160D01*
X7923Y2169D01*
X7899Y2172D01*
D02*
G37*
G36*
X3927Y7375D02*
X3898Y7371D01*
X3872Y7360D01*
X3849Y7343D01*
X3831Y7320D01*
X3820Y7293D01*
X3816Y7264D01*
X3820Y7236D01*
X3831Y7209D01*
X3849Y7186D01*
X3872Y7168D01*
X3898Y7157D01*
X3927Y7154D01*
X3956Y7157D01*
X3983Y7168D01*
X4005Y7186D01*
X4023Y7209D01*
X4034Y7236D01*
X4038Y7264D01*
X4034Y7293D01*
X4023Y7320D01*
X4005Y7343D01*
X3983Y7360D01*
X3956Y7371D01*
X3927Y7375D01*
D02*
G37*
G36*
X3651D02*
X3622Y7371D01*
X3596Y7360D01*
X3573Y7343D01*
X3555Y7320D01*
X3544Y7293D01*
X3540Y7264D01*
X3544Y7236D01*
X3555Y7209D01*
X3573Y7186D01*
X3596Y7168D01*
X3622Y7157D01*
X3651Y7154D01*
X3680Y7157D01*
X3706Y7168D01*
X3729Y7186D01*
X3747Y7209D01*
X3758Y7236D01*
X3762Y7264D01*
X3758Y7293D01*
X3747Y7320D01*
X3729Y7343D01*
X3706Y7360D01*
X3680Y7371D01*
X3651Y7375D01*
D02*
G37*
G36*
X3375D02*
X3346Y7371D01*
X3319Y7360D01*
X3297Y7343D01*
X3279Y7320D01*
X3268Y7293D01*
X3264Y7264D01*
X3268Y7236D01*
X3279Y7209D01*
X3297Y7186D01*
X3319Y7168D01*
X3346Y7157D01*
X3375Y7154D01*
X3404Y7157D01*
X3430Y7168D01*
X3453Y7186D01*
X3471Y7209D01*
X3482Y7236D01*
X3486Y7264D01*
X3482Y7293D01*
X3471Y7320D01*
X3453Y7343D01*
X3430Y7360D01*
X3404Y7371D01*
X3375Y7375D01*
D02*
G37*
G36*
X7518Y8255D02*
X7492Y8251D01*
X7468Y8241D01*
X7447Y8225D01*
X7431Y8204D01*
X7421Y8180D01*
X7417Y8153D01*
X7421Y8127D01*
X7431Y8103D01*
X7447Y8082D01*
X7468Y8066D01*
X7492Y8056D01*
X7518Y8052D01*
X7545Y8056D01*
X7569Y8066D01*
X7590Y8082D01*
X7606Y8103D01*
X7616Y8127D01*
X7620Y8153D01*
X7616Y8180D01*
X7606Y8204D01*
X7590Y8225D01*
X7569Y8241D01*
X7545Y8251D01*
X7518Y8255D01*
D02*
G37*
G36*
X4479Y7375D02*
X4451Y7371D01*
X4424Y7360D01*
X4401Y7343D01*
X4383Y7320D01*
X4372Y7293D01*
X4368Y7264D01*
X4372Y7236D01*
X4383Y7209D01*
X4401Y7186D01*
X4424Y7168D01*
X4451Y7157D01*
X4479Y7154D01*
X4508Y7157D01*
X4535Y7168D01*
X4558Y7186D01*
X4575Y7209D01*
X4586Y7236D01*
X4590Y7264D01*
X4586Y7293D01*
X4575Y7320D01*
X4558Y7343D01*
X4535Y7360D01*
X4508Y7371D01*
X4479Y7375D01*
D02*
G37*
G36*
X4203D02*
X4175Y7371D01*
X4148Y7360D01*
X4125Y7343D01*
X4107Y7320D01*
X4096Y7293D01*
X4092Y7264D01*
X4096Y7236D01*
X4107Y7209D01*
X4125Y7186D01*
X4148Y7168D01*
X4175Y7157D01*
X4203Y7154D01*
X4232Y7157D01*
X4259Y7168D01*
X4282Y7186D01*
X4299Y7209D01*
X4310Y7236D01*
X4314Y7264D01*
X4310Y7293D01*
X4299Y7320D01*
X4282Y7343D01*
X4259Y7360D01*
X4232Y7371D01*
X4203Y7375D01*
D02*
G37*
G36*
X2270D02*
X2242Y7371D01*
X2215Y7360D01*
X2192Y7343D01*
X2175Y7320D01*
X2163Y7293D01*
X2160Y7264D01*
X2163Y7236D01*
X2175Y7209D01*
X2192Y7186D01*
X2215Y7168D01*
X2242Y7157D01*
X2270Y7154D01*
X2299Y7157D01*
X2326Y7168D01*
X2349Y7186D01*
X2366Y7209D01*
X2378Y7236D01*
X2381Y7264D01*
X2378Y7293D01*
X2366Y7320D01*
X2349Y7343D01*
X2326Y7360D01*
X2299Y7371D01*
X2270Y7375D01*
D02*
G37*
G36*
X1994D02*
X1966Y7371D01*
X1939Y7360D01*
X1916Y7343D01*
X1898Y7320D01*
X1887Y7293D01*
X1884Y7264D01*
X1887Y7236D01*
X1898Y7209D01*
X1916Y7186D01*
X1939Y7168D01*
X1966Y7157D01*
X1994Y7154D01*
X2023Y7157D01*
X2050Y7168D01*
X2073Y7186D01*
X2090Y7209D01*
X2101Y7236D01*
X2105Y7264D01*
X2101Y7293D01*
X2090Y7320D01*
X2073Y7343D01*
X2050Y7360D01*
X2023Y7371D01*
X1994Y7375D01*
D02*
G37*
G36*
X1718D02*
X1690Y7371D01*
X1663Y7360D01*
X1640Y7343D01*
X1622Y7320D01*
X1611Y7293D01*
X1607Y7264D01*
X1611Y7236D01*
X1622Y7209D01*
X1640Y7186D01*
X1663Y7168D01*
X1690Y7157D01*
X1718Y7154D01*
X1747Y7157D01*
X1774Y7168D01*
X1797Y7186D01*
X1814Y7209D01*
X1825Y7236D01*
X1829Y7264D01*
X1825Y7293D01*
X1814Y7320D01*
X1797Y7343D01*
X1774Y7360D01*
X1747Y7371D01*
X1718Y7375D01*
D02*
G37*
G36*
X3099D02*
X3070Y7371D01*
X3043Y7360D01*
X3020Y7343D01*
X3003Y7320D01*
X2992Y7293D01*
X2988Y7264D01*
X2992Y7236D01*
X3003Y7209D01*
X3020Y7186D01*
X3043Y7168D01*
X3070Y7157D01*
X3099Y7154D01*
X3127Y7157D01*
X3154Y7168D01*
X3177Y7186D01*
X3195Y7209D01*
X3206Y7236D01*
X3210Y7264D01*
X3206Y7293D01*
X3195Y7320D01*
X3177Y7343D01*
X3154Y7360D01*
X3127Y7371D01*
X3099Y7375D01*
D02*
G37*
G36*
X2823D02*
X2794Y7371D01*
X2767Y7360D01*
X2744Y7343D01*
X2727Y7320D01*
X2716Y7293D01*
X2712Y7264D01*
X2716Y7236D01*
X2727Y7209D01*
X2744Y7186D01*
X2767Y7168D01*
X2794Y7157D01*
X2823Y7154D01*
X2851Y7157D01*
X2878Y7168D01*
X2901Y7186D01*
X2919Y7209D01*
X2930Y7236D01*
X2934Y7264D01*
X2930Y7293D01*
X2919Y7320D01*
X2901Y7343D01*
X2878Y7360D01*
X2851Y7371D01*
X2823Y7375D01*
D02*
G37*
G36*
X2547D02*
X2518Y7371D01*
X2491Y7360D01*
X2468Y7343D01*
X2451Y7320D01*
X2440Y7293D01*
X2436Y7264D01*
X2440Y7236D01*
X2451Y7209D01*
X2468Y7186D01*
X2491Y7168D01*
X2518Y7157D01*
X2547Y7154D01*
X2575Y7157D01*
X2602Y7168D01*
X2625Y7186D01*
X2643Y7209D01*
X2654Y7236D01*
X2657Y7264D01*
X2654Y7293D01*
X2643Y7320D01*
X2625Y7343D01*
X2602Y7360D01*
X2575Y7371D01*
X2547Y7375D01*
D02*
G37*
G36*
X10158Y8141D02*
X10071D01*
Y8054D01*
X10085Y8056D01*
X10109Y8066D01*
X10130Y8082D01*
X10146Y8103D01*
X10156Y8127D01*
X10158Y8141D01*
D02*
G37*
G36*
X10046D02*
X9959D01*
X9961Y8127D01*
X9971Y8103D01*
X9987Y8082D01*
X10008Y8066D01*
X10032Y8056D01*
X10046Y8054D01*
Y8141D01*
D02*
G37*
G36*
X9804Y8255D02*
X9778Y8251D01*
X9754Y8241D01*
X9733Y8225D01*
X9717Y8204D01*
X9707Y8180D01*
X9703Y8153D01*
X9707Y8127D01*
X9717Y8103D01*
X9733Y8082D01*
X9754Y8066D01*
X9778Y8056D01*
X9804Y8052D01*
X9831Y8056D01*
X9855Y8066D01*
X9876Y8082D01*
X9892Y8103D01*
X9902Y8127D01*
X9906Y8153D01*
X9902Y8180D01*
X9892Y8204D01*
X9876Y8225D01*
X9855Y8241D01*
X9831Y8251D01*
X9804Y8255D01*
D02*
G37*
G36*
X10071Y8253D02*
Y8166D01*
X10158D01*
X10156Y8180D01*
X10146Y8204D01*
X10130Y8225D01*
X10109Y8241D01*
X10085Y8251D01*
X10071Y8253D01*
D02*
G37*
G36*
X10046D02*
X10032Y8251D01*
X10008Y8241D01*
X9987Y8225D01*
X9971Y8204D01*
X9961Y8180D01*
X9959Y8166D01*
X10046D01*
Y8253D01*
D02*
G37*
G36*
X8026Y8255D02*
X8000Y8251D01*
X7976Y8241D01*
X7955Y8225D01*
X7939Y8204D01*
X7929Y8180D01*
X7925Y8153D01*
X7929Y8127D01*
X7939Y8103D01*
X7928Y8096D01*
X7873Y8151D01*
X7874Y8153D01*
X7870Y8180D01*
X7860Y8204D01*
X7844Y8225D01*
X7823Y8241D01*
X7799Y8251D01*
X7772Y8255D01*
X7746Y8251D01*
X7722Y8241D01*
X7701Y8225D01*
X7685Y8204D01*
X7675Y8180D01*
X7671Y8153D01*
X7675Y8127D01*
X7685Y8103D01*
X7701Y8082D01*
X7722Y8066D01*
X7746Y8056D01*
X7772Y8052D01*
X7799Y8056D01*
X7815Y8063D01*
X8168Y7710D01*
X8184Y7699D01*
X8204Y7695D01*
X10748D01*
X10972Y7472D01*
Y5640D01*
X10308D01*
X10120Y5828D01*
X10104Y5839D01*
X10084Y5843D01*
X9267D01*
X9258Y5855D01*
X9240Y5869D01*
X9218Y5878D01*
X9195Y5881D01*
X9172Y5878D01*
X9150Y5869D01*
X9131Y5855D01*
X9117Y5836D01*
X9108Y5814D01*
X9105Y5791D01*
X9108Y5768D01*
X9117Y5746D01*
X9131Y5728D01*
X9150Y5714D01*
X9172Y5705D01*
X9195Y5702D01*
X9218Y5705D01*
X9240Y5714D01*
X9258Y5728D01*
X9267Y5739D01*
X10062D01*
X10250Y5551D01*
X10267Y5540D01*
X10287Y5536D01*
X11002D01*
X11581Y4957D01*
Y4492D01*
X11570Y4483D01*
X11556Y4464D01*
X11547Y4443D01*
X11544Y4420D01*
X11547Y4396D01*
X11556Y4375D01*
X11570Y4356D01*
X11588Y4342D01*
X11610Y4333D01*
X11633Y4330D01*
X11648Y4332D01*
X11861Y4119D01*
Y2815D01*
X11840Y2795D01*
X11597D01*
X11596Y2808D01*
X11606Y2809D01*
X11627Y2818D01*
X11646Y2832D01*
X11660Y2851D01*
X11669Y2872D01*
X11672Y2896D01*
X11669Y2919D01*
X11660Y2940D01*
X11646Y2959D01*
X11627Y2973D01*
X11606Y2982D01*
X11582Y2985D01*
X11559Y2982D01*
X11538Y2973D01*
X11519Y2959D01*
X11510Y2947D01*
X11497D01*
X11495Y2954D01*
X11494Y2960D01*
X11508Y2978D01*
X11517Y2999D01*
X11520Y3023D01*
X11517Y3046D01*
X11508Y3067D01*
X11494Y3085D01*
X11495Y3092D01*
X11497Y3098D01*
X11510D01*
X11519Y3086D01*
X11538Y3072D01*
X11559Y3063D01*
X11582Y3060D01*
X11606Y3063D01*
X11627Y3072D01*
X11646Y3086D01*
X11660Y3105D01*
X11669Y3126D01*
X11672Y3150D01*
X11669Y3173D01*
X11660Y3194D01*
X11646Y3213D01*
X11627Y3227D01*
X11606Y3236D01*
X11582Y3239D01*
X11559Y3236D01*
X11538Y3227D01*
X11519Y3213D01*
X11510Y3201D01*
X11497D01*
X11495Y3208D01*
X11494Y3214D01*
X11508Y3232D01*
X11517Y3253D01*
X11520Y3277D01*
X11517Y3300D01*
X11508Y3321D01*
X11494Y3339D01*
X11495Y3346D01*
X11497Y3352D01*
X11510D01*
X11519Y3340D01*
X11538Y3326D01*
X11559Y3317D01*
X11582Y3314D01*
X11606Y3317D01*
X11627Y3326D01*
X11646Y3340D01*
X11660Y3359D01*
X11669Y3380D01*
X11672Y3404D01*
X11669Y3427D01*
X11660Y3448D01*
X11646Y3467D01*
X11627Y3481D01*
X11606Y3490D01*
X11582Y3493D01*
X11559Y3490D01*
X11538Y3481D01*
X11519Y3467D01*
X11510Y3455D01*
X10969D01*
X10400Y4024D01*
X10383Y4036D01*
X10363Y4040D01*
X9191D01*
X8774Y4456D01*
X8757Y4467D01*
X8738Y4471D01*
X8200D01*
X8191Y4483D01*
X8180Y4492D01*
Y5795D01*
X8484Y6099D01*
X8490Y6095D01*
X8511Y6086D01*
X8534Y6083D01*
X8558Y6086D01*
X8579Y6095D01*
X8598Y6109D01*
X8612Y6127D01*
X8621Y6149D01*
X8624Y6172D01*
X8621Y6195D01*
X8612Y6216D01*
X8614Y6219D01*
X8621Y6226D01*
X8638Y6219D01*
X8661Y6216D01*
X8685Y6219D01*
X8706Y6228D01*
X8725Y6242D01*
X8739Y6261D01*
X8748Y6283D01*
X8751Y6306D01*
X8748Y6329D01*
X8739Y6351D01*
X8725Y6369D01*
X8706Y6383D01*
X8685Y6392D01*
X8661Y6395D01*
X8638Y6392D01*
X8625Y6387D01*
X8616Y6397D01*
X8621Y6410D01*
X8624Y6433D01*
X8621Y6456D01*
X8612Y6478D01*
X8598Y6496D01*
X8579Y6510D01*
X8558Y6519D01*
X8534Y6522D01*
X8511Y6519D01*
X8490Y6510D01*
X8471Y6496D01*
X8462Y6485D01*
X8389D01*
X8369Y6481D01*
X8352Y6469D01*
X7837Y5955D01*
X7826Y5938D01*
X7822Y5918D01*
Y4318D01*
X7825Y4306D01*
X7813Y4300D01*
X7799Y4314D01*
Y5948D01*
X8468Y6617D01*
X8471Y6617D01*
X8490Y6603D01*
X8511Y6594D01*
X8534Y6591D01*
X8558Y6594D01*
X8579Y6603D01*
X8598Y6617D01*
X8612Y6635D01*
X8621Y6657D01*
X8624Y6680D01*
X8621Y6703D01*
X8612Y6724D01*
X8614Y6727D01*
X8621Y6734D01*
X8638Y6727D01*
X8661Y6724D01*
X8685Y6727D01*
X8706Y6736D01*
X8725Y6750D01*
X8739Y6769D01*
X8748Y6791D01*
X8751Y6814D01*
X8748Y6837D01*
X8739Y6859D01*
X8725Y6877D01*
X8706Y6891D01*
X8685Y6900D01*
X8661Y6903D01*
X8651Y6902D01*
X8642Y6914D01*
X8646Y6924D01*
X8649Y6947D01*
X8646Y6971D01*
X8637Y6992D01*
X8623Y7011D01*
X8605Y7025D01*
X8583Y7034D01*
X8573Y7035D01*
X8574Y7048D01*
X8614D01*
X8623Y7036D01*
X8642Y7022D01*
X8664Y7013D01*
X8687Y7010D01*
X8710Y7013D01*
X8732Y7022D01*
X8750Y7036D01*
X8764Y7055D01*
X8773Y7077D01*
X8776Y7100D01*
X8773Y7123D01*
X8764Y7145D01*
X8750Y7163D01*
X8732Y7177D01*
X8710Y7186D01*
X8687Y7189D01*
X8664Y7186D01*
X8642Y7177D01*
X8623Y7163D01*
X8614Y7152D01*
X8414D01*
X8402Y7160D01*
X8382Y7164D01*
X8362Y7160D01*
X8345Y7149D01*
X7329Y6133D01*
X7318Y6116D01*
X7314Y6096D01*
Y4216D01*
X7318Y4197D01*
X7329Y4180D01*
X7888Y3621D01*
X7905Y3610D01*
X7925Y3606D01*
X7987D01*
X7988Y3593D01*
X7978Y3592D01*
X7956Y3583D01*
X7938Y3569D01*
X7932Y3561D01*
X7917Y3560D01*
X7291Y4187D01*
Y6125D01*
X8480Y7314D01*
X9021D01*
X9030Y7303D01*
X9048Y7288D01*
X9070Y7279D01*
X9093Y7276D01*
X9116Y7279D01*
X9138Y7288D01*
X9157Y7303D01*
X9171Y7321D01*
X9180Y7343D01*
X9183Y7366D01*
X9180Y7389D01*
X9171Y7411D01*
X9157Y7429D01*
X9138Y7444D01*
X9116Y7453D01*
X9093Y7456D01*
X9070Y7453D01*
X9048Y7444D01*
X9030Y7429D01*
X9021Y7418D01*
X8458D01*
X8438Y7414D01*
X8422Y7403D01*
X7202Y6183D01*
X7191Y6167D01*
X7187Y6147D01*
Y5221D01*
X7175Y5220D01*
X7173Y5230D01*
X7164Y5252D01*
X7150Y5270D01*
X7131Y5285D01*
X7110Y5294D01*
X7087Y5297D01*
X7063Y5294D01*
X7042Y5285D01*
X7024Y5271D01*
X7018Y5272D01*
X7011Y5274D01*
Y6049D01*
X7733Y6771D01*
X7744Y6787D01*
X7748Y6807D01*
Y7722D01*
X7744Y7741D01*
X7733Y7758D01*
X7365Y8126D01*
Y8254D01*
X7164D01*
Y8053D01*
X7292D01*
X7644Y7700D01*
Y6829D01*
X6923Y6107D01*
X6912Y6090D01*
X6908Y6071D01*
Y3886D01*
X6912Y3866D01*
X6923Y3850D01*
X7787Y2986D01*
X7803Y2975D01*
X7823Y2971D01*
X7857D01*
X7860Y2965D01*
X7861Y2958D01*
X7852Y2947D01*
X7768D01*
X6884Y3831D01*
Y6100D01*
X6896Y6109D01*
X6910Y6127D01*
X6919Y6149D01*
X6922Y6172D01*
X6919Y6195D01*
X6910Y6217D01*
X6896Y6236D01*
X6877Y6250D01*
X6856Y6259D01*
X6833Y6262D01*
X6809Y6259D01*
X6788Y6250D01*
X6769Y6236D01*
X6755Y6217D01*
X6746Y6195D01*
X6743Y6172D01*
X6746Y6149D01*
X6755Y6127D01*
X6769Y6109D01*
X6781Y6100D01*
Y5478D01*
X6775Y5475D01*
X6768Y5474D01*
X6750Y5488D01*
X6729Y5497D01*
X6706Y5500D01*
X6682Y5497D01*
X6661Y5488D01*
X6642Y5474D01*
X6628Y5455D01*
X6619Y5433D01*
X6616Y5410D01*
X6619Y5387D01*
X6628Y5365D01*
X6642Y5347D01*
X6654Y5338D01*
Y3654D01*
X6633Y3633D01*
X6020D01*
X6020Y3633D01*
X6000Y3629D01*
X5983Y3618D01*
X5983Y3618D01*
X5729Y3364D01*
X5718Y3347D01*
X5714Y3327D01*
Y2562D01*
X5702Y2553D01*
X5688Y2534D01*
X5679Y2512D01*
X5676Y2489D01*
X5679Y2466D01*
X5688Y2444D01*
X5702Y2426D01*
X5721Y2412D01*
X5743Y2403D01*
X5766Y2400D01*
X5789Y2403D01*
X5811Y2412D01*
X5829Y2426D01*
X5843Y2444D01*
X5852Y2466D01*
X5855Y2489D01*
X5852Y2512D01*
X5843Y2534D01*
X5829Y2553D01*
X5818Y2562D01*
Y3306D01*
X6041Y3530D01*
X6655D01*
X6675Y3534D01*
X6691Y3545D01*
X6742Y3596D01*
X6753Y3612D01*
X6757Y3632D01*
Y5338D01*
X6768Y5346D01*
X6775Y5345D01*
X6781Y5343D01*
Y3810D01*
X6785Y3790D01*
X6796Y3773D01*
X7710Y2859D01*
X7727Y2848D01*
X7747Y2844D01*
X7852D01*
X7861Y2832D01*
X7880Y2818D01*
X7902Y2809D01*
X7911Y2808D01*
X7911Y2795D01*
X6426D01*
X6406Y2791D01*
X6390Y2780D01*
X5983Y2373D01*
X5972Y2357D01*
X5968Y2337D01*
Y2130D01*
X5956Y2121D01*
X5942Y2102D01*
X5933Y2081D01*
X5930Y2057D01*
X5933Y2034D01*
X5942Y2013D01*
X5956Y1994D01*
X5968Y1985D01*
Y1499D01*
X5972Y1479D01*
X5983Y1462D01*
X6161Y1284D01*
X6161Y1284D01*
X6178Y1273D01*
X6198Y1269D01*
X6836D01*
X6845Y1257D01*
X6864Y1243D01*
X6886Y1234D01*
X6909Y1231D01*
X6932Y1234D01*
X6954Y1243D01*
X6972Y1257D01*
X6986Y1276D01*
X6995Y1298D01*
X6997Y1307D01*
X7009Y1307D01*
Y961D01*
X6998Y952D01*
X6984Y934D01*
X6975Y912D01*
X6972Y889D01*
X6975Y866D01*
X6984Y844D01*
X6998Y826D01*
X7016Y811D01*
X7038Y802D01*
X7051Y801D01*
X7059Y800D01*
Y787D01*
X7053Y786D01*
X7035Y784D01*
X7011Y773D01*
X6990Y757D01*
X6974Y736D01*
X6963Y712D01*
X6960Y686D01*
X6963Y660D01*
X6974Y635D01*
X6983Y623D01*
X6976Y611D01*
X6892D01*
X6886Y623D01*
X6895Y635D01*
X6905Y660D01*
X6908Y686D01*
X6905Y712D01*
X6895Y736D01*
X6879Y757D01*
X6858Y773D01*
X6833Y784D01*
X6807Y787D01*
X6781Y784D01*
X6757Y773D01*
X6736Y757D01*
X6720Y736D01*
X6709Y712D01*
X6706Y686D01*
X6709Y660D01*
X6720Y635D01*
X6729Y623D01*
X6722Y611D01*
X6638D01*
X6632Y623D01*
X6641Y635D01*
X6651Y660D01*
X6654Y686D01*
X6651Y712D01*
X6641Y736D01*
X6625Y757D01*
X6604Y773D01*
X6579Y784D01*
X6553Y787D01*
X6527Y784D01*
X6503Y773D01*
X6482Y757D01*
X6466Y736D01*
X6455Y712D01*
X6452Y686D01*
X6455Y660D01*
X6466Y635D01*
X6475Y623D01*
X6468Y611D01*
X4670D01*
X4395Y885D01*
Y1198D01*
X4407Y1207D01*
X4421Y1225D01*
X4430Y1247D01*
X4433Y1270D01*
X4430Y1293D01*
X4421Y1315D01*
X4407Y1333D01*
X4388Y1348D01*
X4367Y1357D01*
X4343Y1360D01*
X4320Y1357D01*
X4299Y1348D01*
X4280Y1333D01*
X4266Y1315D01*
X4257Y1293D01*
X4254Y1270D01*
X4257Y1247D01*
X4266Y1225D01*
X4280Y1207D01*
X4292Y1198D01*
Y864D01*
X4296Y844D01*
X4307Y827D01*
X4612Y522D01*
X4628Y511D01*
X4648Y507D01*
X6468D01*
X6475Y494D01*
X6466Y482D01*
X6455Y458D01*
X6454Y445D01*
X6553D01*
X6653D01*
X6651Y458D01*
X6641Y482D01*
X6632Y494D01*
X6638Y507D01*
X6722D01*
X6729Y494D01*
X6720Y482D01*
X6709Y458D01*
X6706Y432D01*
X6709Y406D01*
X6720Y381D01*
X6736Y360D01*
X6757Y344D01*
X6781Y334D01*
X6807Y331D01*
X6833Y334D01*
X6858Y344D01*
X6879Y360D01*
X6895Y381D01*
X6905Y406D01*
X6908Y432D01*
X6905Y458D01*
X6895Y482D01*
X6886Y494D01*
X6892Y507D01*
X6976D01*
X6983Y494D01*
X6974Y482D01*
X6963Y458D01*
X6960Y432D01*
X6963Y406D01*
X6974Y381D01*
X6990Y360D01*
X7011Y344D01*
X7035Y334D01*
X7061Y331D01*
X7087Y334D01*
X7112Y344D01*
X7133Y360D01*
X7149Y381D01*
X7159Y406D01*
X7162Y432D01*
X7159Y458D01*
X7149Y482D01*
X7140Y494D01*
X7146Y507D01*
X7167D01*
X7217Y457D01*
X7214Y432D01*
X7217Y406D01*
X7228Y381D01*
X7244Y360D01*
X7265Y344D01*
X7289Y334D01*
X7315Y331D01*
X7341Y334D01*
X7366Y344D01*
X7387Y360D01*
X7403Y381D01*
X7413Y406D01*
X7416Y432D01*
X7413Y458D01*
X7403Y482D01*
X7387Y503D01*
X7366Y519D01*
X7341Y530D01*
X7315Y533D01*
X7290Y530D01*
X7225Y595D01*
X7208Y607D01*
X7188Y611D01*
X7146D01*
X7140Y623D01*
X7149Y635D01*
X7159Y660D01*
X7162Y686D01*
X7159Y711D01*
X7276Y827D01*
X7276Y827D01*
X7287Y844D01*
X7291Y864D01*
Y2163D01*
X7302Y2171D01*
X7308Y2170D01*
X7314Y2168D01*
Y787D01*
X7289Y784D01*
X7265Y773D01*
X7244Y757D01*
X7228Y736D01*
X7217Y712D01*
X7214Y686D01*
X7217Y660D01*
X7228Y635D01*
X7244Y614D01*
X7265Y598D01*
X7289Y588D01*
X7315Y585D01*
X7341Y588D01*
X7366Y598D01*
X7387Y614D01*
X7403Y635D01*
X7413Y660D01*
X7416Y686D01*
X7413Y712D01*
X7412Y714D01*
X7414Y717D01*
X7418Y737D01*
Y1002D01*
X7430Y1003D01*
X7432Y993D01*
X7441Y971D01*
X7455Y953D01*
X7474Y938D01*
X7495Y929D01*
X7518Y926D01*
X7542Y929D01*
X7563Y938D01*
X7582Y953D01*
X7596Y971D01*
X7605Y993D01*
X7608Y1016D01*
X7605Y1039D01*
X7596Y1061D01*
X7582Y1079D01*
X7570Y1088D01*
Y2163D01*
X7582Y2172D01*
X7596Y2190D01*
X7605Y2212D01*
X7608Y2235D01*
X7605Y2258D01*
X7596Y2280D01*
X7582Y2299D01*
X7563Y2313D01*
X7542Y2322D01*
X7518Y2325D01*
X7495Y2322D01*
X7474Y2313D01*
X7455Y2299D01*
X7441Y2280D01*
X7432Y2258D01*
X7430Y2249D01*
X7418Y2249D01*
Y2290D01*
X7429Y2299D01*
X7444Y2317D01*
X7453Y2339D01*
X7456Y2362D01*
X7453Y2385D01*
X7444Y2407D01*
X7429Y2426D01*
X7411Y2440D01*
X7389Y2449D01*
X7366Y2452D01*
X7343Y2449D01*
X7321Y2440D01*
X7303Y2426D01*
X7288Y2407D01*
X7279Y2385D01*
X7276Y2362D01*
X7279Y2339D01*
X7285Y2326D01*
X7275Y2317D01*
X7262Y2322D01*
X7239Y2325D01*
X7216Y2322D01*
X7194Y2313D01*
X7176Y2299D01*
X7161Y2280D01*
X7156Y2267D01*
X7141Y2265D01*
X7135Y2273D01*
X7116Y2287D01*
X7095Y2296D01*
X7071Y2299D01*
X7048Y2296D01*
X7026Y2287D01*
X7008Y2273D01*
X6994Y2255D01*
X6985Y2233D01*
X6982Y2210D01*
X6985Y2187D01*
X6994Y2165D01*
X7008Y2146D01*
X7009Y2145D01*
Y1335D01*
X6997Y1334D01*
X6995Y1344D01*
X6986Y1366D01*
X6972Y1384D01*
X6954Y1398D01*
X6932Y1407D01*
X6909Y1410D01*
X6886Y1407D01*
X6864Y1398D01*
X6845Y1384D01*
X6836Y1373D01*
X6219D01*
X6072Y1520D01*
Y1863D01*
X6078Y1865D01*
X6084Y1866D01*
X6102Y1853D01*
X6124Y1844D01*
X6147Y1841D01*
X6170Y1844D01*
X6192Y1853D01*
X6210Y1867D01*
X6224Y1886D01*
X6233Y1907D01*
X6236Y1930D01*
X6233Y1954D01*
X6224Y1975D01*
X6210Y1994D01*
X6199Y2003D01*
Y2239D01*
X6524Y2564D01*
X10494D01*
X10503Y2553D01*
X10522Y2539D01*
X10543Y2530D01*
X10566Y2527D01*
X10590Y2530D01*
X10611Y2539D01*
X10630Y2553D01*
X10644Y2571D01*
X10653Y2593D01*
X10656Y2616D01*
X10653Y2639D01*
X10644Y2661D01*
X10630Y2679D01*
X10632Y2685D01*
X10634Y2691D01*
X10855D01*
X10857Y2685D01*
X10858Y2679D01*
X10844Y2661D01*
X10835Y2639D01*
X10832Y2616D01*
X10834Y2602D01*
X9839Y1606D01*
X9828Y1611D01*
X9804Y1614D01*
X9781Y1611D01*
X9760Y1602D01*
X9741Y1587D01*
X9727Y1569D01*
X9718Y1547D01*
X9715Y1524D01*
X9718Y1501D01*
X9727Y1479D01*
X9741Y1461D01*
X9760Y1446D01*
X9781Y1437D01*
X9804Y1434D01*
X9828Y1437D01*
X9849Y1446D01*
X9868Y1461D01*
X9882Y1479D01*
X9891Y1501D01*
X9893Y1514D01*
X10907Y2528D01*
X10922Y2527D01*
X10945Y2530D01*
X10967Y2539D01*
X10985Y2553D01*
X11000Y2571D01*
X11009Y2593D01*
X11012Y2616D01*
X11009Y2639D01*
X11000Y2661D01*
X10986Y2679D01*
X10987Y2685D01*
X10989Y2691D01*
X11862D01*
X11882Y2695D01*
X11898Y2707D01*
X11949Y2757D01*
X11960Y2774D01*
X11964Y2794D01*
Y4140D01*
X11960Y4160D01*
X11949Y4177D01*
X11721Y4405D01*
X11723Y4420D01*
X11720Y4443D01*
X11711Y4464D01*
X11697Y4483D01*
X11685Y4492D01*
Y4978D01*
X11685Y4978D01*
X11681Y4998D01*
X11670Y5015D01*
X11670Y5015D01*
X11075Y5609D01*
Y7493D01*
X11075Y7493D01*
X11071Y7513D01*
X11060Y7530D01*
X11060Y7530D01*
X10806Y7784D01*
X10789Y7795D01*
X10770Y7799D01*
X8226D01*
X7969Y8055D01*
X7976Y8066D01*
X8000Y8056D01*
X8026Y8052D01*
X8053Y8056D01*
X8077Y8066D01*
X8098Y8082D01*
X8114Y8103D01*
X8124Y8127D01*
X8128Y8153D01*
X8124Y8180D01*
X8114Y8204D01*
X8098Y8225D01*
X8077Y8241D01*
X8053Y8251D01*
X8026Y8255D01*
D02*
G37*
G36*
X8788D02*
X8762Y8251D01*
X8738Y8241D01*
X8717Y8225D01*
X8701Y8204D01*
X8691Y8180D01*
X8687Y8153D01*
X8691Y8127D01*
X8701Y8103D01*
X8717Y8082D01*
X8738Y8066D01*
X8762Y8056D01*
X8788Y8052D01*
X8815Y8056D01*
X8839Y8066D01*
X8860Y8082D01*
X8876Y8103D01*
X8886Y8127D01*
X8890Y8153D01*
X8886Y8180D01*
X8876Y8204D01*
X8860Y8225D01*
X8839Y8241D01*
X8815Y8251D01*
X8788Y8255D01*
D02*
G37*
G36*
X8534D02*
X8508Y8251D01*
X8484Y8241D01*
X8463Y8225D01*
X8447Y8204D01*
X8437Y8180D01*
X8433Y8153D01*
X8437Y8127D01*
X8447Y8103D01*
X8463Y8082D01*
X8484Y8066D01*
X8508Y8056D01*
X8534Y8052D01*
X8561Y8056D01*
X8585Y8066D01*
X8606Y8082D01*
X8622Y8103D01*
X8632Y8127D01*
X8636Y8153D01*
X8632Y8180D01*
X8622Y8204D01*
X8606Y8225D01*
X8585Y8241D01*
X8561Y8251D01*
X8534Y8255D01*
D02*
G37*
G36*
X8280D02*
X8254Y8251D01*
X8230Y8241D01*
X8209Y8225D01*
X8193Y8204D01*
X8183Y8180D01*
X8179Y8153D01*
X8183Y8127D01*
X8193Y8103D01*
X8209Y8082D01*
X8230Y8066D01*
X8254Y8056D01*
X8280Y8052D01*
X8307Y8056D01*
X8331Y8066D01*
X8352Y8082D01*
X8368Y8103D01*
X8378Y8127D01*
X8382Y8153D01*
X8378Y8180D01*
X8368Y8204D01*
X8352Y8225D01*
X8331Y8241D01*
X8307Y8251D01*
X8280Y8255D01*
D02*
G37*
G36*
X9550D02*
X9524Y8251D01*
X9500Y8241D01*
X9479Y8225D01*
X9463Y8204D01*
X9453Y8180D01*
X9449Y8153D01*
X9453Y8127D01*
X9463Y8103D01*
X9479Y8082D01*
X9500Y8066D01*
X9524Y8056D01*
X9550Y8052D01*
X9577Y8056D01*
X9601Y8066D01*
X9622Y8082D01*
X9638Y8103D01*
X9648Y8127D01*
X9652Y8153D01*
X9648Y8180D01*
X9638Y8204D01*
X9622Y8225D01*
X9601Y8241D01*
X9577Y8251D01*
X9550Y8255D01*
D02*
G37*
G36*
X9296D02*
X9270Y8251D01*
X9246Y8241D01*
X9225Y8225D01*
X9209Y8204D01*
X9199Y8180D01*
X9195Y8153D01*
X9199Y8127D01*
X9209Y8103D01*
X9225Y8082D01*
X9246Y8066D01*
X9270Y8056D01*
X9296Y8052D01*
X9323Y8056D01*
X9347Y8066D01*
X9368Y8082D01*
X9384Y8103D01*
X9394Y8127D01*
X9398Y8153D01*
X9394Y8180D01*
X9384Y8204D01*
X9368Y8225D01*
X9347Y8241D01*
X9323Y8251D01*
X9296Y8255D01*
D02*
G37*
G36*
X9042D02*
X9016Y8251D01*
X8992Y8241D01*
X8971Y8225D01*
X8955Y8204D01*
X8945Y8180D01*
X8941Y8153D01*
X8945Y8127D01*
X8955Y8103D01*
X8971Y8082D01*
X8992Y8066D01*
X9016Y8056D01*
X9042Y8052D01*
X9069Y8056D01*
X9093Y8066D01*
X9114Y8082D01*
X9130Y8103D01*
X9140Y8127D01*
X9144Y8153D01*
X9140Y8180D01*
X9130Y8204D01*
X9114Y8225D01*
X9093Y8241D01*
X9069Y8251D01*
X9042Y8255D01*
D02*
G37*
G36*
X1442Y7375D02*
X1414Y7371D01*
X1387Y7360D01*
X1364Y7343D01*
X1346Y7320D01*
X1335Y7293D01*
X1331Y7264D01*
X1335Y7236D01*
X1346Y7209D01*
X1364Y7186D01*
X1387Y7168D01*
X1414Y7157D01*
X1442Y7154D01*
X1471Y7157D01*
X1498Y7168D01*
X1521Y7186D01*
X1538Y7209D01*
X1549Y7236D01*
X1553Y7264D01*
X1549Y7293D01*
X1538Y7320D01*
X1521Y7343D01*
X1498Y7360D01*
X1471Y7371D01*
X1442Y7375D01*
D02*
G37*
G36*
X2685Y7091D02*
X2656Y7087D01*
X2629Y7076D01*
X2606Y7059D01*
X2589Y7036D01*
X2578Y7009D01*
X2574Y6980D01*
X2578Y6952D01*
X2589Y6925D01*
X2606Y6902D01*
X2629Y6884D01*
X2656Y6873D01*
X2685Y6870D01*
X2713Y6873D01*
X2740Y6884D01*
X2763Y6902D01*
X2781Y6925D01*
X2792Y6952D01*
X2795Y6980D01*
X2792Y7009D01*
X2781Y7036D01*
X2763Y7059D01*
X2740Y7076D01*
X2713Y7087D01*
X2685Y7091D01*
D02*
G37*
G36*
X2409D02*
X2380Y7087D01*
X2353Y7076D01*
X2330Y7059D01*
X2313Y7036D01*
X2301Y7009D01*
X2298Y6980D01*
X2301Y6952D01*
X2313Y6925D01*
X2330Y6902D01*
X2353Y6884D01*
X2380Y6873D01*
X2409Y6870D01*
X2437Y6873D01*
X2464Y6884D01*
X2487Y6902D01*
X2505Y6925D01*
X2516Y6952D01*
X2519Y6980D01*
X2516Y7009D01*
X2505Y7036D01*
X2487Y7059D01*
X2464Y7076D01*
X2437Y7087D01*
X2409Y7091D01*
D02*
G37*
G36*
X2132D02*
X2104Y7087D01*
X2077Y7076D01*
X2054Y7059D01*
X2036Y7036D01*
X2025Y7009D01*
X2022Y6980D01*
X2025Y6952D01*
X2036Y6925D01*
X2054Y6902D01*
X2077Y6884D01*
X2104Y6873D01*
X2132Y6870D01*
X2161Y6873D01*
X2188Y6884D01*
X2211Y6902D01*
X2228Y6925D01*
X2240Y6952D01*
X2243Y6980D01*
X2240Y7009D01*
X2228Y7036D01*
X2211Y7059D01*
X2188Y7076D01*
X2161Y7087D01*
X2132Y7091D01*
D02*
G37*
G36*
X3789D02*
X3760Y7087D01*
X3734Y7076D01*
X3711Y7059D01*
X3693Y7036D01*
X3682Y7009D01*
X3678Y6980D01*
X3682Y6952D01*
X3693Y6925D01*
X3711Y6902D01*
X3734Y6884D01*
X3760Y6873D01*
X3789Y6870D01*
X3818Y6873D01*
X3844Y6884D01*
X3867Y6902D01*
X3885Y6925D01*
X3896Y6952D01*
X3900Y6980D01*
X3896Y7009D01*
X3885Y7036D01*
X3867Y7059D01*
X3844Y7076D01*
X3818Y7087D01*
X3789Y7091D01*
D02*
G37*
G36*
X3513D02*
X3484Y7087D01*
X3458Y7076D01*
X3435Y7059D01*
X3417Y7036D01*
X3406Y7009D01*
X3402Y6980D01*
X3406Y6952D01*
X3417Y6925D01*
X3435Y6902D01*
X3458Y6884D01*
X3484Y6873D01*
X3513Y6870D01*
X3542Y6873D01*
X3568Y6884D01*
X3591Y6902D01*
X3609Y6925D01*
X3620Y6952D01*
X3624Y6980D01*
X3620Y7009D01*
X3609Y7036D01*
X3591Y7059D01*
X3568Y7076D01*
X3542Y7087D01*
X3513Y7091D01*
D02*
G37*
G36*
X3237D02*
X3208Y7087D01*
X3181Y7076D01*
X3158Y7059D01*
X3141Y7036D01*
X3130Y7009D01*
X3126Y6980D01*
X3130Y6952D01*
X3141Y6925D01*
X3158Y6902D01*
X3181Y6884D01*
X3208Y6873D01*
X3237Y6870D01*
X3266Y6873D01*
X3292Y6884D01*
X3315Y6902D01*
X3333Y6925D01*
X3344Y6952D01*
X3348Y6980D01*
X3344Y7009D01*
X3333Y7036D01*
X3315Y7059D01*
X3292Y7076D01*
X3266Y7087D01*
X3237Y7091D01*
D02*
G37*
G36*
X5301Y7110D02*
X5050D01*
X5052Y7081D01*
X5062Y7041D01*
X5078Y7002D01*
X5100Y6967D01*
X5127Y6936D01*
X5158Y6909D01*
X5193Y6887D01*
X5232Y6871D01*
X5272Y6861D01*
X5301Y6859D01*
Y7110D01*
D02*
G37*
G36*
X871D02*
X621D01*
Y6859D01*
X649Y6861D01*
X690Y6871D01*
X728Y6887D01*
X763Y6909D01*
X795Y6936D01*
X822Y6967D01*
X844Y7002D01*
X859Y7041D01*
X869Y7081D01*
X871Y7110D01*
D02*
G37*
G36*
X595D02*
X345D01*
X347Y7081D01*
X357Y7041D01*
X373Y7002D01*
X394Y6967D01*
X421Y6936D01*
X453Y6909D01*
X488Y6887D01*
X527Y6871D01*
X567Y6861D01*
X595Y6859D01*
Y7110D01*
D02*
G37*
G36*
X1856Y7091D02*
X1828Y7087D01*
X1801Y7076D01*
X1778Y7059D01*
X1760Y7036D01*
X1749Y7009D01*
X1746Y6980D01*
X1749Y6952D01*
X1760Y6925D01*
X1778Y6902D01*
X1801Y6884D01*
X1828Y6873D01*
X1856Y6870D01*
X1885Y6873D01*
X1912Y6884D01*
X1935Y6902D01*
X1952Y6925D01*
X1963Y6952D01*
X1967Y6980D01*
X1963Y7009D01*
X1952Y7036D01*
X1935Y7059D01*
X1912Y7076D01*
X1885Y7087D01*
X1856Y7091D01*
D02*
G37*
G36*
X1580D02*
X1552Y7087D01*
X1525Y7076D01*
X1502Y7059D01*
X1484Y7036D01*
X1473Y7009D01*
X1469Y6980D01*
X1473Y6952D01*
X1484Y6925D01*
X1502Y6902D01*
X1525Y6884D01*
X1552Y6873D01*
X1580Y6870D01*
X1609Y6873D01*
X1636Y6884D01*
X1659Y6902D01*
X1676Y6925D01*
X1687Y6952D01*
X1691Y6980D01*
X1687Y7009D01*
X1676Y7036D01*
X1659Y7059D01*
X1636Y7076D01*
X1609Y7087D01*
X1580Y7091D01*
D02*
G37*
G36*
X5577Y7110D02*
X5326D01*
Y6859D01*
X5355Y6861D01*
X5395Y6871D01*
X5433Y6887D01*
X5469Y6909D01*
X5500Y6936D01*
X5527Y6967D01*
X5549Y7002D01*
X5565Y7041D01*
X5574Y7081D01*
X5577Y7110D01*
D02*
G37*
G36*
X595Y7386D02*
X567Y7383D01*
X527Y7374D01*
X488Y7358D01*
X453Y7336D01*
X421Y7309D01*
X394Y7278D01*
X373Y7242D01*
X357Y7204D01*
X347Y7164D01*
X345Y7135D01*
X595D01*
Y7386D01*
D02*
G37*
G36*
X2973Y7090D02*
Y6993D01*
X3070D01*
X3068Y7009D01*
X3057Y7036D01*
X3039Y7059D01*
X3016Y7076D01*
X2989Y7087D01*
X2973Y7090D01*
D02*
G37*
G36*
X2948Y7090D02*
X2932Y7087D01*
X2905Y7076D01*
X2882Y7059D01*
X2865Y7036D01*
X2854Y7009D01*
X2852Y6993D01*
X2948D01*
Y7090D01*
D02*
G37*
G36*
X5326Y7386D02*
Y7135D01*
X5577D01*
X5574Y7164D01*
X5565Y7204D01*
X5549Y7242D01*
X5527Y7278D01*
X5500Y7309D01*
X5469Y7336D01*
X5433Y7358D01*
X5395Y7374D01*
X5355Y7383D01*
X5326Y7386D01*
D02*
G37*
G36*
X5301D02*
X5272Y7383D01*
X5232Y7374D01*
X5193Y7358D01*
X5158Y7336D01*
X5127Y7309D01*
X5100Y7278D01*
X5078Y7242D01*
X5062Y7204D01*
X5052Y7164D01*
X5050Y7135D01*
X5301D01*
Y7386D01*
D02*
G37*
G36*
X621D02*
Y7135D01*
X871D01*
X869Y7164D01*
X859Y7204D01*
X844Y7242D01*
X822Y7278D01*
X795Y7309D01*
X763Y7336D01*
X728Y7358D01*
X690Y7374D01*
X649Y7383D01*
X621Y7386D01*
D02*
G37*
G36*
X4617Y7091D02*
X4589Y7087D01*
X4562Y7076D01*
X4539Y7059D01*
X4521Y7036D01*
X4510Y7009D01*
X4507Y6980D01*
X4510Y6952D01*
X4521Y6925D01*
X4539Y6902D01*
X4562Y6884D01*
X4589Y6873D01*
X4617Y6870D01*
X4646Y6873D01*
X4673Y6884D01*
X4696Y6902D01*
X4713Y6925D01*
X4724Y6952D01*
X4728Y6980D01*
X4724Y7009D01*
X4713Y7036D01*
X4696Y7059D01*
X4673Y7076D01*
X4646Y7087D01*
X4617Y7091D01*
D02*
G37*
G36*
X4341D02*
X4313Y7087D01*
X4286Y7076D01*
X4263Y7059D01*
X4245Y7036D01*
X4234Y7009D01*
X4230Y6980D01*
X4234Y6952D01*
X4245Y6925D01*
X4263Y6902D01*
X4286Y6884D01*
X4313Y6873D01*
X4341Y6870D01*
X4370Y6873D01*
X4397Y6884D01*
X4420Y6902D01*
X4437Y6925D01*
X4448Y6952D01*
X4452Y6980D01*
X4448Y7009D01*
X4437Y7036D01*
X4420Y7059D01*
X4397Y7076D01*
X4370Y7087D01*
X4341Y7091D01*
D02*
G37*
G36*
X4065D02*
X4036Y7087D01*
X4010Y7076D01*
X3987Y7059D01*
X3969Y7036D01*
X3958Y7009D01*
X3954Y6980D01*
X3958Y6952D01*
X3969Y6925D01*
X3987Y6902D01*
X4010Y6884D01*
X4036Y6873D01*
X4065Y6870D01*
X4094Y6873D01*
X4121Y6884D01*
X4144Y6902D01*
X4161Y6925D01*
X4172Y6952D01*
X4176Y6980D01*
X4172Y7009D01*
X4161Y7036D01*
X4144Y7059D01*
X4121Y7076D01*
X4094Y7087D01*
X4065Y7091D01*
D02*
G37*
G36*
X2948Y6968D02*
X2852D01*
X2854Y6952D01*
X2865Y6925D01*
X2882Y6902D01*
X2905Y6884D01*
X2932Y6873D01*
X2948Y6871D01*
Y6968D01*
D02*
G37*
G36*
X3070D02*
X2973D01*
Y6871D01*
X2989Y6873D01*
X3016Y6884D01*
X3039Y6902D01*
X3057Y6925D01*
X3068Y6952D01*
X3070Y6968D01*
D02*
G37*
G36*
X1414Y7090D02*
X1194D01*
Y6871D01*
X1414D01*
Y7090D01*
D02*
G37*
%LPD*%
D22*
X5359Y4039D02*
X6071Y4750D01*
Y5766D01*
X5131Y4293D02*
X5817Y4978D01*
Y5588D01*
X4343Y864D02*
Y1270D01*
Y864D02*
X4648Y559D01*
X7188D01*
X7315Y432D01*
X7518Y1016D02*
Y2235D01*
X7061Y889D02*
Y2200D01*
X7239Y864D02*
Y2235D01*
X7061Y686D02*
X7239Y864D01*
X7315Y686D02*
X7366Y737D01*
X7290Y660D02*
X7315Y686D01*
X7366Y737D02*
Y2362D01*
X7734Y1181D02*
X7760D01*
X8382Y1803D01*
X7061Y2200D02*
X7071Y2210D01*
X7772Y8179D02*
X8204Y7747D01*
X6020Y1499D02*
X6198Y1321D01*
X6909D01*
X2057Y5994D02*
X5461D01*
X2032Y5969D02*
X2057Y5994D01*
X1930Y6147D02*
X5309D01*
X1829Y6299D02*
X5156D01*
X1803Y6325D02*
X1829Y6299D01*
X6960Y3886D02*
Y6071D01*
Y3886D02*
X7823Y3023D01*
X6960Y6071D02*
X7696Y6807D01*
X7264Y8153D02*
X7696Y7722D01*
Y6807D02*
Y7722D01*
X8382Y1803D02*
X8534D01*
X8814Y2083D02*
X9195Y1702D01*
X8534Y2083D02*
X8814D01*
X8255Y2362D02*
X8534Y2083D01*
X9195Y1041D02*
Y1702D01*
X9369Y1165D02*
Y1781D01*
X8941Y2210D02*
X9369Y1781D01*
X8611Y2210D02*
X8941D01*
X9525Y1295D02*
Y1829D01*
X8992Y2362D02*
X9525Y1829D01*
X8687Y2362D02*
X8992D01*
X8458D02*
X8611Y2210D01*
X5486Y2337D02*
Y2794D01*
X8128Y5817D02*
X8484Y6172D01*
X8128Y4420D02*
Y5817D01*
Y4420D02*
X8738D01*
X10439Y5105D02*
X11227D01*
X10414Y5080D02*
X10439Y5105D01*
X10287Y5588D02*
X11024D01*
X11633Y4420D02*
Y4978D01*
X11024Y5588D02*
X11633Y4978D01*
X11024Y5588D02*
Y7493D01*
X10084Y5791D02*
X10287Y5588D01*
X9195Y5791D02*
X10084D01*
X10770Y7747D02*
X11024Y7493D01*
X8204Y7747D02*
X10770D01*
X7772Y8153D02*
Y8179D01*
X6833Y3810D02*
Y6172D01*
X8408Y6947D02*
X8560D01*
X8394Y7100D02*
X8687D01*
X8382Y7112D02*
X8394Y7100D01*
X8395Y6934D02*
X8408Y6947D01*
X7874Y5918D02*
X8389Y6433D01*
X8534D01*
X8484Y6172D02*
X8534D01*
X8001Y5851D02*
X8456Y6306D01*
X8661D01*
X8389Y6941D02*
X8395Y6934D01*
X7493Y6045D02*
X8389Y6941D01*
X8458Y6680D02*
X8534D01*
X7620Y6020D02*
X8414Y6814D01*
X8661D01*
X7239Y4166D02*
Y6147D01*
X8458Y7366D01*
X9093D01*
X7874Y4318D02*
Y5918D01*
X7747Y4293D02*
Y5969D01*
Y4293D02*
X8001Y4039D01*
X7747Y5969D02*
X8458Y6680D01*
X7493Y4267D02*
Y6045D01*
X7366Y4216D02*
Y6096D01*
Y4216D02*
X7925Y3658D01*
X7366Y6096D02*
X8382Y7112D01*
X6706Y3632D02*
Y5410D01*
X7087Y3912D02*
Y5207D01*
Y3912D02*
X7849Y3150D01*
X6833Y3810D02*
X7747Y2896D01*
X6655Y3581D02*
X6706Y3632D01*
X6020Y3581D02*
X6655D01*
X7747Y2896D02*
X7925D01*
X7823Y3023D02*
X8001D01*
X7849Y3150D02*
X8077D01*
X7239Y4166D02*
X7899Y3505D01*
X7493Y4267D02*
X7976Y3785D01*
X7620Y4293D02*
Y6020D01*
Y4293D02*
X8001Y3912D01*
X7874Y4318D02*
X8026Y4166D01*
X8001Y4343D02*
Y5851D01*
Y4343D02*
X8052Y4293D01*
X7899Y3505D02*
X8001D01*
X7925Y3658D02*
X8128D01*
X7976Y3785D02*
X8255D01*
X8001Y3912D02*
X8128D01*
X8001Y4039D02*
X8255D01*
X8026Y4166D02*
X8128D01*
X8052Y4293D02*
X8255D01*
X8128Y3607D02*
Y3658D01*
Y3607D02*
X8636Y3099D01*
X8255Y3759D02*
Y3785D01*
Y3759D02*
X8738Y3277D01*
X8128Y3912D02*
X8357D01*
X8128Y4166D02*
X8509D01*
X8255Y4039D02*
X8433D01*
X8255Y4293D02*
X8611D01*
X8357Y3912D02*
X8839Y3429D01*
X8433Y4039D02*
X8890Y3581D01*
X8509Y4166D02*
X8941Y3734D01*
X8611Y4293D02*
X9042Y3861D01*
X8738Y4420D02*
X9169Y3988D01*
X8077Y3150D02*
X8331Y2896D01*
X8001Y3023D02*
X8128Y2896D01*
X6426Y2743D02*
X11862D01*
X6502Y2616D02*
X10566D01*
X6020Y2337D02*
X6426Y2743D01*
X8001Y3505D02*
X8585Y2921D01*
X6147Y2261D02*
X6502Y2616D01*
X8585Y2921D02*
X9982D01*
X8153Y1803D02*
Y2083D01*
X7899Y1651D02*
Y2083D01*
X7696Y1499D02*
Y2083D01*
X11862Y2743D02*
X11913Y2794D01*
Y4140D01*
X11633Y4420D02*
X11913Y4140D01*
X6020Y2057D02*
Y2337D01*
X10947Y3404D02*
X11582D01*
X10363Y3988D02*
X10947Y3404D01*
X9169Y3988D02*
X10363D01*
X10846Y3277D02*
X11430D01*
X10262Y3861D02*
X10846Y3277D01*
X9042Y3861D02*
X10262D01*
X10770Y3150D02*
X11582D01*
X10185Y3734D02*
X10770Y3150D01*
X8941Y3734D02*
X10185D01*
X10693Y3023D02*
X11430D01*
X10135Y3581D02*
X10693Y3023D01*
X8890Y3581D02*
X10135D01*
X10058Y3429D02*
X10592Y2896D01*
X11582D01*
X8839Y3429D02*
X10058D01*
X8636Y3099D02*
X9982D01*
X8738Y3277D02*
X9982D01*
X6147Y1930D02*
Y2261D01*
X5766Y3327D02*
X6020Y3581D01*
X5766Y2489D02*
Y3327D01*
X4597Y3759D02*
X5436D01*
X4547Y3607D02*
X5588D01*
X4394Y3759D02*
X4547Y3607D01*
X4496Y3480D02*
X5486D01*
X4089Y3886D02*
X4496Y3480D01*
X4115Y3632D02*
X4445Y3302D01*
X5410D01*
X4699Y3150D02*
X5486D01*
X4343Y4013D02*
X4597Y3759D01*
X4293Y2235D02*
Y2743D01*
X4699Y3150D01*
X1892Y4674D02*
X2197D01*
X2730Y4140D01*
X2108Y4267D02*
X2413D01*
X1803Y2616D02*
X1880Y2540D01*
X1803Y2616D02*
Y3962D01*
X2108Y4267D01*
X6020Y1499D02*
Y2057D01*
X9830Y1524D02*
X10922Y2616D01*
X9804Y1524D02*
X9830D01*
D25*
X6553Y432D02*
D03*
Y686D02*
D03*
X6807Y432D02*
D03*
Y686D02*
D03*
X7061Y432D02*
D03*
Y686D02*
D03*
X7315Y432D02*
D03*
Y686D02*
D03*
X7569Y432D02*
D03*
X10058Y8153D02*
D03*
X9804D02*
D03*
X9550D02*
D03*
X9296D02*
D03*
X9042D02*
D03*
X8788D02*
D03*
X8534D02*
D03*
X8280D02*
D03*
X8026D02*
D03*
X7772D02*
D03*
X7518D02*
D03*
X635Y5893D02*
D03*
Y6147D02*
D03*
Y4534D02*
D03*
X997Y3721D02*
D03*
X10516Y6807D02*
D03*
Y6553D02*
D03*
Y6299D02*
D03*
Y6045D02*
D03*
X1118Y914D02*
D03*
D26*
X7569Y686D02*
D03*
X7264Y8153D02*
D03*
X743Y3721D02*
D03*
D27*
X635Y5639D02*
D03*
Y4280D02*
D03*
X10516Y5791D02*
D03*
X1118Y660D02*
D03*
D28*
X4866Y5436D02*
D03*
D29*
X3820D02*
D03*
D30*
X2337Y3299D02*
D03*
Y3609D02*
D03*
X5692Y1473D02*
D03*
X5382D02*
D03*
D31*
X4617Y6980D02*
D03*
X4479Y7264D02*
D03*
X4341Y6980D02*
D03*
X4203Y7264D02*
D03*
X4065Y6980D02*
D03*
X3927Y7264D02*
D03*
X3789Y6980D02*
D03*
X3651Y7264D02*
D03*
X3513Y6980D02*
D03*
X3375Y7264D02*
D03*
X3237Y6980D02*
D03*
X3099Y7264D02*
D03*
X2961Y6980D02*
D03*
X2823Y7264D02*
D03*
X2685Y6980D02*
D03*
X2547Y7264D02*
D03*
X2409Y6980D02*
D03*
X2270Y7264D02*
D03*
X2132Y6980D02*
D03*
X1994Y7264D02*
D03*
X1856Y6980D02*
D03*
X1718Y7264D02*
D03*
X1580Y6980D02*
D03*
X1442Y7264D02*
D03*
D32*
X1304Y6980D02*
D03*
D33*
X608Y7122D02*
D03*
X5313D02*
D03*
D34*
X3277Y2261D02*
D03*
D35*
Y1753D02*
D03*
D36*
X2692Y965D02*
D03*
X1168Y2642D02*
D03*
X330Y1854D02*
D03*
X10770Y1499D02*
D03*
X7341Y7341D02*
D03*
X4750Y2184D02*
D03*
X2997Y5461D02*
D03*
X6071Y5766D02*
D03*
X5817Y5588D02*
D03*
X5131Y4293D02*
D03*
X4343Y1270D02*
D03*
X7518Y1016D02*
D03*
X7061Y889D02*
D03*
X7734Y1181D02*
D03*
X6909Y1321D02*
D03*
X5359Y4039D02*
D03*
X5461Y5994D02*
D03*
X5309Y6147D02*
D03*
X5156Y6299D02*
D03*
X1930Y6147D02*
D03*
X2032Y5969D02*
D03*
X8534Y1803D02*
D03*
X1880Y2540D02*
D03*
X2413Y4267D02*
D03*
X5486Y2337D02*
D03*
X8128Y4420D02*
D03*
X11227Y5105D02*
D03*
X10414Y5080D02*
D03*
X9195Y5791D02*
D03*
X6833Y6172D02*
D03*
X8560Y6947D02*
D03*
X8687Y7100D02*
D03*
X8534Y6433D02*
D03*
Y6172D02*
D03*
X8661Y6306D02*
D03*
X8534Y6680D02*
D03*
X8661Y6814D02*
D03*
X9093Y7366D02*
D03*
X6706Y5410D02*
D03*
X7087Y5207D02*
D03*
X8001Y3505D02*
D03*
X8128Y3658D02*
D03*
X8255Y3785D02*
D03*
X8128Y3912D02*
D03*
Y4166D02*
D03*
X8255Y4039D02*
D03*
Y4293D02*
D03*
X7239Y2235D02*
D03*
X7518D02*
D03*
X7071Y2210D02*
D03*
X7366Y2362D02*
D03*
X8331Y2896D02*
D03*
X8128D02*
D03*
X7925D02*
D03*
X8687Y2362D02*
D03*
X8458D02*
D03*
X8255D02*
D03*
X8153Y2083D02*
D03*
X7899D02*
D03*
X7696D02*
D03*
X8153Y1803D02*
D03*
X7899Y1651D02*
D03*
X7696Y1499D02*
D03*
X9195Y1041D02*
D03*
X9369Y1165D02*
D03*
X9525Y1295D02*
D03*
X10922Y2616D02*
D03*
X10566D02*
D03*
X11633Y4420D02*
D03*
X11582Y3404D02*
D03*
X11430Y3277D02*
D03*
X11582Y2896D02*
D03*
Y3150D02*
D03*
X11430Y3023D02*
D03*
X9982Y2921D02*
D03*
Y3099D02*
D03*
Y3277D02*
D03*
X6020Y2057D02*
D03*
X6147Y1930D02*
D03*
X5766Y2489D02*
D03*
X5486Y2794D02*
D03*
X5436Y3759D02*
D03*
X5588Y3607D02*
D03*
X5486Y3480D02*
D03*
X5410Y3302D02*
D03*
X5486Y3150D02*
D03*
X1803Y6325D02*
D03*
X4343Y4013D02*
D03*
X4394Y3759D02*
D03*
X4089Y3886D02*
D03*
X4115Y3632D02*
D03*
X4293Y2235D02*
D03*
X1892Y4674D02*
D03*
X2730Y4140D02*
D03*
X9804Y1524D02*
D03*
M02*
