G04 Layer_Color=8388736*
%FSLAX42Y42*%
%MOMM*%
G71*
G01*
G75*
%ADD43R,2.80X1.30*%
%ADD44R,0.80X2.20*%
%ADD45R,1.30X2.80*%
%ADD46O,1.70X0.75*%
%ADD47O,0.75X1.70*%
%ADD48R,2.20X0.80*%
%ADD49O,2.10X0.80*%
%ADD50O,0.85X2.70*%
%ADD51O,2.70X0.85*%
%ADD52R,1.75X0.80*%
%ADD53R,3.40X1.20*%
%ADD54R,8.40X6.25*%
%ADD55C,1.70*%
%ADD56R,1.70X1.70*%
%ADD57R,1.70X1.70*%
%ADD58C,2.20*%
%ADD59R,2.20X2.20*%
%ADD60C,1.50*%
%ADD61C,1.89*%
%ADD62R,1.89X1.89*%
%ADD63C,4.96*%
%ADD64R,2.05X2.05*%
%ADD65C,2.05*%
%ADD66C,1.47*%
D43*
X2159Y4183D02*
D03*
Y4453D02*
D03*
X1330Y3688D02*
D03*
Y3958D02*
D03*
X997Y3992D02*
D03*
Y4262D02*
D03*
X1600Y5453D02*
D03*
Y5723D02*
D03*
X4166Y4936D02*
D03*
Y4666D02*
D03*
Y4504D02*
D03*
Y4234D02*
D03*
X4496Y4936D02*
D03*
Y4666D02*
D03*
X5131Y754D02*
D03*
Y1024D02*
D03*
X5563D02*
D03*
Y754D02*
D03*
X1626Y652D02*
D03*
Y922D02*
D03*
D44*
X6908Y7709D02*
D03*
X6781D02*
D03*
X6654D02*
D03*
X6527D02*
D03*
X6400D02*
D03*
X6273D02*
D03*
X6146D02*
D03*
X6019D02*
D03*
X5892D02*
D03*
X5765D02*
D03*
X6908Y6779D02*
D03*
X6781D02*
D03*
X6654D02*
D03*
X6527D02*
D03*
X6400D02*
D03*
X6273D02*
D03*
X6146D02*
D03*
X6019D02*
D03*
X5892D02*
D03*
X5765D02*
D03*
D45*
X9363Y3137D02*
D03*
X9093D02*
D03*
X9314Y7423D02*
D03*
X9584D02*
D03*
X6266Y4115D02*
D03*
X6536D02*
D03*
X4251Y1803D02*
D03*
X4521D02*
D03*
X3777Y1803D02*
D03*
X4047D02*
D03*
Y2159D02*
D03*
X3777D02*
D03*
X3894Y4521D02*
D03*
X3624D02*
D03*
X5072Y2794D02*
D03*
X5342D02*
D03*
X10947Y4813D02*
D03*
X11217D02*
D03*
X9118D02*
D03*
X9388D02*
D03*
X8755Y1753D02*
D03*
X9025D02*
D03*
X1694Y3658D02*
D03*
X1964D02*
D03*
X1694Y3251D02*
D03*
X1964D02*
D03*
X6790Y6477D02*
D03*
X6520D02*
D03*
X6291Y1460D02*
D03*
X6561D02*
D03*
D46*
X5986Y3195D02*
D03*
Y3115D02*
D03*
Y3035D02*
D03*
Y2955D02*
D03*
Y2875D02*
D03*
Y2795D02*
D03*
Y2715D02*
D03*
Y2635D02*
D03*
Y2555D02*
D03*
Y2475D02*
D03*
Y2395D02*
D03*
X7136D02*
D03*
Y2475D02*
D03*
Y2555D02*
D03*
Y2635D02*
D03*
Y2715D02*
D03*
Y2795D02*
D03*
Y2875D02*
D03*
Y2955D02*
D03*
Y3035D02*
D03*
Y3115D02*
D03*
Y3195D02*
D03*
D47*
X6161Y2220D02*
D03*
X6241D02*
D03*
X6321D02*
D03*
X6401D02*
D03*
X6481D02*
D03*
X6561D02*
D03*
X6641D02*
D03*
X6721D02*
D03*
X6801D02*
D03*
X6881D02*
D03*
X6961D02*
D03*
Y3370D02*
D03*
X6881D02*
D03*
X6801D02*
D03*
X6721D02*
D03*
X6641D02*
D03*
X6561D02*
D03*
X6481D02*
D03*
X6401D02*
D03*
X6321D02*
D03*
X6241D02*
D03*
X6161D02*
D03*
D48*
X3886Y3251D02*
D03*
Y3378D02*
D03*
Y3505D02*
D03*
Y3632D02*
D03*
Y3759D02*
D03*
Y3886D02*
D03*
Y4013D02*
D03*
Y4140D02*
D03*
Y4267D02*
D03*
X2946Y3251D02*
D03*
Y3378D02*
D03*
Y3505D02*
D03*
Y3632D02*
D03*
Y3759D02*
D03*
Y3886D02*
D03*
Y4013D02*
D03*
Y4140D02*
D03*
Y4267D02*
D03*
X9388Y3404D02*
D03*
Y3531D02*
D03*
Y3658D02*
D03*
Y3785D02*
D03*
Y3912D02*
D03*
Y4039D02*
D03*
Y4166D02*
D03*
Y4293D02*
D03*
Y4420D02*
D03*
Y4547D02*
D03*
X8458Y3404D02*
D03*
Y3531D02*
D03*
Y3658D02*
D03*
Y3785D02*
D03*
Y3912D02*
D03*
Y4039D02*
D03*
Y4166D02*
D03*
Y4293D02*
D03*
Y4420D02*
D03*
Y4547D02*
D03*
D49*
X11227Y2896D02*
D03*
Y3023D02*
D03*
Y3150D02*
D03*
Y3277D02*
D03*
Y3404D02*
D03*
Y3531D02*
D03*
Y3658D02*
D03*
Y3785D02*
D03*
Y3912D02*
D03*
Y4039D02*
D03*
Y4166D02*
D03*
Y4293D02*
D03*
Y4420D02*
D03*
Y4547D02*
D03*
X10277Y2896D02*
D03*
Y3023D02*
D03*
Y3150D02*
D03*
Y3277D02*
D03*
Y3404D02*
D03*
Y3531D02*
D03*
Y3658D02*
D03*
Y3785D02*
D03*
Y3912D02*
D03*
Y4039D02*
D03*
Y4166D02*
D03*
Y4293D02*
D03*
Y4420D02*
D03*
Y4547D02*
D03*
D50*
X8306Y1448D02*
D03*
X8431D02*
D03*
X8556D02*
D03*
X8681D02*
D03*
X8806D02*
D03*
Y633D02*
D03*
X8681D02*
D03*
X8556D02*
D03*
X8431D02*
D03*
X8306D02*
D03*
X9830Y7100D02*
D03*
X9703D02*
D03*
X9576D02*
D03*
X9449D02*
D03*
X9322D02*
D03*
X9195D02*
D03*
X9068D02*
D03*
Y6020D02*
D03*
X9195D02*
D03*
X9322D02*
D03*
X9449D02*
D03*
X9576D02*
D03*
X9703D02*
D03*
X9830D02*
D03*
D51*
X8963Y1290D02*
D03*
Y1165D02*
D03*
Y1040D02*
D03*
Y915D02*
D03*
Y790D02*
D03*
X8148D02*
D03*
Y915D02*
D03*
Y1040D02*
D03*
Y1165D02*
D03*
Y1290D02*
D03*
X9989Y6179D02*
D03*
Y6306D02*
D03*
Y6433D02*
D03*
Y6560D02*
D03*
Y6687D02*
D03*
Y6814D02*
D03*
Y6941D02*
D03*
X8909D02*
D03*
Y6814D02*
D03*
Y6687D02*
D03*
Y6560D02*
D03*
Y6433D02*
D03*
Y6306D02*
D03*
Y6179D02*
D03*
D52*
X1870Y4128D02*
D03*
Y4254D02*
D03*
Y4381D02*
D03*
Y4508D02*
D03*
X1330Y4128D02*
D03*
Y4254D02*
D03*
Y4381D02*
D03*
Y4508D02*
D03*
D53*
X2113Y1422D02*
D03*
Y1930D02*
D03*
D54*
X1143Y1676D02*
D03*
D55*
X6553Y432D02*
D03*
Y686D02*
D03*
X6807Y432D02*
D03*
Y686D02*
D03*
X7061Y432D02*
D03*
Y686D02*
D03*
X7315Y432D02*
D03*
Y686D02*
D03*
X7569Y432D02*
D03*
X10058Y8153D02*
D03*
X9804D02*
D03*
X9550D02*
D03*
X9296D02*
D03*
X9042D02*
D03*
X8788D02*
D03*
X8534D02*
D03*
X8280D02*
D03*
X8026D02*
D03*
X7772D02*
D03*
X7518D02*
D03*
X635Y5893D02*
D03*
Y6147D02*
D03*
Y4534D02*
D03*
X997Y3721D02*
D03*
X10516Y6807D02*
D03*
Y6553D02*
D03*
Y6299D02*
D03*
Y6045D02*
D03*
X1118Y914D02*
D03*
D56*
X7569Y686D02*
D03*
X7264Y8153D02*
D03*
X743Y3721D02*
D03*
D57*
X635Y5639D02*
D03*
Y4280D02*
D03*
X10516Y5791D02*
D03*
X1118Y660D02*
D03*
D58*
X4866Y5436D02*
D03*
D59*
X3820D02*
D03*
D60*
X2337Y3299D02*
D03*
Y3609D02*
D03*
X5692Y1473D02*
D03*
X5382D02*
D03*
D61*
X4617Y6980D02*
D03*
X4479Y7264D02*
D03*
X4341Y6980D02*
D03*
X4203Y7264D02*
D03*
X4065Y6980D02*
D03*
X3927Y7264D02*
D03*
X3789Y6980D02*
D03*
X3651Y7264D02*
D03*
X3513Y6980D02*
D03*
X3375Y7264D02*
D03*
X3237Y6980D02*
D03*
X3099Y7264D02*
D03*
X2961Y6980D02*
D03*
X2823Y7264D02*
D03*
X2685Y6980D02*
D03*
X2547Y7264D02*
D03*
X2409Y6980D02*
D03*
X2270Y7264D02*
D03*
X2132Y6980D02*
D03*
X1994Y7264D02*
D03*
X1856Y6980D02*
D03*
X1718Y7264D02*
D03*
X1580Y6980D02*
D03*
X1442Y7264D02*
D03*
D62*
X1304Y6980D02*
D03*
D63*
X608Y7122D02*
D03*
X5313D02*
D03*
D64*
X3277Y2261D02*
D03*
D65*
Y1753D02*
D03*
D66*
X2692Y965D02*
D03*
X1168Y2642D02*
D03*
X330Y1854D02*
D03*
X10770Y1499D02*
D03*
X7341Y7341D02*
D03*
X4750Y2184D02*
D03*
X2997Y5461D02*
D03*
X6071Y5766D02*
D03*
X5817Y5588D02*
D03*
X5131Y4293D02*
D03*
X4343Y1270D02*
D03*
X7518Y1016D02*
D03*
X7061Y889D02*
D03*
X7734Y1181D02*
D03*
X6909Y1321D02*
D03*
X5359Y4039D02*
D03*
X5461Y5994D02*
D03*
X5309Y6147D02*
D03*
X5156Y6299D02*
D03*
X1930Y6147D02*
D03*
X2032Y5969D02*
D03*
X8534Y1803D02*
D03*
X1880Y2540D02*
D03*
X2413Y4267D02*
D03*
X5486Y2337D02*
D03*
X8128Y4420D02*
D03*
X11227Y5105D02*
D03*
X10414Y5080D02*
D03*
X9195Y5791D02*
D03*
X6833Y6172D02*
D03*
X8560Y6947D02*
D03*
X8687Y7100D02*
D03*
X8534Y6433D02*
D03*
Y6172D02*
D03*
X8661Y6306D02*
D03*
X8534Y6680D02*
D03*
X8661Y6814D02*
D03*
X9093Y7366D02*
D03*
X6706Y5410D02*
D03*
X7087Y5207D02*
D03*
X8001Y3505D02*
D03*
X8128Y3658D02*
D03*
X8255Y3785D02*
D03*
X8128Y3912D02*
D03*
Y4166D02*
D03*
X8255Y4039D02*
D03*
Y4293D02*
D03*
X7239Y2235D02*
D03*
X7518D02*
D03*
X7071Y2210D02*
D03*
X7366Y2362D02*
D03*
X8331Y2896D02*
D03*
X8128D02*
D03*
X7925D02*
D03*
X8687Y2362D02*
D03*
X8458D02*
D03*
X8255D02*
D03*
X8153Y2083D02*
D03*
X7899D02*
D03*
X7696D02*
D03*
X8153Y1803D02*
D03*
X7899Y1651D02*
D03*
X7696Y1499D02*
D03*
X9195Y1041D02*
D03*
X9369Y1165D02*
D03*
X9525Y1295D02*
D03*
X10922Y2616D02*
D03*
X10566D02*
D03*
X11633Y4420D02*
D03*
X11582Y3404D02*
D03*
X11430Y3277D02*
D03*
X11582Y2896D02*
D03*
Y3150D02*
D03*
X11430Y3023D02*
D03*
X9982Y2921D02*
D03*
Y3099D02*
D03*
Y3277D02*
D03*
X6020Y2057D02*
D03*
X6147Y1930D02*
D03*
X5766Y2489D02*
D03*
X5486Y2794D02*
D03*
X5436Y3759D02*
D03*
X5588Y3607D02*
D03*
X5486Y3480D02*
D03*
X5410Y3302D02*
D03*
X5486Y3150D02*
D03*
X1803Y6325D02*
D03*
X4343Y4013D02*
D03*
X4394Y3759D02*
D03*
X4089Y3886D02*
D03*
X4115Y3632D02*
D03*
X4293Y2235D02*
D03*
X1892Y4674D02*
D03*
X2730Y4140D02*
D03*
X9804Y1524D02*
D03*
M02*
