G04 Layer_Color=8421504*
%FSLAX42Y42*%
%MOMM*%
G71*
G01*
G75*
%ADD10R,2.60X1.10*%
%ADD11R,0.60X2.00*%
%ADD12R,1.10X2.60*%
%ADD13O,1.50X0.55*%
%ADD14O,0.55X1.50*%
%ADD15R,2.00X0.60*%
%ADD16O,1.90X0.60*%
%ADD17O,0.65X2.50*%
%ADD18O,2.50X0.65*%
%ADD19R,1.55X0.60*%
%ADD20R,3.20X1.00*%
%ADD21R,8.20X6.05*%
D10*
X2159Y4183D02*
D03*
Y4453D02*
D03*
X1330Y3688D02*
D03*
Y3958D02*
D03*
X997Y3992D02*
D03*
Y4262D02*
D03*
X1600Y5453D02*
D03*
Y5723D02*
D03*
X4166Y4936D02*
D03*
Y4666D02*
D03*
Y4504D02*
D03*
Y4234D02*
D03*
X4496Y4936D02*
D03*
Y4666D02*
D03*
X5131Y754D02*
D03*
Y1024D02*
D03*
X5563D02*
D03*
Y754D02*
D03*
X1626Y652D02*
D03*
Y922D02*
D03*
D11*
X6908Y7709D02*
D03*
X6781D02*
D03*
X6654D02*
D03*
X6527D02*
D03*
X6400D02*
D03*
X6273D02*
D03*
X6146D02*
D03*
X6019D02*
D03*
X5892D02*
D03*
X5765D02*
D03*
X6908Y6779D02*
D03*
X6781D02*
D03*
X6654D02*
D03*
X6527D02*
D03*
X6400D02*
D03*
X6273D02*
D03*
X6146D02*
D03*
X6019D02*
D03*
X5892D02*
D03*
X5765D02*
D03*
D12*
X9363Y3137D02*
D03*
X9093D02*
D03*
X9314Y7423D02*
D03*
X9584D02*
D03*
X6266Y4115D02*
D03*
X6536D02*
D03*
X4251Y1803D02*
D03*
X4521D02*
D03*
X3777Y1803D02*
D03*
X4047D02*
D03*
Y2159D02*
D03*
X3777D02*
D03*
X3894Y4521D02*
D03*
X3624D02*
D03*
X5072Y2794D02*
D03*
X5342D02*
D03*
X10947Y4813D02*
D03*
X11217D02*
D03*
X9118D02*
D03*
X9388D02*
D03*
X8755Y1753D02*
D03*
X9025D02*
D03*
X1694Y3658D02*
D03*
X1964D02*
D03*
X1694Y3251D02*
D03*
X1964D02*
D03*
X6790Y6477D02*
D03*
X6520D02*
D03*
X6291Y1460D02*
D03*
X6561D02*
D03*
D13*
X5986Y3195D02*
D03*
Y3115D02*
D03*
Y3035D02*
D03*
Y2955D02*
D03*
Y2875D02*
D03*
Y2795D02*
D03*
Y2715D02*
D03*
Y2635D02*
D03*
Y2555D02*
D03*
Y2475D02*
D03*
Y2395D02*
D03*
X7136D02*
D03*
Y2475D02*
D03*
Y2555D02*
D03*
Y2635D02*
D03*
Y2715D02*
D03*
Y2795D02*
D03*
Y2875D02*
D03*
Y2955D02*
D03*
Y3035D02*
D03*
Y3115D02*
D03*
Y3195D02*
D03*
D14*
X6161Y2220D02*
D03*
X6241D02*
D03*
X6321D02*
D03*
X6401D02*
D03*
X6481D02*
D03*
X6561D02*
D03*
X6641D02*
D03*
X6721D02*
D03*
X6801D02*
D03*
X6881D02*
D03*
X6961D02*
D03*
Y3370D02*
D03*
X6881D02*
D03*
X6801D02*
D03*
X6721D02*
D03*
X6641D02*
D03*
X6561D02*
D03*
X6481D02*
D03*
X6401D02*
D03*
X6321D02*
D03*
X6241D02*
D03*
X6161D02*
D03*
D15*
X3886Y3251D02*
D03*
Y3378D02*
D03*
Y3505D02*
D03*
Y3632D02*
D03*
Y3759D02*
D03*
Y3886D02*
D03*
Y4013D02*
D03*
Y4140D02*
D03*
Y4267D02*
D03*
X2946Y3251D02*
D03*
Y3378D02*
D03*
Y3505D02*
D03*
Y3632D02*
D03*
Y3759D02*
D03*
Y3886D02*
D03*
Y4013D02*
D03*
Y4140D02*
D03*
Y4267D02*
D03*
X9388Y3404D02*
D03*
Y3531D02*
D03*
Y3658D02*
D03*
Y3785D02*
D03*
Y3912D02*
D03*
Y4039D02*
D03*
Y4166D02*
D03*
Y4293D02*
D03*
Y4420D02*
D03*
Y4547D02*
D03*
X8458Y3404D02*
D03*
Y3531D02*
D03*
Y3658D02*
D03*
Y3785D02*
D03*
Y3912D02*
D03*
Y4039D02*
D03*
Y4166D02*
D03*
Y4293D02*
D03*
Y4420D02*
D03*
Y4547D02*
D03*
D16*
X11227Y2896D02*
D03*
Y3023D02*
D03*
Y3150D02*
D03*
Y3277D02*
D03*
Y3404D02*
D03*
Y3531D02*
D03*
Y3658D02*
D03*
Y3785D02*
D03*
Y3912D02*
D03*
Y4039D02*
D03*
Y4166D02*
D03*
Y4293D02*
D03*
Y4420D02*
D03*
Y4547D02*
D03*
X10277Y2896D02*
D03*
Y3023D02*
D03*
Y3150D02*
D03*
Y3277D02*
D03*
Y3404D02*
D03*
Y3531D02*
D03*
Y3658D02*
D03*
Y3785D02*
D03*
Y3912D02*
D03*
Y4039D02*
D03*
Y4166D02*
D03*
Y4293D02*
D03*
Y4420D02*
D03*
Y4547D02*
D03*
D17*
X8306Y1448D02*
D03*
X8431D02*
D03*
X8556D02*
D03*
X8681D02*
D03*
X8806D02*
D03*
Y633D02*
D03*
X8681D02*
D03*
X8556D02*
D03*
X8431D02*
D03*
X8306D02*
D03*
X9830Y7100D02*
D03*
X9703D02*
D03*
X9576D02*
D03*
X9449D02*
D03*
X9322D02*
D03*
X9195D02*
D03*
X9068D02*
D03*
Y6020D02*
D03*
X9195D02*
D03*
X9322D02*
D03*
X9449D02*
D03*
X9576D02*
D03*
X9703D02*
D03*
X9830D02*
D03*
D18*
X8963Y1290D02*
D03*
Y1165D02*
D03*
Y1040D02*
D03*
Y915D02*
D03*
Y790D02*
D03*
X8148D02*
D03*
Y915D02*
D03*
Y1040D02*
D03*
Y1165D02*
D03*
Y1290D02*
D03*
X9989Y6179D02*
D03*
Y6306D02*
D03*
Y6433D02*
D03*
Y6560D02*
D03*
Y6687D02*
D03*
Y6814D02*
D03*
Y6941D02*
D03*
X8909D02*
D03*
Y6814D02*
D03*
Y6687D02*
D03*
Y6560D02*
D03*
Y6433D02*
D03*
Y6306D02*
D03*
Y6179D02*
D03*
D19*
X1870Y4128D02*
D03*
Y4254D02*
D03*
Y4381D02*
D03*
Y4508D02*
D03*
X1330Y4128D02*
D03*
Y4254D02*
D03*
Y4381D02*
D03*
Y4508D02*
D03*
D20*
X2113Y1422D02*
D03*
Y1930D02*
D03*
D21*
X1143Y1676D02*
D03*
M02*
