G04 Layer_Physical_Order=1*
G04 Layer_Color=255*
%FSLAX42Y42*%
%MOMM*%
G71*
G01*
G75*
%ADD10R,2.60X1.10*%
%ADD11R,0.60X2.00*%
%ADD12R,1.10X2.60*%
%ADD13O,1.50X0.55*%
%ADD14O,0.55X1.50*%
%ADD15R,2.00X0.60*%
%ADD16O,1.90X0.60*%
%ADD17O,0.65X2.50*%
%ADD18O,2.50X0.65*%
%ADD19R,1.55X0.60*%
%ADD20R,3.20X1.00*%
%ADD21R,8.20X6.05*%
%ADD22C,0.51*%
%ADD23C,1.27*%
%ADD24C,0.25*%
%ADD25C,1.50*%
%ADD26R,1.50X1.50*%
%ADD27R,1.50X1.50*%
%ADD28C,2.00*%
%ADD29R,2.00X2.00*%
%ADD30C,1.30*%
%ADD31C,1.69*%
%ADD32R,1.69X1.69*%
%ADD33C,4.76*%
%ADD34R,1.85X1.85*%
%ADD35C,1.85*%
%ADD36C,1.27*%
G36*
X12192Y127D02*
X127D01*
Y8763D01*
X12192D01*
Y127D01*
D02*
G37*
%LPC*%
G36*
X8446Y3391D02*
X8333D01*
Y3348D01*
X8446D01*
Y3391D01*
D02*
G37*
G36*
X8584D02*
X8471D01*
Y3348D01*
X8584D01*
Y3391D01*
D02*
G37*
G36*
X3072Y3434D02*
X2821D01*
Y3430D01*
X2692D01*
X2673Y3426D01*
X2656Y3415D01*
X2592Y3351D01*
X2411D01*
X2401Y3364D01*
X2382Y3378D01*
X2360Y3387D01*
X2337Y3391D01*
X2313Y3387D01*
X2291Y3378D01*
X2272Y3364D01*
X2263Y3351D01*
X2044D01*
Y3407D01*
X1883D01*
Y3096D01*
X2044D01*
Y3248D01*
X2263D01*
X2272Y3235D01*
X2291Y3220D01*
X2313Y3211D01*
X2337Y3208D01*
X2360Y3211D01*
X2382Y3220D01*
X2401Y3235D01*
X2411Y3248D01*
X2614D01*
X2633Y3252D01*
X2650Y3263D01*
X2714Y3326D01*
X2821D01*
Y3323D01*
X3072D01*
Y3434D01*
D02*
G37*
G36*
X2933Y3307D02*
X2821D01*
Y3264D01*
X2933D01*
Y3307D01*
D02*
G37*
G36*
X3072D02*
X2959D01*
Y3264D01*
X3072D01*
Y3307D01*
D02*
G37*
G36*
X4012Y3434D02*
X3761D01*
Y3323D01*
X4012D01*
Y3434D01*
D02*
G37*
G36*
X11292Y3587D02*
X11162D01*
X11140Y3583D01*
X11140Y3582D01*
X11024D01*
X11004Y3578D01*
X10987Y3567D01*
X10885Y3466D01*
X10874Y3449D01*
X10870Y3429D01*
Y2689D01*
X10859Y2680D01*
X10844Y2661D01*
X10835Y2639D01*
X10832Y2616D01*
X10835Y2593D01*
X10844Y2571D01*
X10859Y2553D01*
X10877Y2539D01*
X10899Y2530D01*
X10922Y2527D01*
X10945Y2530D01*
X10967Y2539D01*
X10985Y2553D01*
X11000Y2571D01*
X11009Y2593D01*
X11012Y2616D01*
X11009Y2639D01*
X11000Y2661D01*
X10985Y2680D01*
X10974Y2689D01*
Y3408D01*
X11045Y3479D01*
X11140D01*
X11140Y3478D01*
X11162Y3474D01*
X11292D01*
X11313Y3478D01*
X11332Y3491D01*
X11344Y3509D01*
X11348Y3531D01*
X11344Y3552D01*
X11332Y3571D01*
X11313Y3583D01*
X11292Y3587D01*
D02*
G37*
G36*
X1681Y3645D02*
X1613D01*
Y3502D01*
X1681D01*
Y3645D01*
D02*
G37*
G36*
X1774D02*
X1707D01*
Y3502D01*
X1774D01*
Y3645D01*
D02*
G37*
G36*
X8446Y3459D02*
X8333D01*
Y3416D01*
X8446D01*
Y3459D01*
D02*
G37*
G36*
X8584D02*
X8471D01*
Y3416D01*
X8584D01*
Y3459D01*
D02*
G37*
G36*
X2044Y3813D02*
X1883D01*
Y3502D01*
X2044D01*
Y3558D01*
X2263D01*
X2272Y3545D01*
X2291Y3530D01*
X2313Y3521D01*
X2337Y3518D01*
X2360Y3521D01*
X2382Y3530D01*
X2401Y3545D01*
X2411Y3558D01*
X2592D01*
X2681Y3469D01*
X2698Y3457D01*
X2718Y3453D01*
X2821D01*
Y3450D01*
X3072D01*
Y3561D01*
X2821D01*
Y3557D01*
X2739D01*
X2650Y3646D01*
X2633Y3657D01*
X2614Y3661D01*
X2411D01*
X2401Y3674D01*
X2382Y3688D01*
X2360Y3697D01*
X2337Y3701D01*
X2313Y3697D01*
X2291Y3688D01*
X2272Y3674D01*
X2263Y3661D01*
X2044D01*
Y3813D01*
D02*
G37*
G36*
X1774Y3407D02*
X1707D01*
Y3264D01*
X1774D01*
Y3407D01*
D02*
G37*
G36*
X10396Y2883D02*
X10289D01*
Y2839D01*
X10342D01*
X10363Y2843D01*
X10382Y2856D01*
X10394Y2874D01*
X10396Y2883D01*
D02*
G37*
G36*
X10264Y2952D02*
X10212D01*
X10190Y2948D01*
X10172Y2936D01*
X10160Y2917D01*
X10158Y2908D01*
X10264D01*
Y2952D01*
D02*
G37*
G36*
X10342D02*
X10289D01*
Y2908D01*
X10396D01*
X10394Y2917D01*
X10382Y2936D01*
X10363Y2948D01*
X10342Y2952D01*
D02*
G37*
G36*
X5059Y2949D02*
X4992D01*
Y2807D01*
X5059D01*
Y2949D01*
D02*
G37*
G36*
X5152D02*
X5085D01*
Y2807D01*
X5152D01*
Y2949D01*
D02*
G37*
G36*
X10264Y2883D02*
X10158D01*
X10160Y2874D01*
X10172Y2856D01*
X10190Y2843D01*
X10212Y2839D01*
X10264D01*
Y2883D01*
D02*
G37*
G36*
X3072Y3238D02*
X2959D01*
Y3196D01*
X3072D01*
Y3238D01*
D02*
G37*
G36*
X4012Y3307D02*
X3761D01*
Y3196D01*
X4012D01*
Y3307D01*
D02*
G37*
G36*
X1681Y3407D02*
X1613D01*
Y3264D01*
X1681D01*
Y3407D01*
D02*
G37*
G36*
Y3238D02*
X1613D01*
Y3096D01*
X1681D01*
Y3238D01*
D02*
G37*
G36*
X1774D02*
X1707D01*
Y3096D01*
X1774D01*
Y3238D01*
D02*
G37*
G36*
X2933Y3238D02*
X2821D01*
Y3196D01*
X2933D01*
Y3238D01*
D02*
G37*
G36*
X10342Y3841D02*
X10212D01*
X10190Y3837D01*
X10190Y3836D01*
X9514D01*
Y3840D01*
X9263D01*
Y3729D01*
X9514D01*
Y3733D01*
X10190D01*
X10190Y3732D01*
X10212Y3728D01*
X10342D01*
X10363Y3732D01*
X10382Y3745D01*
X10394Y3763D01*
X10398Y3785D01*
X10394Y3806D01*
X10382Y3825D01*
X10363Y3837D01*
X10342Y3841D01*
D02*
G37*
G36*
X1433Y4183D02*
X1227D01*
Y4072D01*
X1278D01*
Y4038D01*
X1175D01*
Y3877D01*
X1486D01*
Y4038D01*
X1382D01*
Y4072D01*
X1433D01*
Y4183D01*
D02*
G37*
G36*
X3072Y4069D02*
X2821D01*
Y3958D01*
X3072D01*
Y4069D01*
D02*
G37*
G36*
Y3815D02*
X2821D01*
Y3704D01*
X3072D01*
Y3815D01*
D02*
G37*
G36*
X10342Y3714D02*
X10212D01*
X10190Y3710D01*
X10190Y3709D01*
X9514D01*
Y3713D01*
X9263D01*
Y3602D01*
X9514D01*
Y3606D01*
X10190D01*
X10190Y3605D01*
X10212Y3601D01*
X10342D01*
X10363Y3605D01*
X10382Y3618D01*
X10394Y3636D01*
X10398Y3658D01*
X10394Y3679D01*
X10382Y3698D01*
X10363Y3710D01*
X10342Y3714D01*
D02*
G37*
G36*
X3072Y3942D02*
X2821D01*
Y3831D01*
X3072D01*
Y3942D01*
D02*
G37*
G36*
X2146Y4170D02*
X2004D01*
Y4103D01*
X2146D01*
Y4170D01*
D02*
G37*
G36*
X2314D02*
X2172D01*
Y4103D01*
X2314D01*
Y4170D01*
D02*
G37*
G36*
X6253Y4270D02*
X6185D01*
Y4128D01*
X6253D01*
Y4270D01*
D02*
G37*
G36*
X6346Y4102D02*
X6278D01*
Y3959D01*
X6346D01*
Y4102D01*
D02*
G37*
G36*
X10342Y3968D02*
X10212D01*
X10190Y3964D01*
X10190Y3963D01*
X9514D01*
Y3967D01*
X9263D01*
Y3856D01*
X9514D01*
Y3860D01*
X10190D01*
X10190Y3859D01*
X10212Y3855D01*
X10342D01*
X10363Y3859D01*
X10382Y3872D01*
X10394Y3890D01*
X10398Y3912D01*
X10394Y3933D01*
X10382Y3952D01*
X10363Y3964D01*
X10342Y3968D01*
D02*
G37*
G36*
Y4095D02*
X10212D01*
X10190Y4091D01*
X10190Y4090D01*
X9514D01*
Y4094D01*
X9263D01*
Y3983D01*
X9514D01*
Y3987D01*
X10190D01*
X10190Y3986D01*
X10212Y3982D01*
X10342D01*
X10363Y3986D01*
X10382Y3999D01*
X10394Y4017D01*
X10398Y4039D01*
X10394Y4060D01*
X10382Y4079D01*
X10363Y4091D01*
X10342Y4095D01*
D02*
G37*
G36*
X1486Y3768D02*
X1343D01*
Y3700D01*
X1486D01*
Y3768D01*
D02*
G37*
G36*
X11346Y3645D02*
X11239D01*
Y3601D01*
X11292D01*
X11313Y3605D01*
X11332Y3618D01*
X11344Y3636D01*
X11346Y3645D01*
D02*
G37*
G36*
X1318Y3675D02*
X1175D01*
Y3607D01*
X1318D01*
Y3675D01*
D02*
G37*
G36*
X1486D02*
X1343D01*
Y3607D01*
X1486D01*
Y3675D01*
D02*
G37*
G36*
X3072Y3688D02*
X2821D01*
Y3577D01*
X3072D01*
Y3688D01*
D02*
G37*
G36*
X10342Y3587D02*
X10212D01*
X10190Y3583D01*
X10190Y3582D01*
X9514D01*
Y3586D01*
X9263D01*
Y3475D01*
X9514D01*
Y3479D01*
X10190D01*
X10190Y3478D01*
X10212Y3474D01*
X10342D01*
X10363Y3478D01*
X10382Y3491D01*
X10394Y3509D01*
X10398Y3531D01*
X10394Y3552D01*
X10382Y3571D01*
X10363Y3583D01*
X10342Y3587D01*
D02*
G37*
G36*
X11214Y3645D02*
X11108D01*
X11110Y3636D01*
X11122Y3618D01*
X11140Y3605D01*
X11162Y3601D01*
X11214D01*
Y3645D01*
D02*
G37*
G36*
X1774Y3813D02*
X1707D01*
Y3670D01*
X1774D01*
Y3813D01*
D02*
G37*
G36*
X11292Y3714D02*
X11239D01*
Y3670D01*
X11346D01*
X11344Y3679D01*
X11332Y3698D01*
X11313Y3710D01*
X11292Y3714D01*
D02*
G37*
G36*
X1318Y3768D02*
X1175D01*
Y3700D01*
X1318D01*
Y3768D01*
D02*
G37*
G36*
X1152Y4073D02*
X841D01*
Y3912D01*
X945D01*
Y3808D01*
X925Y3793D01*
X909Y3772D01*
X899Y3747D01*
X895Y3721D01*
X899Y3695D01*
X909Y3670D01*
X925Y3649D01*
X946Y3633D01*
X970Y3623D01*
X997Y3620D01*
X1023Y3623D01*
X1047Y3633D01*
X1068Y3649D01*
X1084Y3670D01*
X1094Y3695D01*
X1098Y3721D01*
X1094Y3747D01*
X1084Y3772D01*
X1068Y3793D01*
X1048Y3808D01*
Y3912D01*
X1152D01*
Y4073D01*
D02*
G37*
G36*
X11214Y3714D02*
X11162D01*
X11140Y3710D01*
X11122Y3698D01*
X11110Y3679D01*
X11108Y3670D01*
X11214D01*
Y3714D01*
D02*
G37*
G36*
X1681Y3813D02*
X1613D01*
Y3670D01*
X1681D01*
Y3813D01*
D02*
G37*
G36*
X6401Y2321D02*
X6381Y2317D01*
X6363Y2306D01*
X6359D01*
X6342Y2317D01*
X6321Y2321D01*
X6301Y2317D01*
X6283Y2306D01*
X6279D01*
X6262Y2317D01*
X6241Y2321D01*
X6221Y2317D01*
X6203Y2306D01*
X6199D01*
X6182Y2317D01*
X6161Y2321D01*
X6141Y2317D01*
X6123Y2306D01*
X6111Y2288D01*
X6107Y2267D01*
Y2218D01*
X6034Y2145D01*
X6020Y2147D01*
X5997Y2144D01*
X5975Y2135D01*
X5956Y2121D01*
X5942Y2102D01*
X5933Y2081D01*
X5930Y2057D01*
X5933Y2034D01*
X5942Y2013D01*
X5956Y1994D01*
X5975Y1980D01*
X5997Y1971D01*
X6020Y1968D01*
X6043Y1971D01*
X6056Y1976D01*
X6065Y1966D01*
X6060Y1954D01*
X6057Y1930D01*
X6060Y1907D01*
X6069Y1886D01*
X6083Y1867D01*
X6102Y1853D01*
X6124Y1844D01*
X6144Y1841D01*
X6151Y1830D01*
X6125Y1804D01*
X5662D01*
X5642Y1800D01*
X5625Y1789D01*
X5398Y1562D01*
X5382Y1564D01*
X5359Y1561D01*
X5337Y1552D01*
X5318Y1538D01*
X5303Y1519D01*
X5294Y1497D01*
X5291Y1473D01*
X5293Y1457D01*
X5094Y1258D01*
X5083Y1242D01*
X5079Y1222D01*
Y1104D01*
X4975D01*
Y944D01*
X5286D01*
Y1104D01*
X5183D01*
Y1200D01*
X5366Y1384D01*
X5382Y1382D01*
X5406Y1385D01*
X5428Y1394D01*
X5447Y1409D01*
X5461Y1428D01*
X5470Y1450D01*
X5473Y1473D01*
X5471Y1489D01*
X5683Y1701D01*
X5830D01*
X5834Y1688D01*
X5833Y1688D01*
X5833Y1688D01*
X5708Y1562D01*
X5692Y1564D01*
X5669Y1561D01*
X5647Y1552D01*
X5628Y1538D01*
X5613Y1519D01*
X5604Y1497D01*
X5601Y1473D01*
X5603Y1457D01*
X5526Y1380D01*
X5515Y1363D01*
X5511Y1344D01*
Y1151D01*
X5511Y1151D01*
Y1104D01*
X5407D01*
Y944D01*
X5718D01*
Y1104D01*
X5614D01*
Y1151D01*
X5614Y1151D01*
Y1322D01*
X5676Y1384D01*
X5692Y1382D01*
X5716Y1385D01*
X5738Y1394D01*
X5757Y1409D01*
X5771Y1428D01*
X5780Y1450D01*
X5783Y1473D01*
X5781Y1489D01*
X5891Y1599D01*
X6172D01*
X6192Y1603D01*
X6198Y1607D01*
X6211Y1600D01*
Y1473D01*
X6278D01*
Y1616D01*
X6228D01*
X6223Y1629D01*
X6438Y1843D01*
X6449Y1860D01*
X6453Y1880D01*
Y2114D01*
X6466Y2122D01*
X6468Y2121D01*
Y2220D01*
Y2319D01*
X6461Y2317D01*
X6443Y2306D01*
X6439D01*
X6422Y2317D01*
X6401Y2321D01*
D02*
G37*
G36*
X5718Y741D02*
X5575D01*
Y674D01*
X5718D01*
Y741D01*
D02*
G37*
G36*
X2113Y1512D02*
X2090Y1509D01*
X2068Y1500D01*
X2065Y1498D01*
X1928D01*
Y1347D01*
X2023D01*
Y804D01*
X1961Y742D01*
X1218D01*
Y761D01*
X1017D01*
Y560D01*
X1218D01*
Y563D01*
X1999D01*
X2022Y566D01*
X2043Y575D01*
X2062Y589D01*
X2176Y703D01*
X2191Y722D01*
X2200Y744D01*
X2203Y767D01*
Y1347D01*
X2298D01*
Y1498D01*
X2161D01*
X2158Y1500D01*
X2136Y1509D01*
X2113Y1512D01*
D02*
G37*
G36*
X5550Y834D02*
X5407D01*
Y767D01*
X5550D01*
Y834D01*
D02*
G37*
G36*
X5118Y741D02*
X4975D01*
Y674D01*
X5118D01*
Y741D01*
D02*
G37*
G36*
X5286D02*
X5144D01*
Y674D01*
X5286D01*
Y741D01*
D02*
G37*
G36*
X5550D02*
X5407D01*
Y674D01*
X5550D01*
Y741D01*
D02*
G37*
G36*
X1105Y902D02*
X1018D01*
X1020Y888D01*
X1030Y864D01*
X1046Y843D01*
X1067Y827D01*
X1091Y817D01*
X1105Y815D01*
Y902D01*
D02*
G37*
G36*
X1217D02*
X1130D01*
Y815D01*
X1144Y817D01*
X1168Y827D01*
X1189Y843D01*
X1205Y864D01*
X1215Y888D01*
X1217Y902D01*
D02*
G37*
G36*
X1613Y910D02*
X1470D01*
Y842D01*
X1613D01*
Y910D01*
D02*
G37*
G36*
X5118Y834D02*
X4975D01*
Y767D01*
X5118D01*
Y834D01*
D02*
G37*
G36*
X5286D02*
X5144D01*
Y767D01*
X5286D01*
Y834D01*
D02*
G37*
G36*
X5718D02*
X5575D01*
Y767D01*
X5718D01*
Y834D01*
D02*
G37*
G36*
X7315Y787D02*
X7289Y784D01*
X7265Y773D01*
X7244Y757D01*
X7228Y736D01*
X7217Y712D01*
X7214Y686D01*
X7217Y660D01*
X7228Y635D01*
X7244Y614D01*
X7265Y598D01*
X7289Y588D01*
X7315Y585D01*
X7341Y588D01*
X7366Y598D01*
X7387Y614D01*
X7403Y635D01*
X7413Y660D01*
X7416Y686D01*
X7413Y712D01*
X7403Y736D01*
X7387Y757D01*
X7366Y773D01*
X7341Y784D01*
X7315Y787D01*
D02*
G37*
G36*
X6540Y419D02*
X6454D01*
X6455Y406D01*
X6466Y381D01*
X6482Y360D01*
X6503Y344D01*
X6527Y334D01*
X6540Y332D01*
Y419D01*
D02*
G37*
G36*
X7557D02*
X7470D01*
X7471Y406D01*
X7482Y381D01*
X7498Y360D01*
X7519Y344D01*
X7543Y334D01*
X7557Y332D01*
Y419D01*
D02*
G37*
G36*
X6653D02*
X6566D01*
Y332D01*
X6579Y334D01*
X6604Y344D01*
X6625Y360D01*
X6641Y381D01*
X6651Y406D01*
X6653Y419D01*
D02*
G37*
G36*
X6807Y533D02*
X6781Y530D01*
X6757Y519D01*
X6736Y503D01*
X6720Y482D01*
X6709Y458D01*
X6706Y432D01*
X6709Y406D01*
X6720Y381D01*
X6736Y360D01*
X6757Y344D01*
X6781Y334D01*
X6807Y331D01*
X6833Y334D01*
X6858Y344D01*
X6879Y360D01*
X6895Y381D01*
X6905Y406D01*
X6908Y432D01*
X6905Y458D01*
X6895Y482D01*
X6879Y503D01*
X6858Y519D01*
X6833Y530D01*
X6807Y533D01*
D02*
G37*
G36*
X7061D02*
X7035Y530D01*
X7011Y519D01*
X6990Y503D01*
X6974Y482D01*
X6963Y458D01*
X6960Y432D01*
X6963Y406D01*
X6974Y381D01*
X6990Y360D01*
X7011Y344D01*
X7035Y334D01*
X7061Y331D01*
X7087Y334D01*
X7112Y344D01*
X7133Y360D01*
X7149Y381D01*
X7159Y406D01*
X7162Y432D01*
X7159Y458D01*
X7149Y482D01*
X7133Y503D01*
X7112Y519D01*
X7087Y530D01*
X7061Y533D01*
D02*
G37*
G36*
X7315D02*
X7289Y530D01*
X7265Y519D01*
X7244Y503D01*
X7228Y482D01*
X7217Y458D01*
X7214Y432D01*
X7217Y406D01*
X7228Y381D01*
X7244Y360D01*
X7265Y344D01*
X7289Y334D01*
X7315Y331D01*
X7341Y334D01*
X7366Y344D01*
X7387Y360D01*
X7403Y381D01*
X7413Y406D01*
X7416Y432D01*
X7413Y458D01*
X7403Y482D01*
X7387Y503D01*
X7366Y519D01*
X7341Y530D01*
X7315Y533D01*
D02*
G37*
G36*
X7582Y531D02*
Y445D01*
X7669D01*
X7667Y458D01*
X7657Y482D01*
X7641Y503D01*
X7620Y519D01*
X7595Y530D01*
X7582Y531D01*
D02*
G37*
G36*
X6566D02*
Y445D01*
X6653D01*
X6651Y458D01*
X6641Y482D01*
X6625Y503D01*
X6604Y519D01*
X6579Y530D01*
X6566Y531D01*
D02*
G37*
G36*
X6807Y787D02*
X6781Y784D01*
X6757Y773D01*
X6736Y757D01*
X6720Y736D01*
X6709Y712D01*
X6706Y686D01*
X6709Y660D01*
X6720Y635D01*
X6736Y614D01*
X6757Y598D01*
X6781Y588D01*
X6807Y585D01*
X6833Y588D01*
X6858Y598D01*
X6879Y614D01*
X6895Y635D01*
X6905Y660D01*
X6908Y686D01*
X6905Y712D01*
X6895Y736D01*
X6879Y757D01*
X6858Y773D01*
X6833Y784D01*
X6807Y787D01*
D02*
G37*
G36*
X7669Y419D02*
X7582D01*
Y332D01*
X7595Y334D01*
X7620Y344D01*
X7641Y360D01*
X7657Y381D01*
X7667Y406D01*
X7669Y419D01*
D02*
G37*
G36*
X7557Y531D02*
X7543Y530D01*
X7519Y519D01*
X7498Y503D01*
X7482Y482D01*
X7471Y458D01*
X7470Y445D01*
X7557D01*
Y531D01*
D02*
G37*
G36*
X6540D02*
X6527Y530D01*
X6503Y519D01*
X6482Y503D01*
X6466Y482D01*
X6455Y458D01*
X6454Y445D01*
X6540D01*
Y531D01*
D02*
G37*
G36*
X3764Y2146D02*
X3696D01*
Y2004D01*
X3764D01*
Y2146D01*
D02*
G37*
G36*
X3857D02*
X3789D01*
Y2004D01*
X3857D01*
Y2146D01*
D02*
G37*
G36*
X3264Y2248D02*
X3159D01*
Y2143D01*
X3264D01*
Y2248D01*
D02*
G37*
G36*
X1130Y2004D02*
X708D01*
Y1689D01*
X1130D01*
Y2004D01*
D02*
G37*
G36*
X1578D02*
X1156D01*
Y1689D01*
X1578D01*
Y2004D01*
D02*
G37*
G36*
X3857Y1959D02*
X3696D01*
Y1855D01*
X3404D01*
X3384Y1851D01*
X3367Y1840D01*
X3363Y1837D01*
X3361Y1837D01*
X3336Y1856D01*
X3307Y1867D01*
X3277Y1872D01*
X3246Y1867D01*
X3217Y1856D01*
X3193Y1837D01*
X3174Y1812D01*
X3162Y1783D01*
X3158Y1753D01*
X3162Y1722D01*
X3174Y1693D01*
X3193Y1669D01*
X3217Y1650D01*
X3246Y1638D01*
X3277Y1634D01*
X3307Y1638D01*
X3336Y1650D01*
X3361Y1669D01*
X3380Y1693D01*
X3389Y1716D01*
X3389Y1716D01*
X3425Y1752D01*
X3696D01*
Y1648D01*
X3857D01*
Y1959D01*
D02*
G37*
G36*
X4293Y2325D02*
X4269Y2322D01*
X4248Y2313D01*
X4229Y2299D01*
X4215Y2280D01*
X4206Y2258D01*
X4203Y2235D01*
X4205Y2221D01*
X4195Y2211D01*
X4127D01*
Y2314D01*
X3966D01*
Y2004D01*
X3995D01*
Y1959D01*
X3966D01*
Y1648D01*
X4127D01*
Y1752D01*
X4171D01*
Y1648D01*
X4332D01*
Y1959D01*
X4171D01*
Y1855D01*
X4127D01*
Y1959D01*
X4098D01*
Y2004D01*
X4127D01*
Y2107D01*
X4216D01*
X4236Y2111D01*
X4253Y2122D01*
X4278Y2147D01*
X4293Y2146D01*
X4316Y2149D01*
X4337Y2158D01*
X4356Y2172D01*
X4370Y2190D01*
X4379Y2212D01*
X4382Y2235D01*
X4379Y2258D01*
X4370Y2280D01*
X4356Y2299D01*
X4337Y2313D01*
X4316Y2322D01*
X4293Y2325D01*
D02*
G37*
G36*
X3264Y2378D02*
X3159D01*
Y2273D01*
X3264D01*
Y2378D01*
D02*
G37*
G36*
X3394D02*
X3289D01*
Y2273D01*
X3394D01*
Y2378D01*
D02*
G37*
G36*
Y2248D02*
X3289D01*
Y2143D01*
X3394D01*
Y2248D01*
D02*
G37*
G36*
X3764Y2314D02*
X3696D01*
Y2172D01*
X3764D01*
Y2314D01*
D02*
G37*
G36*
X3857D02*
X3789D01*
Y2172D01*
X3857D01*
Y2314D01*
D02*
G37*
G36*
X9105Y1740D02*
X9038D01*
Y1597D01*
X9105D01*
Y1740D01*
D02*
G37*
G36*
X1130Y1014D02*
Y927D01*
X1217D01*
X1215Y941D01*
X1205Y965D01*
X1189Y986D01*
X1168Y1002D01*
X1144Y1012D01*
X1130Y1014D01*
D02*
G37*
G36*
X1613Y1003D02*
X1470D01*
Y935D01*
X1613D01*
Y1003D01*
D02*
G37*
G36*
X1781D02*
X1638D01*
Y935D01*
X1781D01*
Y1003D01*
D02*
G37*
G36*
Y910D02*
X1638D01*
Y842D01*
X1781D01*
Y910D01*
D02*
G37*
G36*
X7518Y1106D02*
X7495Y1103D01*
X7474Y1094D01*
X7455Y1079D01*
X7446Y1068D01*
X6604D01*
X6584Y1064D01*
X6567Y1053D01*
X6517Y1002D01*
X6505Y985D01*
X6501Y965D01*
Y773D01*
X6482Y757D01*
X6466Y736D01*
X6455Y712D01*
X6452Y686D01*
X6455Y660D01*
X6466Y635D01*
X6482Y614D01*
X6503Y598D01*
X6527Y588D01*
X6553Y585D01*
X6579Y588D01*
X6604Y598D01*
X6625Y614D01*
X6641Y635D01*
X6651Y660D01*
X6654Y686D01*
X6651Y712D01*
X6641Y736D01*
X6625Y757D01*
X6605Y773D01*
Y944D01*
X6625Y964D01*
X6994D01*
X6996Y958D01*
X6997Y952D01*
X6984Y934D01*
X6975Y912D01*
X6972Y889D01*
X6975Y866D01*
X6984Y844D01*
X6998Y826D01*
X7016Y811D01*
X7038Y802D01*
X7051Y801D01*
X7059Y800D01*
Y787D01*
X7051Y786D01*
X7035Y784D01*
X7011Y773D01*
X6990Y757D01*
X6974Y736D01*
X6963Y712D01*
X6960Y686D01*
X6963Y660D01*
X6974Y635D01*
X6990Y614D01*
X7011Y598D01*
X7035Y588D01*
X7061Y585D01*
X7087Y588D01*
X7112Y598D01*
X7133Y614D01*
X7149Y635D01*
X7159Y660D01*
X7162Y686D01*
X7159Y712D01*
X7149Y736D01*
X7133Y757D01*
X7112Y773D01*
X7087Y784D01*
X7071Y786D01*
X7063Y787D01*
Y800D01*
X7071Y801D01*
X7084Y802D01*
X7106Y811D01*
X7125Y826D01*
X7134Y837D01*
X7433D01*
X7473Y797D01*
X7469Y786D01*
X7469D01*
Y585D01*
X7670D01*
Y786D01*
X7619D01*
X7617Y795D01*
X7606Y811D01*
X7501Y916D01*
X7507Y928D01*
X7518Y926D01*
X7542Y929D01*
X7563Y938D01*
X7582Y953D01*
X7596Y971D01*
X7605Y993D01*
X7608Y1016D01*
X7605Y1039D01*
X7596Y1061D01*
X7582Y1079D01*
X7563Y1094D01*
X7542Y1103D01*
X7518Y1106D01*
D02*
G37*
G36*
X1105Y1014D02*
X1091Y1012D01*
X1067Y1002D01*
X1046Y986D01*
X1030Y965D01*
X1020Y941D01*
X1018Y927D01*
X1105D01*
Y1014D01*
D02*
G37*
G36*
X1578Y1664D02*
X1156D01*
Y1348D01*
X1578D01*
Y1664D01*
D02*
G37*
G36*
X6372Y1616D02*
X6304D01*
Y1473D01*
X6372D01*
Y1616D01*
D02*
G37*
G36*
X9012Y1740D02*
X8945D01*
Y1597D01*
X9012D01*
Y1740D01*
D02*
G37*
G36*
X6278Y1448D02*
X6211D01*
Y1305D01*
X6278D01*
Y1448D01*
D02*
G37*
G36*
X6372D02*
X6304D01*
Y1305D01*
X6372D01*
Y1448D01*
D02*
G37*
G36*
X1130Y1664D02*
X708D01*
Y1348D01*
X1130D01*
Y1664D01*
D02*
G37*
G36*
X6346Y4270D02*
X6278D01*
Y4128D01*
X6346D01*
Y4270D01*
D02*
G37*
G36*
X4341Y7091D02*
X4313Y7087D01*
X4286Y7076D01*
X4263Y7059D01*
X4245Y7036D01*
X4234Y7009D01*
X4230Y6980D01*
X4234Y6952D01*
X4245Y6925D01*
X4263Y6902D01*
X4286Y6884D01*
X4313Y6873D01*
X4341Y6870D01*
X4370Y6873D01*
X4397Y6884D01*
X4420Y6902D01*
X4437Y6925D01*
X4448Y6952D01*
X4452Y6980D01*
X4448Y7009D01*
X4437Y7036D01*
X4420Y7059D01*
X4397Y7076D01*
X4370Y7087D01*
X4341Y7091D01*
D02*
G37*
G36*
X4617D02*
X4589Y7087D01*
X4562Y7076D01*
X4539Y7059D01*
X4521Y7036D01*
X4510Y7009D01*
X4507Y6980D01*
X4510Y6952D01*
X4521Y6925D01*
X4539Y6902D01*
X4562Y6884D01*
X4589Y6873D01*
X4617Y6870D01*
X4646Y6873D01*
X4673Y6884D01*
X4696Y6902D01*
X4713Y6925D01*
X4724Y6952D01*
X4728Y6980D01*
X4724Y7009D01*
X4713Y7036D01*
X4696Y7059D01*
X4673Y7076D01*
X4646Y7087D01*
X4617Y7091D01*
D02*
G37*
G36*
X1414Y7090D02*
X1194D01*
Y6871D01*
X1414D01*
Y7090D01*
D02*
G37*
G36*
X3513Y7091D02*
X3484Y7087D01*
X3458Y7076D01*
X3435Y7059D01*
X3417Y7036D01*
X3406Y7009D01*
X3402Y6980D01*
X3406Y6952D01*
X3417Y6925D01*
X3435Y6902D01*
X3458Y6884D01*
X3484Y6873D01*
X3513Y6870D01*
X3542Y6873D01*
X3568Y6884D01*
X3591Y6902D01*
X3609Y6925D01*
X3620Y6952D01*
X3624Y6980D01*
X3620Y7009D01*
X3609Y7036D01*
X3591Y7059D01*
X3568Y7076D01*
X3542Y7087D01*
X3513Y7091D01*
D02*
G37*
G36*
X3789D02*
X3760Y7087D01*
X3734Y7076D01*
X3711Y7059D01*
X3693Y7036D01*
X3682Y7009D01*
X3678Y6980D01*
X3682Y6952D01*
X3693Y6925D01*
X3711Y6902D01*
X3734Y6884D01*
X3760Y6873D01*
X3789Y6870D01*
X3818Y6873D01*
X3844Y6884D01*
X3867Y6902D01*
X3885Y6925D01*
X3896Y6952D01*
X3900Y6980D01*
X3896Y7009D01*
X3885Y7036D01*
X3867Y7059D01*
X3844Y7076D01*
X3818Y7087D01*
X3789Y7091D01*
D02*
G37*
G36*
X4065D02*
X4036Y7087D01*
X4010Y7076D01*
X3987Y7059D01*
X3969Y7036D01*
X3958Y7009D01*
X3954Y6980D01*
X3958Y6952D01*
X3969Y6925D01*
X3987Y6902D01*
X4010Y6884D01*
X4036Y6873D01*
X4065Y6870D01*
X4094Y6873D01*
X4121Y6884D01*
X4144Y6902D01*
X4161Y6925D01*
X4172Y6952D01*
X4176Y6980D01*
X4172Y7009D01*
X4161Y7036D01*
X4144Y7059D01*
X4121Y7076D01*
X4094Y7087D01*
X4065Y7091D01*
D02*
G37*
G36*
X2973Y7090D02*
Y6993D01*
X3070D01*
X3068Y7009D01*
X3057Y7036D01*
X3039Y7059D01*
X3016Y7076D01*
X2989Y7087D01*
X2973Y7090D01*
D02*
G37*
G36*
X595Y7386D02*
X567Y7383D01*
X527Y7374D01*
X488Y7358D01*
X453Y7336D01*
X421Y7309D01*
X394Y7278D01*
X373Y7242D01*
X357Y7204D01*
X347Y7164D01*
X345Y7135D01*
X595D01*
Y7386D01*
D02*
G37*
G36*
X621D02*
Y7135D01*
X871D01*
X869Y7164D01*
X859Y7204D01*
X844Y7242D01*
X822Y7278D01*
X795Y7309D01*
X763Y7336D01*
X728Y7358D01*
X690Y7374D01*
X649Y7383D01*
X621Y7386D01*
D02*
G37*
G36*
X3070Y6968D02*
X2973D01*
Y6871D01*
X2989Y6873D01*
X3016Y6884D01*
X3039Y6902D01*
X3057Y6925D01*
X3068Y6952D01*
X3070Y6968D01*
D02*
G37*
G36*
X2948D02*
X2852D01*
X2854Y6952D01*
X2865Y6925D01*
X2882Y6902D01*
X2905Y6884D01*
X2932Y6873D01*
X2948Y6871D01*
Y6968D01*
D02*
G37*
G36*
Y7090D02*
X2932Y7087D01*
X2905Y7076D01*
X2882Y7059D01*
X2865Y7036D01*
X2854Y7009D01*
X2852Y6993D01*
X2948D01*
Y7090D01*
D02*
G37*
G36*
X3237Y7091D02*
X3208Y7087D01*
X3181Y7076D01*
X3158Y7059D01*
X3141Y7036D01*
X3130Y7009D01*
X3126Y6980D01*
X3130Y6952D01*
X3141Y6925D01*
X3158Y6902D01*
X3181Y6884D01*
X3208Y6873D01*
X3237Y6870D01*
X3266Y6873D01*
X3292Y6884D01*
X3315Y6902D01*
X3333Y6925D01*
X3344Y6952D01*
X3348Y6980D01*
X3344Y7009D01*
X3333Y7036D01*
X3315Y7059D01*
X3292Y7076D01*
X3266Y7087D01*
X3237Y7091D01*
D02*
G37*
G36*
X6456Y6904D02*
X6413D01*
Y6791D01*
X6456D01*
Y6904D01*
D02*
G37*
G36*
X6837D02*
X6794D01*
Y6791D01*
X6837D01*
Y6904D01*
D02*
G37*
G36*
X595Y7110D02*
X345D01*
X347Y7081D01*
X357Y7041D01*
X373Y7002D01*
X394Y6967D01*
X421Y6936D01*
X453Y6909D01*
X488Y6887D01*
X527Y6871D01*
X567Y6861D01*
X595Y6859D01*
Y7110D01*
D02*
G37*
G36*
X6837Y6766D02*
X6794D01*
Y6653D01*
X6837D01*
Y6766D01*
D02*
G37*
G36*
X6387Y6904D02*
X6345D01*
Y6791D01*
X6387D01*
Y6904D01*
D02*
G37*
G36*
X6768D02*
X6726D01*
Y6791D01*
X6768D01*
Y6904D01*
D02*
G37*
G36*
X2132Y7091D02*
X2104Y7087D01*
X2077Y7076D01*
X2054Y7059D01*
X2036Y7036D01*
X2025Y7009D01*
X2022Y6980D01*
X2025Y6952D01*
X2036Y6925D01*
X2054Y6902D01*
X2077Y6884D01*
X2104Y6873D01*
X2132Y6870D01*
X2161Y6873D01*
X2188Y6884D01*
X2211Y6902D01*
X2228Y6925D01*
X2240Y6952D01*
X2243Y6980D01*
X2240Y7009D01*
X2228Y7036D01*
X2211Y7059D01*
X2188Y7076D01*
X2161Y7087D01*
X2132Y7091D01*
D02*
G37*
G36*
X2409D02*
X2380Y7087D01*
X2353Y7076D01*
X2330Y7059D01*
X2313Y7036D01*
X2301Y7009D01*
X2298Y6980D01*
X2301Y6952D01*
X2313Y6925D01*
X2330Y6902D01*
X2353Y6884D01*
X2380Y6873D01*
X2409Y6870D01*
X2437Y6873D01*
X2464Y6884D01*
X2487Y6902D01*
X2505Y6925D01*
X2516Y6952D01*
X2519Y6980D01*
X2516Y7009D01*
X2505Y7036D01*
X2487Y7059D01*
X2464Y7076D01*
X2437Y7087D01*
X2409Y7091D01*
D02*
G37*
G36*
X2685D02*
X2656Y7087D01*
X2629Y7076D01*
X2606Y7059D01*
X2589Y7036D01*
X2578Y7009D01*
X2574Y6980D01*
X2578Y6952D01*
X2589Y6925D01*
X2606Y6902D01*
X2629Y6884D01*
X2656Y6873D01*
X2685Y6870D01*
X2713Y6873D01*
X2740Y6884D01*
X2763Y6902D01*
X2781Y6925D01*
X2792Y6952D01*
X2795Y6980D01*
X2792Y7009D01*
X2781Y7036D01*
X2763Y7059D01*
X2740Y7076D01*
X2713Y7087D01*
X2685Y7091D01*
D02*
G37*
G36*
X871Y7110D02*
X621D01*
Y6859D01*
X649Y6861D01*
X690Y6871D01*
X728Y6887D01*
X763Y6909D01*
X795Y6936D01*
X822Y6967D01*
X844Y7002D01*
X859Y7041D01*
X869Y7081D01*
X871Y7110D01*
D02*
G37*
G36*
X5301D02*
X5050D01*
X5052Y7081D01*
X5062Y7041D01*
X5078Y7002D01*
X5100Y6967D01*
X5127Y6936D01*
X5158Y6909D01*
X5193Y6887D01*
X5232Y6871D01*
X5272Y6861D01*
X5301Y6859D01*
Y7110D01*
D02*
G37*
G36*
X5577D02*
X5326D01*
Y6859D01*
X5355Y6861D01*
X5395Y6871D01*
X5433Y6887D01*
X5469Y6909D01*
X5500Y6936D01*
X5527Y6967D01*
X5549Y7002D01*
X5565Y7041D01*
X5574Y7081D01*
X5577Y7110D01*
D02*
G37*
G36*
X5301Y7386D02*
X5272Y7383D01*
X5232Y7374D01*
X5193Y7358D01*
X5158Y7336D01*
X5127Y7309D01*
X5100Y7278D01*
X5078Y7242D01*
X5062Y7204D01*
X5052Y7164D01*
X5050Y7135D01*
X5301D01*
Y7386D01*
D02*
G37*
G36*
X9394Y7579D02*
X9326D01*
Y7436D01*
X9394D01*
Y7579D01*
D02*
G37*
G36*
X6837Y7834D02*
X6726D01*
Y7595D01*
X6722Y7593D01*
X6719Y7593D01*
X6710Y7600D01*
Y7834D01*
X6599D01*
Y7583D01*
X6698D01*
X6705Y7583D01*
X6710Y7571D01*
X6684Y7545D01*
X6498D01*
X6473Y7571D01*
X6478Y7583D01*
X6482Y7583D01*
X6583D01*
Y7834D01*
X6472D01*
Y7601D01*
X6459Y7594D01*
X6456Y7596D01*
Y7834D01*
X6345D01*
Y7583D01*
X6348D01*
Y7570D01*
X6352Y7550D01*
X6364Y7533D01*
X6440Y7456D01*
X6457Y7445D01*
X6477Y7441D01*
X6706D01*
X6725Y7445D01*
X6742Y7456D01*
X6818Y7532D01*
X6829Y7549D01*
X6833Y7569D01*
Y7583D01*
X6837D01*
Y7834D01*
D02*
G37*
G36*
X6075D02*
X5964D01*
Y7600D01*
X5952Y7593D01*
X5951Y7593D01*
X5948Y7595D01*
Y7834D01*
X5837D01*
Y7596D01*
X5821D01*
Y7834D01*
X5710D01*
Y7596D01*
X5080D01*
X5080Y7596D01*
X5060Y7592D01*
X5043Y7580D01*
X5043Y7580D01*
X4789Y7326D01*
X4778Y7310D01*
X4774Y7290D01*
Y6879D01*
X4627Y6732D01*
X2178D01*
X1962Y6948D01*
X1963Y6952D01*
X1967Y6980D01*
X1963Y7009D01*
X1952Y7036D01*
X1935Y7059D01*
X1912Y7076D01*
X1885Y7087D01*
X1856Y7091D01*
X1828Y7087D01*
X1801Y7076D01*
X1778Y7059D01*
X1760Y7036D01*
X1749Y7009D01*
X1746Y6980D01*
X1749Y6952D01*
X1760Y6925D01*
X1778Y6902D01*
X1801Y6884D01*
X1828Y6873D01*
X1856Y6870D01*
X1885Y6873D01*
X1889Y6875D01*
X2120Y6644D01*
X2137Y6632D01*
X2157Y6628D01*
X4648D01*
X4668Y6632D01*
X4685Y6644D01*
X4863Y6821D01*
X4863Y6821D01*
X4874Y6838D01*
X4878Y6858D01*
Y7268D01*
X5101Y7492D01*
X5897D01*
X6221Y7167D01*
Y6904D01*
X6218D01*
Y6653D01*
X6329D01*
Y6904D01*
X6325D01*
Y7189D01*
X6321Y7209D01*
X6310Y7225D01*
X5965Y7571D01*
X5970Y7583D01*
X5974Y7583D01*
X6075D01*
Y7834D01*
D02*
G37*
G36*
X9804Y8255D02*
X9778Y8251D01*
X9754Y8241D01*
X9733Y8225D01*
X9717Y8204D01*
X9707Y8180D01*
X9703Y8153D01*
X9707Y8127D01*
X9717Y8103D01*
X9733Y8082D01*
X9753Y8067D01*
Y8048D01*
X9504Y7799D01*
X9322D01*
X9302Y7795D01*
X9285Y7784D01*
X9057Y7555D01*
X9045Y7538D01*
X9041Y7518D01*
Y7438D01*
X9030Y7429D01*
X9016Y7411D01*
X9007Y7389D01*
X9004Y7366D01*
X9007Y7343D01*
X9016Y7321D01*
X9030Y7303D01*
X9048Y7288D01*
X9070Y7279D01*
X9083Y7278D01*
X9112Y7248D01*
X9113Y7247D01*
X9103Y7239D01*
X9102Y7239D01*
X9090Y7247D01*
X9068Y7251D01*
X9045Y7247D01*
X9026Y7234D01*
X9013Y7215D01*
X9009Y7192D01*
Y7152D01*
X8759D01*
X8750Y7163D01*
X8739Y7172D01*
Y7268D01*
X9292Y7822D01*
X9398D01*
X9418Y7826D01*
X9435Y7837D01*
X9587Y7990D01*
X9598Y8007D01*
X9602Y8026D01*
Y8067D01*
X9622Y8082D01*
X9638Y8103D01*
X9648Y8127D01*
X9652Y8153D01*
X9648Y8180D01*
X9638Y8204D01*
X9622Y8225D01*
X9601Y8241D01*
X9577Y8251D01*
X9550Y8255D01*
X9524Y8251D01*
X9500Y8241D01*
X9479Y8225D01*
X9463Y8204D01*
X9453Y8180D01*
X9449Y8153D01*
X9453Y8127D01*
X9463Y8103D01*
X9479Y8082D01*
X9499Y8067D01*
Y8048D01*
X9377Y7926D01*
X9271D01*
X9251Y7922D01*
X9234Y7911D01*
X8650Y7326D01*
X8639Y7310D01*
X8635Y7290D01*
Y7172D01*
X8624Y7164D01*
X8618Y7165D01*
X8612Y7167D01*
Y7319D01*
X9333Y8040D01*
X9344Y8057D01*
X9346Y8065D01*
X9347Y8066D01*
X9368Y8082D01*
X9384Y8103D01*
X9394Y8127D01*
X9398Y8153D01*
X9394Y8180D01*
X9384Y8204D01*
X9368Y8225D01*
X9347Y8241D01*
X9323Y8251D01*
X9296Y8255D01*
X9270Y8251D01*
X9246Y8241D01*
X9225Y8225D01*
X9209Y8204D01*
X9199Y8180D01*
X9195Y8153D01*
X9199Y8127D01*
X9209Y8103D01*
X9225Y8082D01*
X9225Y8079D01*
X8523Y7377D01*
X8512Y7360D01*
X8508Y7340D01*
Y7020D01*
X8497Y7011D01*
X8491Y7013D01*
X8485Y7015D01*
Y7395D01*
X9079Y7990D01*
X9079Y7990D01*
X9090Y8007D01*
X9094Y8026D01*
X9094Y8026D01*
Y8067D01*
X9114Y8082D01*
X9130Y8103D01*
X9140Y8127D01*
X9144Y8153D01*
X9140Y8180D01*
X9130Y8204D01*
X9114Y8225D01*
X9093Y8241D01*
X9069Y8251D01*
X9042Y8255D01*
X9016Y8251D01*
X8992Y8241D01*
X8971Y8225D01*
X8955Y8204D01*
X8945Y8180D01*
X8941Y8153D01*
X8945Y8127D01*
X8955Y8103D01*
X8971Y8082D01*
X8991Y8067D01*
Y8048D01*
X8396Y7453D01*
X8385Y7437D01*
X8381Y7417D01*
Y6858D01*
X8385Y6838D01*
X8396Y6821D01*
X8440Y6777D01*
X8457Y6766D01*
X8475Y6762D01*
X8478Y6756D01*
X8478Y6749D01*
X8471Y6744D01*
X8462Y6732D01*
X8378D01*
X8358Y6752D01*
Y7472D01*
X8825Y7939D01*
X8836Y7956D01*
X8840Y7976D01*
Y8067D01*
X8860Y8082D01*
X8876Y8103D01*
X8886Y8127D01*
X8890Y8153D01*
X8886Y8180D01*
X8876Y8204D01*
X8860Y8225D01*
X8839Y8241D01*
X8815Y8251D01*
X8788Y8255D01*
X8762Y8251D01*
X8738Y8241D01*
X8717Y8225D01*
X8701Y8204D01*
X8691Y8180D01*
X8687Y8153D01*
X8691Y8127D01*
X8701Y8103D01*
X8717Y8082D01*
X8737Y8067D01*
Y7997D01*
X8269Y7530D01*
X8258Y7513D01*
X8254Y7493D01*
Y6731D01*
X8258Y6711D01*
X8269Y6694D01*
X8320Y6644D01*
X8337Y6632D01*
X8357Y6628D01*
X8462D01*
X8471Y6617D01*
X8490Y6603D01*
X8511Y6594D01*
X8534Y6591D01*
X8558Y6594D01*
X8579Y6603D01*
X8598Y6617D01*
X8607Y6628D01*
X8799D01*
X8801Y6616D01*
X8794Y6614D01*
X8775Y6602D01*
X8762Y6582D01*
X8757Y6560D01*
X8762Y6537D01*
X8775Y6518D01*
X8794Y6505D01*
X8806Y6503D01*
Y6490D01*
X8794Y6487D01*
X8790Y6485D01*
X8607D01*
X8598Y6496D01*
X8579Y6510D01*
X8558Y6519D01*
X8534Y6522D01*
X8511Y6519D01*
X8490Y6510D01*
X8471Y6496D01*
X8462Y6485D01*
X8371D01*
X8231Y6625D01*
Y7573D01*
X8571Y7914D01*
X8582Y7930D01*
X8586Y7950D01*
Y8067D01*
X8606Y8082D01*
X8622Y8103D01*
X8632Y8127D01*
X8636Y8153D01*
X8632Y8180D01*
X8622Y8204D01*
X8606Y8225D01*
X8585Y8241D01*
X8561Y8251D01*
X8534Y8255D01*
X8508Y8251D01*
X8484Y8241D01*
X8463Y8225D01*
X8447Y8204D01*
X8437Y8180D01*
X8433Y8153D01*
X8437Y8127D01*
X8447Y8103D01*
X8463Y8082D01*
X8483Y8067D01*
Y7972D01*
X8142Y7631D01*
X8131Y7614D01*
X8127Y7595D01*
Y6604D01*
X8131Y6584D01*
X8142Y6567D01*
X8313Y6396D01*
X8313Y6396D01*
X8330Y6385D01*
X8350Y6381D01*
X8350Y6381D01*
X8462D01*
X8470Y6370D01*
X8469Y6364D01*
X8467Y6358D01*
X8283D01*
X8104Y6537D01*
Y7649D01*
X8317Y7863D01*
X8328Y7880D01*
X8332Y7899D01*
Y8067D01*
X8352Y8082D01*
X8368Y8103D01*
X8378Y8127D01*
X8382Y8153D01*
X8378Y8180D01*
X8368Y8204D01*
X8352Y8225D01*
X8331Y8241D01*
X8307Y8251D01*
X8280Y8255D01*
X8254Y8251D01*
X8230Y8241D01*
X8209Y8225D01*
X8193Y8204D01*
X8183Y8180D01*
X8179Y8153D01*
X8183Y8127D01*
X8193Y8103D01*
X8209Y8082D01*
X8229Y8067D01*
Y7921D01*
X8015Y7707D01*
X8004Y7691D01*
X8000Y7671D01*
Y6516D01*
X8004Y6496D01*
X8015Y6479D01*
X8225Y6269D01*
X8242Y6258D01*
X8262Y6254D01*
X8474D01*
X8478Y6241D01*
X8471Y6236D01*
X8462Y6224D01*
X8226D01*
X7977Y6473D01*
Y7726D01*
X8063Y7812D01*
X8074Y7829D01*
X8078Y7849D01*
Y8067D01*
X8098Y8082D01*
X8114Y8103D01*
X8124Y8127D01*
X8128Y8153D01*
X8124Y8180D01*
X8114Y8204D01*
X8098Y8225D01*
X8077Y8241D01*
X8053Y8251D01*
X8026Y8255D01*
X8000Y8251D01*
X7976Y8241D01*
X7955Y8225D01*
X7939Y8204D01*
X7929Y8180D01*
X7925Y8153D01*
X7929Y8127D01*
X7939Y8103D01*
X7955Y8082D01*
X7975Y8067D01*
Y7870D01*
X7888Y7784D01*
X7877Y7767D01*
X7873Y7747D01*
Y6452D01*
X7877Y6432D01*
X7888Y6415D01*
X8168Y6136D01*
X8184Y6124D01*
X8204Y6120D01*
X8462D01*
X8471Y6109D01*
X8490Y6095D01*
X8511Y6086D01*
X8534Y6083D01*
X8558Y6086D01*
X8579Y6095D01*
X8598Y6109D01*
X8612Y6127D01*
X8790D01*
X8794Y6124D01*
X8816Y6120D01*
X8997D01*
X9004Y6115D01*
X9009Y6108D01*
Y5927D01*
X9013Y5905D01*
X9016Y5901D01*
Y5686D01*
X8792Y5462D01*
X6778D01*
X6769Y5474D01*
X6750Y5488D01*
X6729Y5497D01*
X6706Y5500D01*
X6682Y5497D01*
X6661Y5488D01*
X6642Y5474D01*
X6628Y5455D01*
X6619Y5433D01*
X6616Y5410D01*
X6619Y5387D01*
X6628Y5365D01*
X6642Y5347D01*
X6661Y5333D01*
X6682Y5324D01*
X6706Y5321D01*
X6729Y5324D01*
X6750Y5333D01*
X6769Y5347D01*
X6778Y5358D01*
X8814D01*
X8834Y5362D01*
X8850Y5374D01*
X9104Y5628D01*
X9104Y5628D01*
X9116Y5644D01*
X9120Y5664D01*
X9120Y5664D01*
Y5724D01*
X9126Y5726D01*
X9132Y5727D01*
X9150Y5714D01*
X9172Y5705D01*
X9195Y5702D01*
X9218Y5705D01*
X9240Y5714D01*
X9257Y5727D01*
X9264Y5726D01*
X9270Y5724D01*
Y5508D01*
X9021Y5259D01*
X7159D01*
X7150Y5270D01*
X7131Y5285D01*
X7110Y5294D01*
X7087Y5297D01*
X7063Y5294D01*
X7042Y5285D01*
X7023Y5270D01*
X7009Y5252D01*
X7000Y5230D01*
X6997Y5207D01*
X7000Y5184D01*
X7009Y5162D01*
X7023Y5144D01*
X7042Y5129D01*
X7063Y5120D01*
X7087Y5117D01*
X7110Y5120D01*
X7131Y5129D01*
X7150Y5144D01*
X7159Y5155D01*
X9042D01*
X9062Y5159D01*
X9079Y5170D01*
X9358Y5450D01*
X9370Y5467D01*
X9374Y5486D01*
Y5901D01*
X9376Y5905D01*
X9379Y5917D01*
X9392D01*
X9394Y5905D01*
X9407Y5886D01*
X9426Y5873D01*
X9449Y5868D01*
X9471Y5873D01*
X9491Y5886D01*
X9503Y5905D01*
X9506Y5917D01*
X9519D01*
X9521Y5905D01*
X9524Y5901D01*
Y5330D01*
X9352Y5158D01*
X9341Y5141D01*
X9337Y5121D01*
Y5028D01*
X9325Y5023D01*
X9257Y5091D01*
X9240Y5102D01*
X9220Y5106D01*
X7476D01*
X7476Y5106D01*
X7456Y5102D01*
X7439Y5091D01*
X6625Y4278D01*
X6616Y4270D01*
Y4270D01*
X6616Y4270D01*
X6572D01*
Y6322D01*
X6600D01*
Y6632D01*
X6579D01*
Y6653D01*
X6583D01*
Y6904D01*
X6472D01*
Y6653D01*
X6475D01*
Y6632D01*
X6439D01*
Y6322D01*
X6468D01*
Y4270D01*
X6455D01*
Y3959D01*
X6476D01*
Y3861D01*
X6480Y3841D01*
X6491Y3824D01*
X6589Y3726D01*
Y3476D01*
X6577Y3468D01*
X6574Y3469D01*
Y3370D01*
Y3271D01*
X6577Y3272D01*
X6589Y3264D01*
Y2903D01*
X6533Y2847D01*
X6093D01*
X6085Y2859D01*
X6088Y2875D01*
X6084Y2896D01*
X6072Y2913D01*
Y2917D01*
X6084Y2934D01*
X6088Y2955D01*
X6084Y2976D01*
X6072Y2993D01*
Y2997D01*
X6084Y3014D01*
X6088Y3035D01*
X6084Y3056D01*
X6072Y3073D01*
Y3077D01*
X6084Y3094D01*
X6088Y3115D01*
X6084Y3136D01*
X6072Y3153D01*
Y3157D01*
X6084Y3174D01*
X6088Y3195D01*
X6084Y3216D01*
X6072Y3233D01*
X6054Y3245D01*
X6034Y3249D01*
X6006D01*
X5673Y3581D01*
X5675Y3584D01*
X5678Y3607D01*
X5675Y3630D01*
X5673Y3634D01*
X5684Y3641D01*
X5991Y3333D01*
X6008Y3322D01*
X6028Y3318D01*
X6108D01*
X6111Y3302D01*
X6123Y3284D01*
X6141Y3273D01*
X6161Y3268D01*
X6182Y3273D01*
X6199Y3284D01*
X6203D01*
X6221Y3273D01*
X6241Y3268D01*
X6262Y3273D01*
X6279Y3284D01*
X6283D01*
X6301Y3273D01*
X6321Y3268D01*
X6342Y3273D01*
X6359Y3284D01*
X6363D01*
X6381Y3273D01*
X6401Y3268D01*
X6422Y3273D01*
X6439Y3284D01*
X6443D01*
X6461Y3273D01*
X6481Y3268D01*
X6502Y3273D01*
X6519Y3284D01*
X6523D01*
X6541Y3273D01*
X6549Y3271D01*
Y3370D01*
Y3469D01*
X6546Y3468D01*
X6533Y3476D01*
Y3603D01*
X6529Y3622D01*
X6518Y3639D01*
X6209Y3948D01*
X6214Y3959D01*
X6253D01*
Y4102D01*
X6185D01*
Y3988D01*
X6174Y3983D01*
X5513Y4644D01*
Y5922D01*
X5524Y5931D01*
X5539Y5950D01*
X5548Y5971D01*
X5551Y5994D01*
X5548Y6018D01*
X5539Y6039D01*
X5524Y6058D01*
X5506Y6072D01*
X5484Y6081D01*
X5461Y6084D01*
X5438Y6081D01*
X5416Y6072D01*
X5398Y6058D01*
X5383Y6039D01*
X5374Y6018D01*
X5373Y6008D01*
X5360Y6009D01*
Y6074D01*
X5372Y6083D01*
X5386Y6102D01*
X5395Y6124D01*
X5398Y6147D01*
X5395Y6170D01*
X5386Y6192D01*
X5372Y6210D01*
X5353Y6224D01*
X5332Y6233D01*
X5309Y6236D01*
X5285Y6233D01*
X5264Y6224D01*
X5245Y6210D01*
X5231Y6192D01*
X5222Y6170D01*
X5221Y6160D01*
X5208Y6161D01*
Y6227D01*
X5220Y6236D01*
X5234Y6254D01*
X5243Y6276D01*
X5246Y6299D01*
X5243Y6322D01*
X5234Y6344D01*
X5220Y6363D01*
X5201Y6377D01*
X5179Y6386D01*
X5156Y6389D01*
X5133Y6386D01*
X5111Y6377D01*
X5093Y6363D01*
X5079Y6344D01*
X5070Y6322D01*
X5067Y6299D01*
X5070Y6276D01*
X5079Y6254D01*
X5093Y6236D01*
X5104Y6227D01*
Y4623D01*
X5108Y4603D01*
X5120Y4586D01*
X6226Y3480D01*
X6222Y3468D01*
X6221Y3467D01*
X6203Y3456D01*
X6199D01*
X6182Y3467D01*
X6161Y3471D01*
X6141Y3467D01*
X6123Y3456D01*
X6111Y3438D01*
X6108Y3422D01*
X6050D01*
X5675Y3796D01*
X5659Y3807D01*
X5639Y3811D01*
X5508D01*
X5499Y3823D01*
X5480Y3837D01*
X5459Y3846D01*
X5436Y3849D01*
X5412Y3846D01*
X5391Y3837D01*
X5372Y3823D01*
X5358Y3804D01*
X5349Y3782D01*
X5346Y3759D01*
X5349Y3736D01*
X5358Y3714D01*
X5372Y3696D01*
X5391Y3682D01*
X5412Y3673D01*
X5436Y3670D01*
X5459Y3673D01*
X5480Y3682D01*
X5499Y3696D01*
X5508Y3707D01*
X5574D01*
X5575Y3695D01*
X5565Y3693D01*
X5543Y3684D01*
X5525Y3670D01*
X5510Y3652D01*
X5501Y3630D01*
X5498Y3607D01*
X5501Y3584D01*
X5504Y3578D01*
X5496Y3568D01*
X5486Y3569D01*
X5463Y3566D01*
X5442Y3557D01*
X5423Y3543D01*
X5409Y3525D01*
X5400Y3503D01*
X5397Y3480D01*
X5400Y3457D01*
X5409Y3435D01*
X5423Y3416D01*
X5442Y3402D01*
X5463Y3393D01*
X5486Y3390D01*
X5506Y3393D01*
X5536Y3363D01*
X5532Y3351D01*
X5531Y3350D01*
X5512Y3354D01*
X5483D01*
X5474Y3365D01*
X5455Y3380D01*
X5433Y3389D01*
X5410Y3392D01*
X5387Y3389D01*
X5365Y3380D01*
X5347Y3365D01*
X5333Y3347D01*
X5324Y3325D01*
X5321Y3302D01*
X5324Y3279D01*
X5333Y3257D01*
X5347Y3239D01*
X5365Y3224D01*
X5387Y3215D01*
X5407Y3213D01*
X5412Y3204D01*
X5413Y3200D01*
X5409Y3194D01*
X5400Y3173D01*
X5397Y3152D01*
X5386Y3146D01*
X5157Y3374D01*
Y3763D01*
X5345Y3951D01*
X5359Y3949D01*
X5383Y3952D01*
X5404Y3961D01*
X5423Y3975D01*
X5437Y3994D01*
X5446Y4015D01*
X5449Y4039D01*
X5446Y4062D01*
X5437Y4083D01*
X5423Y4102D01*
X5404Y4116D01*
X5383Y4125D01*
X5359Y4128D01*
X5336Y4125D01*
X5315Y4116D01*
X5296Y4102D01*
X5282Y4083D01*
X5273Y4062D01*
X5270Y4039D01*
X5272Y4024D01*
X5069Y3821D01*
X5058Y3804D01*
X5054Y3785D01*
Y3353D01*
X5058Y3333D01*
X5069Y3316D01*
X5423Y2962D01*
X5418Y2949D01*
X5412Y2949D01*
X5262D01*
Y2643D01*
X5152D01*
Y2781D01*
X5072D01*
X4992D01*
Y2643D01*
X4898D01*
X4776Y2765D01*
Y3865D01*
X5116Y4205D01*
X5131Y4203D01*
X5154Y4206D01*
X5176Y4215D01*
X5194Y4229D01*
X5208Y4248D01*
X5217Y4269D01*
X5220Y4293D01*
X5217Y4316D01*
X5208Y4337D01*
X5194Y4356D01*
X5176Y4370D01*
X5154Y4379D01*
X5131Y4382D01*
X5108Y4379D01*
X5086Y4370D01*
X5067Y4356D01*
X5053Y4337D01*
X5044Y4316D01*
X5041Y4293D01*
X5043Y4278D01*
X4688Y3923D01*
X4677Y3906D01*
X4673Y3886D01*
Y2743D01*
X4677Y2723D01*
X4688Y2707D01*
X4840Y2554D01*
X4857Y2543D01*
X4877Y2539D01*
X5486D01*
X5498Y2541D01*
X5504Y2530D01*
X5490Y2516D01*
X4847D01*
X4649Y2714D01*
Y2972D01*
X4645Y2992D01*
X4634Y3008D01*
X4634Y3008D01*
X4112Y3530D01*
X4113Y3536D01*
X4118Y3543D01*
X4138Y3546D01*
X4160Y3555D01*
X4178Y3569D01*
X4192Y3587D01*
X4201Y3609D01*
X4204Y3632D01*
X4201Y3655D01*
X4192Y3677D01*
X4179Y3695D01*
X4180Y3701D01*
X4182Y3707D01*
X4322D01*
X4331Y3696D01*
X4349Y3682D01*
X4371Y3673D01*
X4394Y3670D01*
X4417Y3673D01*
X4439Y3682D01*
X4458Y3696D01*
X4472Y3714D01*
X4481Y3736D01*
X4484Y3759D01*
X4481Y3782D01*
X4472Y3804D01*
X4458Y3823D01*
X4439Y3837D01*
X4417Y3846D01*
X4394Y3849D01*
X4371Y3846D01*
X4349Y3837D01*
X4331Y3823D01*
X4322Y3811D01*
X4157D01*
X4155Y3817D01*
X4153Y3824D01*
X4167Y3841D01*
X4176Y3863D01*
X4179Y3886D01*
X4176Y3909D01*
X4167Y3931D01*
X4153Y3949D01*
X4155Y3955D01*
X4157Y3961D01*
X4271D01*
X4280Y3950D01*
X4299Y3936D01*
X4320Y3927D01*
X4343Y3924D01*
X4367Y3927D01*
X4388Y3936D01*
X4407Y3950D01*
X4421Y3968D01*
X4430Y3990D01*
X4433Y4013D01*
X4430Y4036D01*
X4421Y4058D01*
X4407Y4077D01*
X4388Y4091D01*
X4367Y4100D01*
X4343Y4103D01*
X4320Y4100D01*
X4299Y4091D01*
X4280Y4077D01*
X4271Y4065D01*
X4012D01*
Y4069D01*
X3761D01*
Y3958D01*
X4010D01*
X4016Y3952D01*
X4019Y3948D01*
X4012Y3942D01*
X4012Y3942D01*
X3761D01*
Y3831D01*
X4012D01*
X4012Y3831D01*
Y3831D01*
X4019Y3824D01*
X4016Y3820D01*
X4010Y3815D01*
X3761D01*
Y3704D01*
X4012D01*
Y3707D01*
X4047D01*
X4050Y3701D01*
X4051Y3695D01*
X4042Y3684D01*
X4012D01*
Y3688D01*
X3761D01*
Y3577D01*
X4012D01*
Y3580D01*
X4042D01*
X4051Y3570D01*
X4050Y3566D01*
X4046Y3557D01*
X4012D01*
Y3561D01*
X3761D01*
Y3450D01*
X4012D01*
Y3453D01*
X4043D01*
X4546Y2950D01*
Y2692D01*
X4550Y2673D01*
X4561Y2656D01*
X4789Y2427D01*
X4806Y2416D01*
X4826Y2412D01*
X5419D01*
X5421Y2406D01*
X5422Y2399D01*
X5409Y2382D01*
X5400Y2360D01*
X5397Y2337D01*
X5399Y2322D01*
X4932Y1855D01*
X4602D01*
Y1959D01*
X4441D01*
Y1648D01*
X4469D01*
Y1469D01*
X4358Y1358D01*
X4343Y1360D01*
X4320Y1357D01*
X4299Y1348D01*
X4280Y1333D01*
X4271Y1322D01*
X3171D01*
X2526Y1967D01*
X2509Y1978D01*
X2489Y1982D01*
X2298D01*
Y2006D01*
X2185D01*
Y2286D01*
X2185Y2286D01*
X2181Y2306D01*
X2170Y2323D01*
X2170Y2323D01*
X1967Y2525D01*
X1969Y2540D01*
X1966Y2563D01*
X1957Y2585D01*
X1943Y2603D01*
X1924Y2618D01*
X1903Y2627D01*
X1880Y2630D01*
X1856Y2627D01*
X1835Y2618D01*
X1816Y2603D01*
X1802Y2585D01*
X1793Y2563D01*
X1790Y2540D01*
X1793Y2517D01*
X1802Y2495D01*
X1816Y2477D01*
X1835Y2462D01*
X1856Y2453D01*
X1880Y2450D01*
X1894Y2452D01*
X2082Y2265D01*
Y2006D01*
X1928D01*
Y1855D01*
X2298D01*
Y1879D01*
X2468D01*
X3113Y1233D01*
X3130Y1222D01*
X3150Y1218D01*
X4271D01*
X4280Y1207D01*
X4299Y1192D01*
X4320Y1183D01*
X4343Y1180D01*
X4367Y1183D01*
X4388Y1192D01*
X4407Y1207D01*
X4421Y1225D01*
X4430Y1247D01*
X4433Y1270D01*
X4431Y1285D01*
X4558Y1411D01*
X4558Y1411D01*
X4569Y1428D01*
X4573Y1448D01*
Y1648D01*
X4602D01*
Y1752D01*
X4953D01*
X4973Y1756D01*
X4990Y1767D01*
X5472Y2249D01*
X5486Y2247D01*
X5510Y2250D01*
X5531Y2259D01*
X5550Y2273D01*
X5564Y2292D01*
X5573Y2314D01*
X5576Y2337D01*
X5573Y2360D01*
X5564Y2382D01*
X5550Y2400D01*
X5541Y2407D01*
X5542Y2423D01*
X5548Y2427D01*
X5703Y2581D01*
X5723D01*
X5725Y2569D01*
X5721Y2567D01*
X5702Y2553D01*
X5688Y2534D01*
X5679Y2512D01*
X5676Y2489D01*
X5679Y2466D01*
X5688Y2444D01*
X5702Y2426D01*
X5721Y2412D01*
X5743Y2403D01*
X5766Y2400D01*
X5789Y2403D01*
X5811Y2412D01*
X5829Y2426D01*
X5843Y2444D01*
X5852Y2466D01*
X5855Y2489D01*
X5855Y2494D01*
X5863Y2503D01*
X5880D01*
X5888Y2490D01*
X5885Y2475D01*
X5889Y2454D01*
X5901Y2437D01*
Y2433D01*
X5889Y2416D01*
X5885Y2395D01*
X5889Y2374D01*
X5901Y2357D01*
X5918Y2345D01*
X5939Y2341D01*
X6034D01*
X6054Y2345D01*
X6072Y2357D01*
X6084Y2374D01*
X6088Y2395D01*
X6084Y2416D01*
X6072Y2433D01*
Y2437D01*
X6084Y2454D01*
X6088Y2475D01*
X6084Y2496D01*
X6072Y2513D01*
Y2517D01*
X6084Y2534D01*
X6088Y2555D01*
X6084Y2576D01*
X6072Y2593D01*
Y2597D01*
X6084Y2614D01*
X6088Y2635D01*
X6084Y2656D01*
X6072Y2673D01*
Y2677D01*
X6084Y2694D01*
X6088Y2715D01*
X6085Y2730D01*
X6093Y2743D01*
X6509D01*
Y2326D01*
X6497Y2318D01*
X6494Y2319D01*
Y2220D01*
Y2121D01*
X6498Y2122D01*
X6511Y2115D01*
Y1616D01*
X6481D01*
Y1305D01*
X6523D01*
X6526Y1300D01*
X6682Y1144D01*
X6698Y1133D01*
X6718Y1129D01*
X7662D01*
X7671Y1118D01*
X7689Y1103D01*
X7711Y1094D01*
X7734Y1091D01*
X7758Y1094D01*
X7779Y1103D01*
X7798Y1118D01*
X7812Y1136D01*
X7821Y1158D01*
X7824Y1181D01*
X7821Y1204D01*
X7812Y1226D01*
X7798Y1245D01*
X7782Y1256D01*
X7786Y1269D01*
X8001D01*
X8001Y1268D01*
X8014Y1249D01*
X8033Y1236D01*
X8041Y1234D01*
Y1221D01*
X8033Y1220D01*
X8014Y1207D01*
X8001Y1188D01*
X7997Y1165D01*
X8001Y1143D01*
X8014Y1124D01*
X8033Y1111D01*
X8041Y1109D01*
Y1096D01*
X8033Y1095D01*
X8014Y1082D01*
X8001Y1063D01*
X7997Y1040D01*
X8001Y1018D01*
X8014Y999D01*
X8033Y986D01*
X8041Y984D01*
Y971D01*
X8033Y970D01*
X8014Y957D01*
X8001Y938D01*
X7997Y915D01*
X8001Y893D01*
X8014Y874D01*
X8033Y861D01*
X8041Y859D01*
Y846D01*
X8033Y845D01*
X8014Y832D01*
X8001Y813D01*
X7997Y790D01*
X8001Y768D01*
X8014Y749D01*
X8033Y736D01*
X8056Y731D01*
X8235D01*
X8243Y727D01*
X8247Y720D01*
Y540D01*
X8251Y518D01*
X8264Y499D01*
X8283Y486D01*
X8306Y481D01*
X8328Y486D01*
X8348Y499D01*
X8360Y518D01*
X8362Y525D01*
X8375D01*
X8376Y518D01*
X8389Y499D01*
X8408Y486D01*
X8418Y484D01*
Y633D01*
Y782D01*
X8408Y780D01*
X8389Y767D01*
X8376Y748D01*
X8375Y740D01*
X8362D01*
X8360Y748D01*
X8348Y767D01*
X8328Y780D01*
X8306Y784D01*
X8300Y790D01*
X8295Y813D01*
X8283Y832D01*
X8263Y845D01*
X8256Y846D01*
Y859D01*
X8263Y861D01*
X8283Y874D01*
X8295Y893D01*
X8300Y915D01*
X8295Y938D01*
X8283Y957D01*
X8263Y970D01*
X8256Y971D01*
Y984D01*
X8263Y986D01*
X8283Y999D01*
X8295Y1018D01*
X8300Y1040D01*
X8295Y1063D01*
X8283Y1082D01*
X8263Y1095D01*
X8256Y1096D01*
Y1109D01*
X8263Y1111D01*
X8283Y1124D01*
X8295Y1143D01*
X8300Y1165D01*
X8295Y1188D01*
X8283Y1207D01*
X8263Y1220D01*
X8256Y1221D01*
Y1234D01*
X8263Y1236D01*
X8283Y1249D01*
X8295Y1268D01*
X8300Y1290D01*
X8306Y1296D01*
X8328Y1301D01*
X8348Y1314D01*
X8360Y1333D01*
X8362Y1340D01*
X8375D01*
X8376Y1333D01*
X8389Y1314D01*
X8408Y1301D01*
X8431Y1296D01*
X8453Y1301D01*
X8473Y1314D01*
X8485Y1333D01*
X8487Y1340D01*
X8500D01*
X8501Y1333D01*
X8514Y1314D01*
X8533Y1301D01*
X8556Y1296D01*
X8578Y1301D01*
X8598Y1314D01*
X8610Y1333D01*
X8612Y1340D01*
X8625D01*
X8626Y1333D01*
X8639Y1314D01*
X8658Y1301D01*
X8681Y1296D01*
X8703Y1301D01*
X8723Y1314D01*
X8735Y1333D01*
X8737Y1340D01*
X8750D01*
X8751Y1333D01*
X8764Y1314D01*
X8783Y1301D01*
X8800Y1297D01*
X8812Y1290D01*
X8816Y1268D01*
X8829Y1249D01*
X8848Y1236D01*
X8856Y1234D01*
Y1221D01*
X8848Y1220D01*
X8829Y1207D01*
X8816Y1188D01*
X8812Y1165D01*
X8816Y1143D01*
X8829Y1124D01*
X8848Y1111D01*
X8856Y1109D01*
Y1096D01*
X8848Y1095D01*
X8829Y1082D01*
X8816Y1063D01*
X8812Y1040D01*
X8816Y1018D01*
X8829Y999D01*
X8848Y986D01*
X8856Y984D01*
Y971D01*
X8848Y970D01*
X8829Y957D01*
X8816Y938D01*
X8812Y915D01*
X8816Y893D01*
X8829Y874D01*
X8848Y861D01*
X8856Y859D01*
Y846D01*
X8848Y845D01*
X8829Y832D01*
X8816Y813D01*
X8812Y790D01*
X8800Y783D01*
X8783Y780D01*
X8764Y767D01*
X8751Y748D01*
X8750Y740D01*
X8737D01*
X8735Y748D01*
X8723Y767D01*
X8703Y780D01*
X8681Y784D01*
X8658Y780D01*
X8639Y767D01*
X8626Y748D01*
X8625Y740D01*
X8612D01*
X8610Y748D01*
X8598Y767D01*
X8578Y780D01*
X8556Y784D01*
X8533Y780D01*
X8514Y767D01*
X8501Y748D01*
X8500Y740D01*
X8487D01*
X8485Y748D01*
X8473Y767D01*
X8453Y780D01*
X8443Y782D01*
Y633D01*
Y484D01*
X8453Y486D01*
X8473Y499D01*
X8485Y518D01*
X8487Y525D01*
X8500D01*
X8501Y518D01*
X8514Y499D01*
X8533Y486D01*
X8556Y481D01*
X8578Y486D01*
X8598Y499D01*
X8610Y518D01*
X8612Y525D01*
X8625D01*
X8626Y518D01*
X8639Y499D01*
X8658Y486D01*
X8681Y481D01*
X8703Y486D01*
X8723Y499D01*
X8735Y518D01*
X8737Y525D01*
X8750D01*
X8751Y518D01*
X8764Y499D01*
X8783Y486D01*
X8806Y481D01*
X8828Y486D01*
X8848Y499D01*
X8860Y518D01*
X8865Y540D01*
Y720D01*
X8869Y727D01*
X8877Y731D01*
X9056D01*
X9078Y736D01*
X9098Y749D01*
X9110Y768D01*
X9115Y790D01*
X9110Y813D01*
X9098Y832D01*
X9078Y845D01*
X9071Y846D01*
Y859D01*
X9078Y861D01*
X9098Y874D01*
X9110Y893D01*
X9115Y915D01*
X9110Y938D01*
X9098Y957D01*
X9078Y970D01*
X9071Y971D01*
Y984D01*
X9078Y986D01*
X9082Y989D01*
X9123D01*
X9131Y978D01*
X9150Y964D01*
X9172Y955D01*
X9195Y952D01*
X9218Y955D01*
X9240Y964D01*
X9258Y978D01*
X9272Y997D01*
X9281Y1018D01*
X9284Y1041D01*
X9281Y1065D01*
X9272Y1086D01*
X9261Y1101D01*
X9267Y1114D01*
X9297D01*
X9306Y1102D01*
X9325Y1088D01*
X9346Y1079D01*
X9369Y1076D01*
X9393Y1079D01*
X9414Y1088D01*
X9433Y1102D01*
X9447Y1120D01*
X9456Y1142D01*
X9459Y1165D01*
X9456Y1189D01*
X9447Y1210D01*
X9435Y1226D01*
X9439Y1239D01*
X9457D01*
X9462Y1232D01*
X9480Y1218D01*
X9502Y1209D01*
X9525Y1206D01*
X9548Y1209D01*
X9570Y1218D01*
X9588Y1232D01*
X9603Y1251D01*
X9612Y1272D01*
X9615Y1295D01*
X9612Y1319D01*
X9603Y1340D01*
X9588Y1359D01*
X9570Y1373D01*
X9548Y1382D01*
X9538Y1383D01*
X9539Y1396D01*
X9754D01*
X9773Y1400D01*
X9790Y1411D01*
X9815Y1436D01*
X9828Y1437D01*
X9849Y1446D01*
X9868Y1461D01*
X9882Y1479D01*
X9891Y1501D01*
X9894Y1524D01*
X9891Y1547D01*
X9882Y1569D01*
X9868Y1587D01*
X9849Y1602D01*
X9828Y1611D01*
X9804Y1614D01*
X9781Y1611D01*
X9760Y1602D01*
X9741Y1587D01*
X9727Y1569D01*
X9718Y1547D01*
X9715Y1524D01*
X9716Y1512D01*
X9705Y1500D01*
X8865D01*
Y1540D01*
X8860Y1563D01*
X8848Y1582D01*
X8841Y1587D01*
X8835Y1597D01*
Y1904D01*
X8870D01*
X8885Y1907D01*
X8945D01*
Y1765D01*
X9025D01*
X9105D01*
Y1904D01*
X11379D01*
X11399Y1908D01*
X11416Y1919D01*
X12025Y2529D01*
X12025Y2529D01*
X12037Y2546D01*
X12041Y2565D01*
X12041Y2565D01*
Y3835D01*
X12041Y3835D01*
X12037Y3855D01*
X12025Y3872D01*
X11695Y4202D01*
X11678Y4213D01*
X11659Y4217D01*
X11314D01*
X11313Y4218D01*
X11292Y4222D01*
X11162D01*
X11140Y4218D01*
X11122Y4206D01*
X11110Y4187D01*
X11105Y4166D01*
X11110Y4144D01*
X11122Y4126D01*
X11140Y4113D01*
X11162Y4109D01*
X11292D01*
X11313Y4113D01*
X11314Y4114D01*
X11637D01*
X11937Y3814D01*
Y2587D01*
X11358Y2008D01*
X9040D01*
X9025Y2011D01*
X8873D01*
X8858Y2008D01*
X8770D01*
X8755Y2011D01*
X8228D01*
X8222Y2022D01*
X8229Y2031D01*
X11303D01*
X11323Y2035D01*
X11340Y2046D01*
X11873Y2580D01*
X11873Y2580D01*
X11884Y2596D01*
X11888Y2616D01*
Y3785D01*
X11888Y3785D01*
X11884Y3804D01*
X11873Y3821D01*
X11873Y3821D01*
X11619Y4075D01*
X11602Y4086D01*
X11582Y4090D01*
X11314D01*
X11313Y4091D01*
X11292Y4095D01*
X11162D01*
X11140Y4091D01*
X11122Y4079D01*
X11110Y4060D01*
X11105Y4039D01*
X11110Y4017D01*
X11122Y3999D01*
X11140Y3986D01*
X11162Y3982D01*
X11292D01*
X11313Y3986D01*
X11314Y3987D01*
X11561D01*
X11575Y3973D01*
X11569Y3961D01*
X11557Y3963D01*
X11314D01*
X11313Y3964D01*
X11292Y3968D01*
X11162D01*
X11140Y3964D01*
X11122Y3952D01*
X11110Y3933D01*
X11105Y3912D01*
X11110Y3890D01*
X11122Y3872D01*
X11140Y3859D01*
X11162Y3855D01*
X11292D01*
X11313Y3859D01*
X11314Y3860D01*
X11536D01*
X11645Y3750D01*
Y3482D01*
X11634Y3476D01*
X11627Y3481D01*
X11606Y3490D01*
X11582Y3493D01*
X11559Y3490D01*
X11538Y3481D01*
X11519Y3467D01*
X11510Y3455D01*
X11314D01*
X11313Y3456D01*
X11292Y3460D01*
X11162D01*
X11140Y3456D01*
X11122Y3444D01*
X11110Y3425D01*
X11105Y3404D01*
X11110Y3382D01*
X11122Y3364D01*
X11140Y3351D01*
X11162Y3347D01*
X11292D01*
X11313Y3351D01*
X11314Y3352D01*
X11363D01*
X11365Y3346D01*
X11366Y3339D01*
X11358Y3328D01*
X11314D01*
X11313Y3329D01*
X11292Y3333D01*
X11162D01*
X11140Y3329D01*
X11122Y3317D01*
X11110Y3298D01*
X11105Y3277D01*
X11110Y3255D01*
X11122Y3237D01*
X11140Y3224D01*
X11162Y3220D01*
X11292D01*
X11313Y3224D01*
X11314Y3225D01*
X11358D01*
X11366Y3214D01*
X11365Y3208D01*
X11363Y3201D01*
X11314D01*
X11313Y3202D01*
X11292Y3206D01*
X11162D01*
X11140Y3202D01*
X11122Y3190D01*
X11110Y3171D01*
X11105Y3150D01*
X11110Y3128D01*
X11122Y3110D01*
X11140Y3097D01*
X11162Y3093D01*
X11292D01*
X11313Y3097D01*
X11314Y3098D01*
X11363D01*
X11365Y3092D01*
X11366Y3085D01*
X11358Y3074D01*
X11314D01*
X11313Y3075D01*
X11292Y3079D01*
X11162D01*
X11140Y3075D01*
X11122Y3063D01*
X11110Y3044D01*
X11105Y3023D01*
X11110Y3001D01*
X11122Y2983D01*
X11140Y2970D01*
X11162Y2966D01*
X11292D01*
X11313Y2970D01*
X11314Y2971D01*
X11358D01*
X11366Y2960D01*
X11365Y2954D01*
X11363Y2947D01*
X11314D01*
X11313Y2948D01*
X11292Y2952D01*
X11162D01*
X11140Y2948D01*
X11122Y2936D01*
X11110Y2917D01*
X11105Y2896D01*
X11110Y2874D01*
X11122Y2856D01*
X11140Y2843D01*
X11162Y2839D01*
X11292D01*
X11313Y2843D01*
X11314Y2844D01*
X11510D01*
X11519Y2832D01*
X11538Y2818D01*
X11559Y2809D01*
X11582Y2806D01*
X11606Y2809D01*
X11627Y2818D01*
X11634Y2823D01*
X11645Y2817D01*
Y2701D01*
X11205Y2262D01*
X8701D01*
X8700Y2274D01*
X8710Y2276D01*
X8732Y2285D01*
X8750Y2299D01*
X8764Y2317D01*
X8773Y2339D01*
X8776Y2362D01*
X8773Y2385D01*
X8764Y2407D01*
X8750Y2426D01*
X8732Y2440D01*
X8710Y2449D01*
X8687Y2452D01*
X8672Y2450D01*
X8383Y2739D01*
Y2823D01*
X8395Y2832D01*
X8409Y2851D01*
X8418Y2872D01*
X8421Y2896D01*
X8418Y2919D01*
X8409Y2940D01*
X8395Y2959D01*
X8376Y2973D01*
X8354Y2982D01*
X8331Y2985D01*
X8308Y2982D01*
X8286Y2973D01*
X8268Y2959D01*
X8254Y2940D01*
X8245Y2919D01*
X8242Y2896D01*
X8245Y2872D01*
X8254Y2851D01*
X8268Y2832D01*
X8279Y2823D01*
Y2718D01*
X8283Y2698D01*
X8295Y2681D01*
X8599Y2377D01*
X8597Y2362D01*
X8600Y2339D01*
X8609Y2317D01*
X8623Y2299D01*
X8642Y2285D01*
X8664Y2276D01*
X8673Y2274D01*
X8673Y2262D01*
X8472D01*
X8472Y2274D01*
X8481Y2276D01*
X8503Y2285D01*
X8522Y2299D01*
X8536Y2317D01*
X8545Y2339D01*
X8548Y2362D01*
X8545Y2385D01*
X8536Y2407D01*
X8522Y2426D01*
X8503Y2440D01*
X8481Y2449D01*
X8458Y2452D01*
X8444Y2450D01*
X8180Y2714D01*
Y2823D01*
X8191Y2832D01*
X8206Y2851D01*
X8215Y2872D01*
X8218Y2896D01*
X8215Y2919D01*
X8206Y2940D01*
X8191Y2959D01*
X8173Y2973D01*
X8151Y2982D01*
X8128Y2985D01*
X8105Y2982D01*
X8083Y2973D01*
X8065Y2959D01*
X8050Y2940D01*
X8041Y2919D01*
X8038Y2896D01*
X8041Y2872D01*
X8050Y2851D01*
X8065Y2832D01*
X8076Y2823D01*
Y2692D01*
X8080Y2673D01*
X8091Y2656D01*
X8289Y2458D01*
X8282Y2447D01*
X8278Y2449D01*
X8255Y2452D01*
X8240Y2450D01*
X7977Y2714D01*
Y2823D01*
X7988Y2832D01*
X8002Y2851D01*
X8011Y2872D01*
X8014Y2896D01*
X8011Y2919D01*
X8002Y2940D01*
X7988Y2959D01*
X7970Y2973D01*
X7948Y2982D01*
X7925Y2985D01*
X7902Y2982D01*
X7898Y2981D01*
X7891Y2991D01*
X7921Y3022D01*
X8818D01*
X8955Y2884D01*
X8972Y2873D01*
X8992Y2869D01*
X9449D01*
X9469Y2873D01*
X9485Y2884D01*
X9881Y3280D01*
X9893Y3274D01*
X9896Y3253D01*
X9905Y3232D01*
X9919Y3213D01*
X9937Y3199D01*
X9948Y3195D01*
Y3181D01*
X9937Y3176D01*
X9919Y3162D01*
X9905Y3144D01*
X9896Y3122D01*
X9893Y3099D01*
X9896Y3076D01*
X9905Y3054D01*
X9919Y3035D01*
X9937Y3021D01*
X9948Y3017D01*
Y3003D01*
X9937Y2999D01*
X9919Y2984D01*
X9905Y2966D01*
X9896Y2944D01*
X9893Y2921D01*
X9896Y2898D01*
X9905Y2876D01*
X9919Y2858D01*
X9937Y2843D01*
X9959Y2834D01*
X9982Y2831D01*
X10005Y2834D01*
X10027Y2843D01*
X10046Y2858D01*
X10060Y2876D01*
X10061Y2878D01*
X10070Y2884D01*
X10156Y2971D01*
X10190D01*
X10190Y2970D01*
X10212Y2966D01*
X10342D01*
X10363Y2970D01*
X10382Y2983D01*
X10394Y3001D01*
X10398Y3023D01*
X10394Y3044D01*
X10382Y3063D01*
X10363Y3075D01*
X10342Y3079D01*
X10212D01*
X10190Y3075D01*
X10190Y3074D01*
X10135D01*
X10115Y3070D01*
X10098Y3059D01*
X10033Y2994D01*
X10027Y2999D01*
X10016Y3003D01*
Y3017D01*
X10027Y3021D01*
X10046Y3035D01*
X10060Y3054D01*
X10069Y3076D01*
X10071Y3088D01*
X10080Y3098D01*
X10190D01*
X10190Y3097D01*
X10212Y3093D01*
X10342D01*
X10363Y3097D01*
X10382Y3110D01*
X10394Y3128D01*
X10398Y3150D01*
X10394Y3171D01*
X10382Y3190D01*
X10363Y3202D01*
X10342Y3206D01*
X10212D01*
X10190Y3202D01*
X10190Y3201D01*
X10058D01*
X10049Y3199D01*
X10043Y3211D01*
X10046Y3213D01*
X10055Y3225D01*
X10190D01*
X10190Y3224D01*
X10212Y3220D01*
X10342D01*
X10363Y3224D01*
X10382Y3237D01*
X10394Y3255D01*
X10398Y3277D01*
X10394Y3298D01*
X10382Y3317D01*
X10363Y3329D01*
X10342Y3333D01*
X10212D01*
X10190Y3329D01*
X10190Y3328D01*
X10055D01*
X10046Y3339D01*
X10047Y3346D01*
X10050Y3352D01*
X10190D01*
X10190Y3351D01*
X10212Y3347D01*
X10342D01*
X10363Y3351D01*
X10382Y3364D01*
X10394Y3382D01*
X10398Y3404D01*
X10394Y3425D01*
X10382Y3444D01*
X10363Y3456D01*
X10342Y3460D01*
X10212D01*
X10190Y3456D01*
X10190Y3455D01*
X9931D01*
X9912Y3451D01*
X9895Y3440D01*
X9455Y3001D01*
X9443Y3005D01*
Y3292D01*
X9415D01*
Y3348D01*
X9514D01*
Y3459D01*
X9263D01*
Y3348D01*
X9311D01*
Y3292D01*
X9283D01*
Y2982D01*
X9274Y2973D01*
X9182D01*
X9173Y2982D01*
Y3292D01*
X9013D01*
Y3252D01*
X7849D01*
X7829Y3248D01*
X7812Y3237D01*
X7342Y2767D01*
X7243D01*
X7235Y2779D01*
X7235Y2782D01*
X7136D01*
X7037D01*
X7039Y2774D01*
X7045Y2765D01*
X7050Y2755D01*
X7045Y2745D01*
X7039Y2736D01*
X7035Y2715D01*
X7039Y2694D01*
X7051Y2677D01*
Y2673D01*
X7039Y2656D01*
X7035Y2635D01*
X7039Y2614D01*
X7045Y2605D01*
X7050Y2595D01*
X7045Y2585D01*
X7039Y2576D01*
X7035Y2555D01*
X7039Y2534D01*
X7051Y2517D01*
Y2513D01*
X7039Y2496D01*
X7035Y2475D01*
X7039Y2454D01*
X7051Y2437D01*
Y2433D01*
X7039Y2416D01*
X7035Y2395D01*
X7039Y2374D01*
X7051Y2357D01*
X7068Y2345D01*
X7089Y2341D01*
X7184D01*
X7187Y2329D01*
Y2308D01*
X7176Y2299D01*
X7161Y2280D01*
X7156Y2267D01*
X7141Y2265D01*
X7135Y2273D01*
X7116Y2287D01*
X7095Y2296D01*
X7071Y2299D01*
X7048Y2296D01*
X7026Y2287D01*
X7023Y2285D01*
X7009Y2290D01*
X6999Y2306D01*
X6982Y2317D01*
X6961Y2321D01*
X6941Y2317D01*
X6923Y2306D01*
X6919D01*
X6902Y2317D01*
X6881Y2321D01*
X6861Y2317D01*
X6843Y2306D01*
X6839D01*
X6822Y2317D01*
X6801Y2321D01*
X6781Y2317D01*
X6763Y2306D01*
X6759D01*
X6742Y2317D01*
X6721Y2321D01*
X6701Y2317D01*
X6683Y2306D01*
X6679D01*
X6662Y2317D01*
X6641Y2321D01*
X6626Y2318D01*
X6613Y2326D01*
Y2781D01*
X6678Y2845D01*
X6689Y2862D01*
X6693Y2882D01*
Y3264D01*
X6706Y3272D01*
X6721Y3268D01*
X6742Y3273D01*
X6759Y3284D01*
X6763D01*
X6781Y3273D01*
X6801Y3268D01*
X6822Y3273D01*
X6839Y3284D01*
X6843D01*
X6861Y3273D01*
X6881Y3268D01*
X6902Y3273D01*
X6919Y3284D01*
X6923D01*
X6941Y3273D01*
X6961Y3268D01*
X6982Y3273D01*
X6999Y3284D01*
X7011Y3302D01*
X7014Y3318D01*
X7028D01*
X7047Y3322D01*
X7064Y3333D01*
X7718Y3987D01*
X8061D01*
X8063Y3981D01*
X8064Y3974D01*
X8056Y3963D01*
X7772D01*
X7753Y3959D01*
X7736Y3948D01*
X7100Y3312D01*
X7088Y3295D01*
X7084Y3275D01*
Y3248D01*
X7068Y3245D01*
X7051Y3233D01*
X7039Y3216D01*
X7035Y3195D01*
X7039Y3174D01*
X7051Y3157D01*
Y3153D01*
X7039Y3136D01*
X7035Y3115D01*
X7039Y3094D01*
X7051Y3077D01*
Y3073D01*
X7039Y3056D01*
X7035Y3035D01*
X7039Y3014D01*
X7045Y3005D01*
X7050Y2995D01*
X7045Y2985D01*
X7039Y2976D01*
X7035Y2955D01*
X7039Y2934D01*
X7051Y2917D01*
Y2913D01*
X7039Y2896D01*
X7035Y2875D01*
X7039Y2854D01*
X7051Y2837D01*
Y2833D01*
X7039Y2816D01*
X7037Y2808D01*
X7136D01*
X7235D01*
X7234Y2816D01*
X7222Y2833D01*
Y2837D01*
X7234Y2854D01*
X7238Y2875D01*
X7235Y2890D01*
X7243Y2903D01*
X7425D01*
X7445Y2907D01*
X7462Y2918D01*
X7967Y3423D01*
X7978Y3419D01*
X8001Y3416D01*
X8024Y3419D01*
X8046Y3428D01*
X8064Y3442D01*
X8079Y3460D01*
X8086Y3479D01*
X8333D01*
Y3475D01*
X8584D01*
Y3586D01*
X8333D01*
Y3582D01*
X8195D01*
X8193Y3589D01*
X8192Y3595D01*
X8200Y3606D01*
X8333D01*
Y3602D01*
X8584D01*
Y3713D01*
X8334D01*
X8328Y3718D01*
X8326Y3723D01*
X8333Y3729D01*
X8333Y3729D01*
X8584D01*
Y3840D01*
X8333D01*
X8333Y3840D01*
Y3840D01*
X8326Y3846D01*
X8328Y3851D01*
X8334Y3856D01*
X8584D01*
Y3967D01*
X8334D01*
X8328Y3972D01*
X8326Y3977D01*
X8333Y3983D01*
X8333Y3983D01*
X8584D01*
Y4094D01*
X8333D01*
X8333Y4094D01*
Y4094D01*
X8326Y4100D01*
X8328Y4105D01*
X8334Y4110D01*
X8584D01*
Y4221D01*
X8334D01*
X8328Y4226D01*
X8326Y4231D01*
X8333Y4237D01*
X8333Y4237D01*
X8584D01*
Y4348D01*
X8333D01*
X8333Y4348D01*
Y4348D01*
X8326Y4354D01*
X8328Y4359D01*
X8334Y4364D01*
X8584D01*
Y4475D01*
X8333D01*
Y4471D01*
X8200D01*
X8191Y4483D01*
X8173Y4497D01*
X8151Y4506D01*
X8128Y4509D01*
X8105Y4506D01*
X8083Y4497D01*
X8065Y4483D01*
X8056Y4471D01*
X7468D01*
X7448Y4467D01*
X7431Y4456D01*
X6705Y3730D01*
X6693Y3735D01*
Y3747D01*
X6689Y3767D01*
X6678Y3784D01*
X6580Y3882D01*
Y3959D01*
X6616D01*
Y4122D01*
X7497Y5003D01*
X9199D01*
X9308Y4894D01*
Y4658D01*
X9337D01*
Y4602D01*
X9263D01*
Y4491D01*
X9514D01*
Y4602D01*
X9440D01*
Y4658D01*
X9469D01*
Y4762D01*
X10147D01*
X10167Y4765D01*
X10184Y4777D01*
X10399Y4992D01*
X10414Y4990D01*
X10437Y4993D01*
X10459Y5002D01*
X10477Y5017D01*
X10492Y5035D01*
X10501Y5057D01*
X10504Y5080D01*
X10501Y5103D01*
X10499Y5107D01*
X10510Y5114D01*
X10540Y5084D01*
Y4140D01*
X10544Y4120D01*
X10555Y4104D01*
X10861Y3797D01*
X10530Y3466D01*
X10519Y3449D01*
X10515Y3429D01*
Y2689D01*
X10503Y2680D01*
X10489Y2661D01*
X10480Y2639D01*
X10477Y2616D01*
X10480Y2593D01*
X10489Y2571D01*
X10503Y2553D01*
X10522Y2539D01*
X10543Y2530D01*
X10566Y2527D01*
X10590Y2530D01*
X10611Y2539D01*
X10630Y2553D01*
X10644Y2571D01*
X10653Y2593D01*
X10656Y2616D01*
X10653Y2639D01*
X10644Y2661D01*
X10630Y2680D01*
X10618Y2689D01*
Y3408D01*
X10943Y3733D01*
X11140D01*
X11140Y3732D01*
X11162Y3728D01*
X11292D01*
X11313Y3732D01*
X11332Y3745D01*
X11344Y3763D01*
X11348Y3785D01*
X11344Y3806D01*
X11332Y3825D01*
X11313Y3837D01*
X11292Y3841D01*
X11162D01*
X11140Y3837D01*
X11140Y3836D01*
X10969D01*
X10644Y4162D01*
Y5105D01*
X10640Y5125D01*
X10628Y5142D01*
X10400Y5371D01*
X10383Y5382D01*
X10363Y5386D01*
X9902D01*
X9755Y5533D01*
Y5901D01*
X9757Y5905D01*
X9760Y5917D01*
X9773D01*
X9775Y5905D01*
X9778Y5901D01*
Y5867D01*
X9782Y5848D01*
X9793Y5831D01*
X9869Y5755D01*
X9886Y5743D01*
X9906Y5739D01*
X10415D01*
Y5691D01*
X10616D01*
Y5892D01*
X10415D01*
Y5843D01*
X9927D01*
X9882Y5889D01*
Y5901D01*
X9884Y5905D01*
X9889Y5927D01*
Y6108D01*
X9893Y6115D01*
X9900Y6120D01*
X10081D01*
X10104Y6124D01*
X10108Y6127D01*
X10183D01*
X10301Y6009D01*
X10318Y5997D01*
X10338Y5993D01*
X10429D01*
X10444Y5974D01*
X10465Y5958D01*
X10489Y5947D01*
X10516Y5944D01*
X10542Y5947D01*
X10566Y5958D01*
X10587Y5974D01*
X10603Y5995D01*
X10613Y6019D01*
X10617Y6045D01*
X10613Y6071D01*
X10603Y6096D01*
X10587Y6117D01*
X10566Y6133D01*
X10542Y6143D01*
X10516Y6146D01*
X10489Y6143D01*
X10465Y6133D01*
X10444Y6117D01*
X10429Y6097D01*
X10359D01*
X10241Y6215D01*
X10224Y6227D01*
X10204Y6231D01*
X10108D01*
X10104Y6233D01*
X10091Y6236D01*
Y6249D01*
X10104Y6251D01*
X10108Y6254D01*
X10426D01*
X10428Y6249D01*
X10444Y6228D01*
X10465Y6212D01*
X10489Y6201D01*
X10516Y6198D01*
X10542Y6201D01*
X10566Y6212D01*
X10587Y6228D01*
X10603Y6249D01*
X10613Y6273D01*
X10617Y6299D01*
X10613Y6325D01*
X10603Y6350D01*
X10587Y6371D01*
X10566Y6387D01*
X10542Y6397D01*
X10516Y6400D01*
X10489Y6397D01*
X10465Y6387D01*
X10444Y6371D01*
X10434Y6358D01*
X10108D01*
X10104Y6360D01*
X10091Y6363D01*
Y6376D01*
X10104Y6378D01*
X10108Y6381D01*
X10192D01*
X10212Y6385D01*
X10229Y6396D01*
X10334Y6501D01*
X10429D01*
X10444Y6482D01*
X10465Y6466D01*
X10489Y6455D01*
X10516Y6452D01*
X10542Y6455D01*
X10566Y6466D01*
X10587Y6482D01*
X10603Y6503D01*
X10613Y6527D01*
X10617Y6553D01*
X10613Y6579D01*
X10603Y6604D01*
X10587Y6625D01*
X10566Y6641D01*
X10542Y6651D01*
X10516Y6654D01*
X10489Y6651D01*
X10465Y6641D01*
X10444Y6625D01*
X10429Y6605D01*
X10312D01*
X10293Y6601D01*
X10276Y6590D01*
X10171Y6485D01*
X10108D01*
X10104Y6487D01*
X10091Y6490D01*
Y6503D01*
X10104Y6505D01*
X10123Y6518D01*
X10136Y6537D01*
X10140Y6560D01*
X10136Y6582D01*
X10123Y6602D01*
X10104Y6614D01*
X10091Y6617D01*
Y6630D01*
X10104Y6632D01*
X10123Y6645D01*
X10136Y6664D01*
X10140Y6687D01*
X10136Y6709D01*
X10123Y6729D01*
X10104Y6741D01*
X10091Y6744D01*
Y6757D01*
X10104Y6759D01*
X10123Y6772D01*
X10136Y6791D01*
X10140Y6814D01*
X10136Y6836D01*
X10123Y6856D01*
X10104Y6868D01*
X10091Y6871D01*
Y6884D01*
X10104Y6886D01*
X10123Y6899D01*
X10136Y6918D01*
X10140Y6941D01*
X10136Y6963D01*
X10123Y6983D01*
X10104Y6995D01*
X10081Y7000D01*
X9900D01*
X9893Y7004D01*
X9889Y7011D01*
Y7192D01*
X9884Y7215D01*
X9872Y7234D01*
X9852Y7247D01*
X9839Y7249D01*
X9838Y7252D01*
X9837Y7263D01*
X9838Y7263D01*
X10266D01*
X10464Y7065D01*
Y6894D01*
X10444Y6879D01*
X10428Y6858D01*
X10418Y6833D01*
X10414Y6807D01*
X10418Y6781D01*
X10428Y6757D01*
X10444Y6736D01*
X10465Y6720D01*
X10489Y6709D01*
X10516Y6706D01*
X10542Y6709D01*
X10566Y6720D01*
X10587Y6736D01*
X10603Y6757D01*
X10613Y6781D01*
X10617Y6807D01*
X10613Y6833D01*
X10603Y6858D01*
X10587Y6879D01*
X10567Y6894D01*
Y7087D01*
X10563Y7106D01*
X10552Y7123D01*
X10324Y7352D01*
X10307Y7363D01*
X10287Y7367D01*
X9754D01*
X9734Y7363D01*
X9717Y7352D01*
X9677Y7312D01*
X9664Y7317D01*
Y7579D01*
X9503D01*
Y7268D01*
X9524D01*
Y7219D01*
X9521Y7215D01*
X9519Y7202D01*
X9506D01*
X9503Y7215D01*
X9491Y7234D01*
X9471Y7247D01*
X9449Y7251D01*
X9426Y7247D01*
X9407Y7234D01*
X9394Y7215D01*
X9392Y7202D01*
X9379D01*
X9376Y7215D01*
X9364Y7234D01*
X9344Y7247D01*
X9335Y7249D01*
Y7100D01*
Y6951D01*
X9344Y6953D01*
X9364Y6966D01*
X9376Y6985D01*
X9379Y6997D01*
X9392D01*
X9394Y6985D01*
X9407Y6966D01*
X9426Y6953D01*
X9449Y6948D01*
X9471Y6953D01*
X9491Y6966D01*
X9503Y6985D01*
X9506Y6997D01*
X9519D01*
X9521Y6985D01*
X9524Y6981D01*
Y6139D01*
X9521Y6135D01*
X9519Y6122D01*
X9506D01*
X9503Y6135D01*
X9491Y6154D01*
X9471Y6167D01*
X9449Y6171D01*
X9426Y6167D01*
X9407Y6154D01*
X9394Y6135D01*
X9392Y6122D01*
X9379D01*
X9376Y6135D01*
X9364Y6154D01*
X9344Y6167D01*
X9322Y6171D01*
X9299Y6167D01*
X9280Y6154D01*
X9267Y6135D01*
X9265Y6122D01*
X9252D01*
X9249Y6135D01*
X9237Y6154D01*
X9217Y6167D01*
X9195Y6171D01*
X9172Y6167D01*
X9153Y6154D01*
X9140Y6135D01*
X9138Y6122D01*
X9125D01*
X9122Y6135D01*
X9110Y6154D01*
X9090Y6167D01*
X9068Y6171D01*
X9060Y6183D01*
X9056Y6201D01*
X9043Y6221D01*
X9024Y6233D01*
X9011Y6236D01*
Y6249D01*
X9024Y6251D01*
X9043Y6264D01*
X9056Y6283D01*
X9060Y6306D01*
X9056Y6328D01*
X9043Y6348D01*
X9024Y6360D01*
X9011Y6363D01*
Y6376D01*
X9024Y6378D01*
X9043Y6391D01*
X9056Y6410D01*
X9060Y6433D01*
X9056Y6455D01*
X9043Y6475D01*
X9024Y6487D01*
X9011Y6490D01*
Y6503D01*
X9024Y6505D01*
X9043Y6518D01*
X9056Y6537D01*
X9060Y6560D01*
X9056Y6582D01*
X9043Y6602D01*
X9024Y6614D01*
X9011Y6617D01*
Y6630D01*
X9024Y6632D01*
X9043Y6645D01*
X9056Y6664D01*
X9060Y6687D01*
X9056Y6709D01*
X9043Y6729D01*
X9024Y6741D01*
X9011Y6744D01*
Y6757D01*
X9024Y6759D01*
X9043Y6772D01*
X9056Y6791D01*
X9060Y6814D01*
X9056Y6836D01*
X9043Y6856D01*
X9024Y6868D01*
X9011Y6871D01*
Y6884D01*
X9024Y6886D01*
X9043Y6899D01*
X9056Y6918D01*
X9060Y6941D01*
X9068Y6948D01*
X9090Y6953D01*
X9110Y6966D01*
X9122Y6985D01*
X9125Y6997D01*
X9138D01*
X9140Y6985D01*
X9153Y6966D01*
X9172Y6953D01*
X9195Y6948D01*
X9217Y6953D01*
X9237Y6966D01*
X9249Y6985D01*
X9252Y6997D01*
X9265D01*
X9267Y6985D01*
X9280Y6966D01*
X9299Y6953D01*
X9309Y6951D01*
Y7100D01*
Y7249D01*
X9299Y7247D01*
X9280Y7234D01*
X9267Y7215D01*
X9265Y7202D01*
X9252D01*
X9249Y7215D01*
X9247Y7219D01*
Y7239D01*
X9243Y7255D01*
X9251Y7268D01*
X9301D01*
Y7411D01*
X9233D01*
Y7292D01*
X9221Y7286D01*
X9175Y7332D01*
X9180Y7343D01*
X9183Y7366D01*
X9180Y7389D01*
X9171Y7411D01*
X9157Y7429D01*
X9145Y7438D01*
Y7497D01*
X9221Y7573D01*
X9233Y7567D01*
Y7436D01*
X9301D01*
Y7579D01*
X9245D01*
X9240Y7592D01*
X9343Y7695D01*
X9525D01*
X9545Y7699D01*
X9562Y7710D01*
X9841Y7990D01*
X9852Y8007D01*
X9856Y8026D01*
Y8067D01*
X9876Y8082D01*
X9892Y8103D01*
X9902Y8127D01*
X9906Y8153D01*
X9902Y8180D01*
X9892Y8204D01*
X9876Y8225D01*
X9855Y8241D01*
X9831Y8251D01*
X9804Y8255D01*
D02*
G37*
G36*
X9394Y7411D02*
X9326D01*
Y7268D01*
X9394D01*
Y7411D01*
D02*
G37*
G36*
X6964Y7834D02*
X6853D01*
Y7583D01*
X6856D01*
Y7539D01*
X6735Y7418D01*
X6448D01*
X6325Y7541D01*
Y7583D01*
X6329D01*
Y7834D01*
X6218D01*
Y7583D01*
X6221D01*
Y7519D01*
X6224Y7507D01*
X6212Y7501D01*
X6198Y7515D01*
Y7583D01*
X6202D01*
Y7834D01*
X6091D01*
Y7583D01*
X6094D01*
Y7494D01*
X6098Y7474D01*
X6110Y7457D01*
X6517Y7050D01*
X6533Y7039D01*
X6553Y7035D01*
X6553Y7035D01*
X6786D01*
X6856Y6964D01*
Y6904D01*
X6853D01*
Y6653D01*
X6964D01*
Y6904D01*
X6960D01*
Y6986D01*
X6956Y7005D01*
X6945Y7022D01*
X6945Y7022D01*
X6844Y7123D01*
X6827Y7134D01*
X6807Y7138D01*
X6575D01*
X6408Y7305D01*
X6414Y7317D01*
X6426Y7314D01*
X6756D01*
X6776Y7318D01*
X6793Y7329D01*
X6945Y7481D01*
X6956Y7498D01*
X6960Y7518D01*
Y7583D01*
X6964D01*
Y7834D01*
D02*
G37*
G36*
X10158Y8141D02*
X10071D01*
Y8054D01*
X10085Y8056D01*
X10109Y8066D01*
X10130Y8082D01*
X10146Y8103D01*
X10156Y8127D01*
X10158Y8141D01*
D02*
G37*
G36*
X10046Y8253D02*
X10032Y8251D01*
X10008Y8241D01*
X9987Y8225D01*
X9971Y8204D01*
X9961Y8180D01*
X9959Y8166D01*
X10046D01*
Y8253D01*
D02*
G37*
G36*
X10071D02*
Y8166D01*
X10158D01*
X10156Y8180D01*
X10146Y8204D01*
X10130Y8225D01*
X10109Y8241D01*
X10085Y8251D01*
X10071Y8253D01*
D02*
G37*
G36*
X7772Y8255D02*
X7746Y8251D01*
X7722Y8241D01*
X7701Y8225D01*
X7685Y8204D01*
X7675Y8180D01*
X7671Y8153D01*
X7675Y8127D01*
X7685Y8103D01*
X7701Y8082D01*
X7722Y8066D01*
X7746Y8056D01*
X7772Y8052D01*
X7799Y8056D01*
X7823Y8066D01*
X7844Y8082D01*
X7860Y8103D01*
X7870Y8127D01*
X7874Y8153D01*
X7870Y8180D01*
X7860Y8204D01*
X7844Y8225D01*
X7823Y8241D01*
X7799Y8251D01*
X7772Y8255D01*
D02*
G37*
G36*
X7365Y8254D02*
X7164D01*
Y8053D01*
X7365D01*
Y8254D01*
D02*
G37*
G36*
X10046Y8141D02*
X9959D01*
X9961Y8127D01*
X9971Y8103D01*
X9987Y8082D01*
X10008Y8066D01*
X10032Y8056D01*
X10046Y8054D01*
Y8141D01*
D02*
G37*
G36*
X4479Y7375D02*
X4451Y7371D01*
X4424Y7360D01*
X4401Y7343D01*
X4383Y7320D01*
X4372Y7293D01*
X4368Y7264D01*
X4372Y7236D01*
X4383Y7209D01*
X4401Y7186D01*
X4424Y7168D01*
X4451Y7157D01*
X4479Y7154D01*
X4508Y7157D01*
X4535Y7168D01*
X4558Y7186D01*
X4575Y7209D01*
X4586Y7236D01*
X4590Y7264D01*
X4586Y7293D01*
X4575Y7320D01*
X4558Y7343D01*
X4535Y7360D01*
X4508Y7371D01*
X4479Y7375D01*
D02*
G37*
G36*
X1994D02*
X1966Y7371D01*
X1939Y7360D01*
X1916Y7343D01*
X1898Y7320D01*
X1887Y7293D01*
X1884Y7264D01*
X1887Y7236D01*
X1898Y7209D01*
X1916Y7186D01*
X1939Y7168D01*
X1966Y7157D01*
X1994Y7154D01*
X2023Y7157D01*
X2050Y7168D01*
X2073Y7186D01*
X2090Y7209D01*
X2101Y7236D01*
X2105Y7264D01*
X2101Y7293D01*
X2090Y7320D01*
X2073Y7343D01*
X2050Y7360D01*
X2023Y7371D01*
X1994Y7375D01*
D02*
G37*
G36*
X2270D02*
X2242Y7371D01*
X2215Y7360D01*
X2192Y7343D01*
X2175Y7320D01*
X2163Y7293D01*
X2160Y7264D01*
X2163Y7236D01*
X2175Y7209D01*
X2192Y7186D01*
X2215Y7168D01*
X2242Y7157D01*
X2270Y7154D01*
X2299Y7157D01*
X2326Y7168D01*
X2349Y7186D01*
X2366Y7209D01*
X2378Y7236D01*
X2381Y7264D01*
X2378Y7293D01*
X2366Y7320D01*
X2349Y7343D01*
X2326Y7360D01*
X2299Y7371D01*
X2270Y7375D01*
D02*
G37*
G36*
X2547D02*
X2518Y7371D01*
X2491Y7360D01*
X2468Y7343D01*
X2451Y7320D01*
X2440Y7293D01*
X2436Y7264D01*
X2440Y7236D01*
X2451Y7209D01*
X2468Y7186D01*
X2491Y7168D01*
X2518Y7157D01*
X2547Y7154D01*
X2575Y7157D01*
X2602Y7168D01*
X2625Y7186D01*
X2643Y7209D01*
X2654Y7236D01*
X2657Y7264D01*
X2654Y7293D01*
X2643Y7320D01*
X2625Y7343D01*
X2602Y7360D01*
X2575Y7371D01*
X2547Y7375D01*
D02*
G37*
G36*
X5326Y7386D02*
Y7135D01*
X5577D01*
X5574Y7164D01*
X5565Y7204D01*
X5549Y7242D01*
X5527Y7278D01*
X5500Y7309D01*
X5469Y7336D01*
X5433Y7358D01*
X5395Y7374D01*
X5355Y7383D01*
X5326Y7386D01*
D02*
G37*
G36*
X1442Y7375D02*
X1414Y7371D01*
X1387Y7360D01*
X1364Y7343D01*
X1346Y7320D01*
X1335Y7293D01*
X1331Y7264D01*
X1335Y7236D01*
X1346Y7209D01*
X1364Y7186D01*
X1387Y7168D01*
X1414Y7157D01*
X1442Y7154D01*
X1471Y7157D01*
X1498Y7168D01*
X1521Y7186D01*
X1538Y7209D01*
X1549Y7236D01*
X1553Y7264D01*
X1549Y7293D01*
X1538Y7320D01*
X1521Y7343D01*
X1498Y7360D01*
X1471Y7371D01*
X1442Y7375D01*
D02*
G37*
G36*
X1718D02*
X1690Y7371D01*
X1663Y7360D01*
X1640Y7343D01*
X1622Y7320D01*
X1611Y7293D01*
X1607Y7264D01*
X1611Y7236D01*
X1622Y7209D01*
X1640Y7186D01*
X1663Y7168D01*
X1690Y7157D01*
X1718Y7154D01*
X1747Y7157D01*
X1774Y7168D01*
X1797Y7186D01*
X1814Y7209D01*
X1825Y7236D01*
X1829Y7264D01*
X1825Y7293D01*
X1814Y7320D01*
X1797Y7343D01*
X1774Y7360D01*
X1747Y7371D01*
X1718Y7375D01*
D02*
G37*
G36*
X3651D02*
X3622Y7371D01*
X3596Y7360D01*
X3573Y7343D01*
X3555Y7320D01*
X3544Y7293D01*
X3540Y7264D01*
X3544Y7236D01*
X3555Y7209D01*
X3573Y7186D01*
X3596Y7168D01*
X3622Y7157D01*
X3651Y7154D01*
X3680Y7157D01*
X3706Y7168D01*
X3729Y7186D01*
X3747Y7209D01*
X3758Y7236D01*
X3762Y7264D01*
X3758Y7293D01*
X3747Y7320D01*
X3729Y7343D01*
X3706Y7360D01*
X3680Y7371D01*
X3651Y7375D01*
D02*
G37*
G36*
X3927D02*
X3898Y7371D01*
X3872Y7360D01*
X3849Y7343D01*
X3831Y7320D01*
X3820Y7293D01*
X3816Y7264D01*
X3820Y7236D01*
X3831Y7209D01*
X3849Y7186D01*
X3872Y7168D01*
X3898Y7157D01*
X3927Y7154D01*
X3956Y7157D01*
X3983Y7168D01*
X4005Y7186D01*
X4023Y7209D01*
X4034Y7236D01*
X4038Y7264D01*
X4034Y7293D01*
X4023Y7320D01*
X4005Y7343D01*
X3983Y7360D01*
X3956Y7371D01*
X3927Y7375D01*
D02*
G37*
G36*
X4203D02*
X4175Y7371D01*
X4148Y7360D01*
X4125Y7343D01*
X4107Y7320D01*
X4096Y7293D01*
X4092Y7264D01*
X4096Y7236D01*
X4107Y7209D01*
X4125Y7186D01*
X4148Y7168D01*
X4175Y7157D01*
X4203Y7154D01*
X4232Y7157D01*
X4259Y7168D01*
X4282Y7186D01*
X4299Y7209D01*
X4310Y7236D01*
X4314Y7264D01*
X4310Y7293D01*
X4299Y7320D01*
X4282Y7343D01*
X4259Y7360D01*
X4232Y7371D01*
X4203Y7375D01*
D02*
G37*
G36*
X2823D02*
X2794Y7371D01*
X2767Y7360D01*
X2744Y7343D01*
X2727Y7320D01*
X2716Y7293D01*
X2712Y7264D01*
X2716Y7236D01*
X2727Y7209D01*
X2744Y7186D01*
X2767Y7168D01*
X2794Y7157D01*
X2823Y7154D01*
X2851Y7157D01*
X2878Y7168D01*
X2901Y7186D01*
X2919Y7209D01*
X2930Y7236D01*
X2934Y7264D01*
X2930Y7293D01*
X2919Y7320D01*
X2901Y7343D01*
X2878Y7360D01*
X2851Y7371D01*
X2823Y7375D01*
D02*
G37*
G36*
X3099D02*
X3070Y7371D01*
X3043Y7360D01*
X3020Y7343D01*
X3003Y7320D01*
X2992Y7293D01*
X2988Y7264D01*
X2992Y7236D01*
X3003Y7209D01*
X3020Y7186D01*
X3043Y7168D01*
X3070Y7157D01*
X3099Y7154D01*
X3127Y7157D01*
X3154Y7168D01*
X3177Y7186D01*
X3195Y7209D01*
X3206Y7236D01*
X3210Y7264D01*
X3206Y7293D01*
X3195Y7320D01*
X3177Y7343D01*
X3154Y7360D01*
X3127Y7371D01*
X3099Y7375D01*
D02*
G37*
G36*
X3375D02*
X3346Y7371D01*
X3319Y7360D01*
X3297Y7343D01*
X3279Y7320D01*
X3268Y7293D01*
X3264Y7264D01*
X3268Y7236D01*
X3279Y7209D01*
X3297Y7186D01*
X3319Y7168D01*
X3346Y7157D01*
X3375Y7154D01*
X3404Y7157D01*
X3430Y7168D01*
X3453Y7186D01*
X3471Y7209D01*
X3482Y7236D01*
X3486Y7264D01*
X3482Y7293D01*
X3471Y7320D01*
X3453Y7343D01*
X3430Y7360D01*
X3404Y7371D01*
X3375Y7375D01*
D02*
G37*
G36*
X8584Y4534D02*
X8471D01*
Y4491D01*
X8584D01*
Y4534D01*
D02*
G37*
G36*
X3946Y5561D02*
X3695D01*
Y5310D01*
X3769D01*
Y5137D01*
X3136Y4505D01*
X2314D01*
Y4533D01*
X2211D01*
Y4775D01*
X2211Y4775D01*
X2207Y4795D01*
X2196Y4812D01*
X1652Y5355D01*
Y5373D01*
X1756D01*
Y5533D01*
X1445D01*
Y5373D01*
X1548D01*
Y5334D01*
X1552Y5314D01*
X1564Y5297D01*
X2107Y4754D01*
Y4533D01*
X2004D01*
Y4472D01*
X1986Y4455D01*
X1973Y4460D01*
X1973Y4463D01*
X1973D01*
X1973Y4463D01*
Y4564D01*
X1944D01*
Y4601D01*
X1956Y4610D01*
X1970Y4629D01*
X1979Y4650D01*
X1982Y4674D01*
X1979Y4697D01*
X1970Y4718D01*
X1956Y4737D01*
X1937Y4751D01*
X1915Y4760D01*
X1892Y4763D01*
X1869Y4760D01*
X1847Y4751D01*
X1829Y4737D01*
X1815Y4718D01*
X1806Y4697D01*
X1803Y4674D01*
X1806Y4650D01*
X1815Y4629D01*
X1829Y4610D01*
X1840Y4601D01*
Y4564D01*
X1767D01*
Y4453D01*
X1955D01*
X1962Y4440D01*
X1959Y4437D01*
X1767D01*
Y4326D01*
X1973D01*
Y4330D01*
X1986D01*
X2006Y4334D01*
X2023Y4345D01*
X2050Y4373D01*
X2234D01*
X2324Y4283D01*
X2323Y4270D01*
X2316Y4265D01*
X2311Y4263D01*
X2172D01*
Y4196D01*
X2314D01*
Y4241D01*
X2326Y4244D01*
X2335Y4222D01*
X2350Y4204D01*
X2368Y4190D01*
X2390Y4181D01*
X2413Y4178D01*
X2436Y4181D01*
X2458Y4190D01*
X2476Y4204D01*
X2491Y4222D01*
X2500Y4244D01*
X2503Y4267D01*
X2500Y4290D01*
X2491Y4312D01*
X2476Y4331D01*
X2458Y4345D01*
X2436Y4354D01*
X2413Y4357D01*
X2398Y4355D01*
X2364Y4389D01*
X2369Y4401D01*
X3158D01*
X3177Y4405D01*
X3194Y4416D01*
X3823Y5045D01*
X3940Y4928D01*
X3850Y4837D01*
X3838Y4820D01*
X3834Y4801D01*
Y4677D01*
X3814D01*
Y4366D01*
X3834D01*
Y4323D01*
X3761D01*
Y4212D01*
X4010D01*
Y4196D01*
X3761D01*
Y4085D01*
X4012D01*
Y4088D01*
X4072D01*
X4092Y4092D01*
X4109Y4104D01*
X4158Y4153D01*
X4321D01*
Y4314D01*
X4012D01*
Y4323D01*
X3938D01*
Y4366D01*
X3975D01*
Y4677D01*
X3938D01*
Y4779D01*
X4014Y4855D01*
X4321D01*
Y5016D01*
X4010D01*
Y5016D01*
X4002Y5012D01*
X3872Y5142D01*
Y5310D01*
X3946D01*
Y5561D01*
D02*
G37*
G36*
X3612Y4677D02*
X3544D01*
Y4534D01*
X3612D01*
Y4677D01*
D02*
G37*
G36*
X10342Y4603D02*
X10212D01*
X10190Y4599D01*
X10172Y4587D01*
X10160Y4568D01*
X10155Y4547D01*
X10160Y4525D01*
X10172Y4507D01*
X10190Y4494D01*
X10212Y4490D01*
X10342D01*
X10363Y4494D01*
X10382Y4507D01*
X10394Y4525D01*
X10398Y4547D01*
X10394Y4568D01*
X10382Y4587D01*
X10363Y4599D01*
X10342Y4603D01*
D02*
G37*
G36*
X11227Y5195D02*
X11204Y5192D01*
X11182Y5183D01*
X11163Y5169D01*
X11149Y5150D01*
X11140Y5129D01*
X11137Y5105D01*
X11140Y5082D01*
X11149Y5061D01*
X11163Y5042D01*
X11175Y5033D01*
Y4969D01*
X11137D01*
Y4658D01*
X11175D01*
Y4603D01*
X11162D01*
X11140Y4599D01*
X11140Y4598D01*
X11069D01*
X11050Y4594D01*
X11033Y4583D01*
X10995Y4545D01*
X10984Y4528D01*
X10980Y4508D01*
Y4331D01*
X10984Y4311D01*
X10995Y4294D01*
X11033Y4256D01*
X11050Y4245D01*
X11069Y4241D01*
X11140D01*
X11140Y4240D01*
X11162Y4236D01*
X11292D01*
X11313Y4240D01*
X11332Y4253D01*
X11344Y4271D01*
X11348Y4293D01*
X11344Y4314D01*
X11332Y4333D01*
X11313Y4345D01*
X11292Y4349D01*
X11162D01*
X11140Y4345D01*
X11140Y4344D01*
X11091D01*
X11083Y4352D01*
Y4487D01*
X11091Y4495D01*
X11140D01*
X11140Y4494D01*
X11162Y4490D01*
X11292D01*
X11313Y4494D01*
X11332Y4507D01*
X11344Y4525D01*
X11348Y4547D01*
X11344Y4568D01*
X11332Y4587D01*
X11313Y4599D01*
X11292Y4603D01*
X11279D01*
Y4658D01*
X11298D01*
Y4969D01*
X11279D01*
Y5033D01*
X11290Y5042D01*
X11304Y5061D01*
X11313Y5082D01*
X11316Y5105D01*
X11313Y5129D01*
X11304Y5150D01*
X11290Y5169D01*
X11272Y5183D01*
X11250Y5192D01*
X11227Y5195D01*
D02*
G37*
G36*
X8446Y4534D02*
X8333D01*
Y4491D01*
X8446D01*
Y4534D01*
D02*
G37*
G36*
X9106Y4801D02*
X9038D01*
Y4658D01*
X9106D01*
Y4801D01*
D02*
G37*
G36*
X9199D02*
X9131D01*
Y4658D01*
X9199D01*
Y4801D01*
D02*
G37*
G36*
X10935D02*
X10867D01*
Y4658D01*
X10935D01*
Y4801D01*
D02*
G37*
G36*
X3705Y4677D02*
X3637D01*
Y4534D01*
X3705D01*
Y4677D01*
D02*
G37*
G36*
X8446Y4602D02*
X8333D01*
Y4559D01*
X8446D01*
Y4602D01*
D02*
G37*
G36*
X8584D02*
X8471D01*
Y4559D01*
X8584D01*
Y4602D01*
D02*
G37*
G36*
X11633Y4509D02*
X11610Y4506D01*
X11588Y4497D01*
X11570Y4483D01*
X11561Y4471D01*
X11314D01*
X11313Y4472D01*
X11292Y4476D01*
X11162D01*
X11140Y4472D01*
X11122Y4460D01*
X11110Y4441D01*
X11105Y4420D01*
X11110Y4398D01*
X11122Y4380D01*
X11140Y4367D01*
X11162Y4363D01*
X11292D01*
X11313Y4367D01*
X11314Y4368D01*
X11561D01*
X11570Y4356D01*
X11588Y4342D01*
X11610Y4333D01*
X11633Y4330D01*
X11656Y4333D01*
X11678Y4342D01*
X11697Y4356D01*
X11711Y4375D01*
X11720Y4396D01*
X11723Y4420D01*
X11720Y4443D01*
X11711Y4464D01*
X11697Y4483D01*
X11678Y4497D01*
X11656Y4506D01*
X11633Y4509D01*
D02*
G37*
G36*
X10342Y4222D02*
X10212D01*
X10190Y4218D01*
X10190Y4217D01*
X9514D01*
Y4221D01*
X9263D01*
Y4110D01*
X9514D01*
Y4114D01*
X10190D01*
X10190Y4113D01*
X10212Y4109D01*
X10342D01*
X10363Y4113D01*
X10382Y4126D01*
X10394Y4144D01*
X10398Y4166D01*
X10394Y4187D01*
X10382Y4206D01*
X10363Y4218D01*
X10342Y4222D01*
D02*
G37*
G36*
X1858Y4310D02*
X1767D01*
Y4267D01*
X1858D01*
Y4310D01*
D02*
G37*
G36*
X1973D02*
X1883D01*
Y4267D01*
X1973D01*
Y4310D01*
D02*
G37*
G36*
X2146Y4263D02*
X2004D01*
Y4196D01*
X2146D01*
Y4263D01*
D02*
G37*
G36*
X1858Y4242D02*
X1767D01*
Y4199D01*
X1858D01*
Y4242D01*
D02*
G37*
G36*
X1973D02*
X1883D01*
Y4199D01*
X1973D01*
Y4242D01*
D02*
G37*
G36*
X3612Y4508D02*
X3544D01*
Y4366D01*
X3612D01*
Y4508D01*
D02*
G37*
G36*
X3705D02*
X3637D01*
Y4366D01*
X3705D01*
Y4508D01*
D02*
G37*
G36*
X10342Y4476D02*
X10212D01*
X10190Y4472D01*
X10190Y4471D01*
X9514D01*
Y4475D01*
X9263D01*
Y4364D01*
X9514D01*
Y4368D01*
X10190D01*
X10190Y4367D01*
X10212Y4363D01*
X10342D01*
X10363Y4367D01*
X10382Y4380D01*
X10394Y4398D01*
X10398Y4420D01*
X10394Y4441D01*
X10382Y4460D01*
X10363Y4472D01*
X10342Y4476D01*
D02*
G37*
G36*
X3072Y4323D02*
X2821D01*
Y4319D01*
X2654D01*
X2654Y4319D01*
X2634Y4315D01*
X2618Y4304D01*
X2618Y4304D01*
X2379Y4065D01*
X2015D01*
X1973Y4107D01*
Y4183D01*
X1767D01*
Y4072D01*
X1862D01*
X1957Y3977D01*
X1974Y3965D01*
X1994Y3961D01*
X2400D01*
X2420Y3965D01*
X2437Y3977D01*
X2635Y4174D01*
X2645Y4167D01*
X2644Y4163D01*
X2641Y4140D01*
X2644Y4117D01*
X2653Y4095D01*
X2667Y4077D01*
X2686Y4063D01*
X2707Y4054D01*
X2730Y4051D01*
X2754Y4054D01*
X2775Y4063D01*
X2794Y4077D01*
X2803Y4088D01*
X2821D01*
Y4085D01*
X3072D01*
Y4196D01*
X2821D01*
Y4192D01*
X2803D01*
X2794Y4203D01*
X2796Y4209D01*
X2798Y4215D01*
X2821D01*
Y4212D01*
X3072D01*
Y4323D01*
D02*
G37*
G36*
X635Y4635D02*
X609Y4632D01*
X584Y4622D01*
X563Y4606D01*
X548Y4586D01*
X489D01*
X469Y4582D01*
X452Y4571D01*
X350Y4469D01*
X339Y4452D01*
X335Y4432D01*
Y3874D01*
X339Y3854D01*
X350Y3837D01*
X503Y3684D01*
X519Y3673D01*
X539Y3669D01*
X642D01*
Y3621D01*
X843D01*
Y3822D01*
X642D01*
Y3773D01*
X561D01*
X439Y3895D01*
Y4411D01*
X510Y4482D01*
X548D01*
X563Y4462D01*
X584Y4446D01*
X609Y4436D01*
X635Y4433D01*
X661Y4436D01*
X686Y4446D01*
X707Y4462D01*
X722Y4482D01*
X823D01*
X947Y4358D01*
X947Y4358D01*
X950Y4356D01*
X946Y4343D01*
X841D01*
Y4332D01*
X735D01*
Y4380D01*
X535D01*
Y4179D01*
X735D01*
Y4228D01*
X841D01*
Y4182D01*
X1152D01*
Y4211D01*
X1227D01*
Y4199D01*
X1433D01*
Y4310D01*
X1352D01*
X1351Y4310D01*
X1336Y4313D01*
X1337Y4326D01*
X1433D01*
Y4437D01*
X1370D01*
X1367Y4440D01*
X1372Y4453D01*
X1433D01*
Y4564D01*
X1227D01*
Y4459D01*
X1227Y4453D01*
X1218Y4446D01*
X1005D01*
X881Y4571D01*
X864Y4582D01*
X844Y4586D01*
X722D01*
X707Y4606D01*
X686Y4622D01*
X661Y4632D01*
X635Y4635D01*
D02*
G37*
G36*
X10342Y4349D02*
X10212D01*
X10190Y4345D01*
X10190Y4344D01*
X9514D01*
Y4348D01*
X9263D01*
Y4237D01*
X9514D01*
Y4241D01*
X10190D01*
X10190Y4240D01*
X10212Y4236D01*
X10342D01*
X10363Y4240D01*
X10382Y4253D01*
X10394Y4271D01*
X10398Y4293D01*
X10394Y4314D01*
X10382Y4333D01*
X10363Y4345D01*
X10342Y4349D01*
D02*
G37*
G36*
X11028Y4801D02*
X10960D01*
Y4658D01*
X11028D01*
Y4801D01*
D02*
G37*
G36*
X6870Y6464D02*
X6803D01*
Y6322D01*
X6870D01*
Y6464D01*
D02*
G37*
G36*
X6777Y6632D02*
X6709D01*
Y6490D01*
X6777D01*
Y6632D01*
D02*
G37*
G36*
X6870D02*
X6803D01*
Y6490D01*
X6870D01*
Y6632D01*
D02*
G37*
G36*
X1803Y6414D02*
X1780Y6411D01*
X1759Y6402D01*
X1740Y6388D01*
X1726Y6369D01*
X1717Y6348D01*
X1715Y6335D01*
X1503Y6122D01*
X910D01*
X849Y6183D01*
X833Y6195D01*
X813Y6199D01*
X722D01*
X707Y6218D01*
X686Y6234D01*
X661Y6245D01*
X635Y6248D01*
X609Y6245D01*
X584Y6234D01*
X563Y6218D01*
X547Y6197D01*
X537Y6173D01*
X534Y6147D01*
X537Y6121D01*
X547Y6096D01*
X563Y6075D01*
X584Y6059D01*
X609Y6049D01*
X635Y6046D01*
X661Y6049D01*
X686Y6059D01*
X707Y6075D01*
X722Y6095D01*
X791D01*
X852Y6034D01*
X869Y6023D01*
X889Y6019D01*
X1524D01*
X1544Y6023D01*
X1561Y6034D01*
X1769Y6243D01*
X1780Y6238D01*
X1803Y6235D01*
X1827Y6238D01*
X1848Y6247D01*
X1867Y6261D01*
X1881Y6280D01*
X1890Y6301D01*
X1893Y6325D01*
X1890Y6348D01*
X1881Y6369D01*
X1867Y6388D01*
X1848Y6402D01*
X1827Y6411D01*
X1803Y6414D01*
D02*
G37*
G36*
X7518Y8255D02*
X7492Y8251D01*
X7468Y8241D01*
X7447Y8225D01*
X7431Y8204D01*
X7421Y8180D01*
X7417Y8153D01*
X7421Y8127D01*
X7431Y8103D01*
X7447Y8082D01*
X7468Y8066D01*
X7492Y8056D01*
X7518Y8052D01*
X7543Y8055D01*
X7721Y7878D01*
Y6879D01*
X7065Y6224D01*
X6905D01*
X6896Y6236D01*
X6877Y6250D01*
X6856Y6259D01*
X6833Y6262D01*
X6809Y6259D01*
X6788Y6250D01*
X6769Y6236D01*
X6755Y6217D01*
X6746Y6195D01*
X6743Y6172D01*
X6746Y6149D01*
X6755Y6127D01*
X6769Y6109D01*
X6788Y6095D01*
X6809Y6086D01*
X6833Y6083D01*
X6856Y6086D01*
X6877Y6095D01*
X6896Y6109D01*
X6905Y6120D01*
X7087D01*
X7106Y6124D01*
X7123Y6136D01*
X7809Y6821D01*
X7820Y6838D01*
X7824Y6858D01*
X7824Y6858D01*
Y7899D01*
X7824Y7899D01*
X7820Y7919D01*
X7809Y7936D01*
X7809Y7936D01*
X7616Y8129D01*
X7620Y8153D01*
X7616Y8180D01*
X7606Y8204D01*
X7590Y8225D01*
X7569Y8241D01*
X7545Y8251D01*
X7518Y8255D01*
D02*
G37*
G36*
X6777Y6464D02*
X6709D01*
Y6322D01*
X6777D01*
Y6464D01*
D02*
G37*
G36*
X6456Y6766D02*
X6413D01*
Y6653D01*
X6456D01*
Y6766D01*
D02*
G37*
G36*
X6710Y6904D02*
X6599D01*
Y6653D01*
X6710D01*
Y6904D01*
D02*
G37*
G36*
X6768Y6766D02*
X6726D01*
Y6653D01*
X6768D01*
Y6766D01*
D02*
G37*
G36*
X5994Y7190D02*
X5843D01*
X5823Y7186D01*
X5806Y7175D01*
X5427Y6795D01*
X4890D01*
X4870Y6792D01*
X4853Y6780D01*
X4678Y6605D01*
X2029D01*
X1686Y6948D01*
X1687Y6952D01*
X1691Y6980D01*
X1687Y7009D01*
X1676Y7036D01*
X1659Y7059D01*
X1636Y7076D01*
X1609Y7087D01*
X1580Y7091D01*
X1552Y7087D01*
X1525Y7076D01*
X1502Y7059D01*
X1484Y7036D01*
X1473Y7009D01*
X1469Y6980D01*
X1473Y6952D01*
X1484Y6925D01*
X1502Y6902D01*
X1525Y6884D01*
X1552Y6873D01*
X1580Y6870D01*
X1609Y6873D01*
X1613Y6875D01*
X1971Y6517D01*
X1988Y6505D01*
X2007Y6501D01*
X4699D01*
X4719Y6505D01*
X4736Y6517D01*
X4911Y6692D01*
X5448D01*
X5468Y6696D01*
X5485Y6707D01*
X5864Y7086D01*
X5972D01*
X6094Y6964D01*
Y6904D01*
X6091D01*
Y6653D01*
X6202D01*
Y6904D01*
X6198D01*
Y6986D01*
X6194Y7005D01*
X6183Y7022D01*
X6030Y7175D01*
X6014Y7186D01*
X5994Y7190D01*
D02*
G37*
G36*
X5821Y6904D02*
X5710D01*
Y6653D01*
X5821D01*
Y6904D01*
D02*
G37*
G36*
X6387Y6766D02*
X6345D01*
Y6653D01*
X6387D01*
Y6766D01*
D02*
G37*
G36*
X1930Y6236D02*
X1907Y6233D01*
X1886Y6224D01*
X1867Y6210D01*
X1853Y6192D01*
X1844Y6170D01*
X1842Y6157D01*
X1630Y5945D01*
X722D01*
X707Y5964D01*
X686Y5980D01*
X661Y5991D01*
X635Y5994D01*
X609Y5991D01*
X584Y5980D01*
X563Y5964D01*
X547Y5943D01*
X537Y5919D01*
X534Y5893D01*
X537Y5867D01*
X547Y5842D01*
X563Y5821D01*
X584Y5805D01*
X609Y5795D01*
X635Y5792D01*
X661Y5795D01*
X686Y5805D01*
X707Y5821D01*
X722Y5841D01*
X1651D01*
X1671Y5845D01*
X1688Y5856D01*
X1896Y6065D01*
X1907Y6060D01*
X1930Y6057D01*
X1954Y6060D01*
X1975Y6069D01*
X1994Y6083D01*
X2008Y6102D01*
X2017Y6124D01*
X2020Y6147D01*
X2017Y6170D01*
X2008Y6192D01*
X1994Y6210D01*
X1975Y6224D01*
X1954Y6233D01*
X1930Y6236D01*
D02*
G37*
G36*
X9199Y4969D02*
X9131D01*
Y4826D01*
X9199D01*
Y4969D01*
D02*
G37*
G36*
X11028D02*
X10960D01*
Y4826D01*
X11028D01*
Y4969D01*
D02*
G37*
G36*
X4483Y4923D02*
X4340D01*
Y4855D01*
X4483D01*
Y4923D01*
D02*
G37*
G36*
X4866Y5562D02*
X4834Y5558D01*
X4803Y5545D01*
X4777Y5525D01*
X4757Y5499D01*
X4744Y5468D01*
X4740Y5436D01*
X4744Y5403D01*
X4757Y5372D01*
X4777Y5346D01*
X4803Y5326D01*
X4815Y5321D01*
Y4837D01*
X4695Y4717D01*
X4651D01*
Y4746D01*
X4340D01*
Y4717D01*
X4321D01*
Y4746D01*
X4010D01*
Y4585D01*
X4010D01*
Y4584D01*
X4010D01*
Y4423D01*
X4321D01*
Y4584D01*
X4321D01*
Y4585D01*
X4321D01*
Y4614D01*
X4340D01*
Y4585D01*
X4651D01*
Y4614D01*
X4716D01*
X4736Y4618D01*
X4753Y4629D01*
X4903Y4779D01*
X4914Y4796D01*
X4918Y4816D01*
Y5321D01*
X4930Y5326D01*
X4956Y5346D01*
X4976Y5372D01*
X4989Y5403D01*
X4993Y5436D01*
X4989Y5468D01*
X4976Y5499D01*
X4956Y5525D01*
X4930Y5545D01*
X4899Y5558D01*
X4866Y5562D01*
D02*
G37*
G36*
X9106Y4969D02*
X9038D01*
Y4826D01*
X9106D01*
Y4969D01*
D02*
G37*
G36*
X10935D02*
X10867D01*
Y4826D01*
X10935D01*
Y4969D01*
D02*
G37*
G36*
X5948Y6904D02*
X5837D01*
Y6653D01*
X5840D01*
Y6599D01*
X5780Y6539D01*
X5769Y6522D01*
X5765Y6502D01*
Y5660D01*
X5753Y5651D01*
X5739Y5633D01*
X5730Y5611D01*
X5727Y5588D01*
X5730Y5565D01*
X5739Y5543D01*
X5753Y5525D01*
X5772Y5510D01*
X5793Y5501D01*
X5817Y5498D01*
X5840Y5501D01*
X5861Y5510D01*
X5880Y5525D01*
X5894Y5543D01*
X5903Y5565D01*
X5906Y5588D01*
X5903Y5611D01*
X5894Y5633D01*
X5880Y5651D01*
X5868Y5660D01*
Y6481D01*
X5929Y6541D01*
X5940Y6558D01*
X5944Y6578D01*
Y6653D01*
X5948D01*
Y6904D01*
D02*
G37*
G36*
X6075D02*
X5964D01*
Y6653D01*
X5967D01*
Y6579D01*
X5971Y6559D01*
X5983Y6543D01*
X6019Y6506D01*
Y5838D01*
X6007Y5829D01*
X5993Y5811D01*
X5984Y5789D01*
X5981Y5766D01*
X5984Y5743D01*
X5993Y5721D01*
X6007Y5702D01*
X6026Y5688D01*
X6047Y5679D01*
X6071Y5676D01*
X6094Y5679D01*
X6115Y5688D01*
X6134Y5702D01*
X6148Y5721D01*
X6157Y5743D01*
X6160Y5766D01*
X6157Y5789D01*
X6148Y5811D01*
X6134Y5829D01*
X6122Y5838D01*
Y6528D01*
X6122Y6528D01*
X6118Y6548D01*
X6107Y6564D01*
X6071Y6601D01*
Y6653D01*
X6075D01*
Y6904D01*
D02*
G37*
G36*
X2032Y6059D02*
X2009Y6056D01*
X1987Y6047D01*
X1969Y6032D01*
X1954Y6014D01*
X1945Y5992D01*
X1942Y5969D01*
X1944Y5954D01*
X1768Y5779D01*
X1756Y5784D01*
Y5803D01*
X1445D01*
Y5767D01*
X914D01*
X895Y5763D01*
X878Y5752D01*
X817Y5691D01*
X735D01*
Y5739D01*
X535D01*
Y5538D01*
X735D01*
Y5587D01*
X838D01*
X858Y5591D01*
X875Y5602D01*
X936Y5663D01*
X1445D01*
Y5643D01*
X1756D01*
Y5663D01*
X1778D01*
X1798Y5667D01*
X1815Y5678D01*
X2017Y5881D01*
X2032Y5879D01*
X2055Y5882D01*
X2077Y5891D01*
X2095Y5906D01*
X2110Y5924D01*
X2119Y5946D01*
X2122Y5969D01*
X2119Y5992D01*
X2110Y6014D01*
X2095Y6032D01*
X2077Y6047D01*
X2055Y6056D01*
X2032Y6059D01*
D02*
G37*
G36*
X4651Y4923D02*
X4508D01*
Y4855D01*
X4651D01*
Y4923D01*
D02*
G37*
G36*
X4483Y5016D02*
X4340D01*
Y4948D01*
X4483D01*
Y5016D01*
D02*
G37*
G36*
X4651D02*
X4508D01*
Y4948D01*
X4651D01*
Y5016D01*
D02*
G37*
%LPD*%
D10*
X2159Y4183D02*
D03*
Y4453D02*
D03*
X1330Y3688D02*
D03*
Y3958D02*
D03*
X997Y3992D02*
D03*
Y4262D02*
D03*
X1600Y5453D02*
D03*
Y5723D02*
D03*
X4166Y4936D02*
D03*
Y4666D02*
D03*
Y4504D02*
D03*
Y4234D02*
D03*
X4496Y4936D02*
D03*
Y4666D02*
D03*
X5131Y754D02*
D03*
Y1024D02*
D03*
X5563D02*
D03*
Y754D02*
D03*
X1626Y652D02*
D03*
Y922D02*
D03*
D11*
X6908Y7709D02*
D03*
X6781D02*
D03*
X6654D02*
D03*
X6527D02*
D03*
X6400D02*
D03*
X6273D02*
D03*
X6146D02*
D03*
X6019D02*
D03*
X5892D02*
D03*
X5765D02*
D03*
X6908Y6779D02*
D03*
X6781D02*
D03*
X6654D02*
D03*
X6527D02*
D03*
X6400D02*
D03*
X6273D02*
D03*
X6146D02*
D03*
X6019D02*
D03*
X5892D02*
D03*
X5765D02*
D03*
D12*
X9363Y3137D02*
D03*
X9093D02*
D03*
X9314Y7423D02*
D03*
X9584D02*
D03*
X6266Y4115D02*
D03*
X6536D02*
D03*
X4251Y1803D02*
D03*
X4521D02*
D03*
X3777Y1803D02*
D03*
X4047D02*
D03*
Y2159D02*
D03*
X3777D02*
D03*
X3894Y4521D02*
D03*
X3624D02*
D03*
X5072Y2794D02*
D03*
X5342D02*
D03*
X10947Y4813D02*
D03*
X11217D02*
D03*
X9118D02*
D03*
X9388D02*
D03*
X8755Y1753D02*
D03*
X9025D02*
D03*
X1694Y3658D02*
D03*
X1964D02*
D03*
X1694Y3251D02*
D03*
X1964D02*
D03*
X6790Y6477D02*
D03*
X6520D02*
D03*
X6291Y1460D02*
D03*
X6561D02*
D03*
D13*
X5986Y3195D02*
D03*
Y3115D02*
D03*
Y3035D02*
D03*
Y2955D02*
D03*
Y2875D02*
D03*
Y2795D02*
D03*
Y2715D02*
D03*
Y2635D02*
D03*
Y2555D02*
D03*
Y2475D02*
D03*
Y2395D02*
D03*
X7136D02*
D03*
Y2475D02*
D03*
Y2555D02*
D03*
Y2635D02*
D03*
Y2715D02*
D03*
Y2795D02*
D03*
Y2875D02*
D03*
Y2955D02*
D03*
Y3035D02*
D03*
Y3115D02*
D03*
Y3195D02*
D03*
D14*
X6161Y2220D02*
D03*
X6241D02*
D03*
X6321D02*
D03*
X6401D02*
D03*
X6481D02*
D03*
X6561D02*
D03*
X6641D02*
D03*
X6721D02*
D03*
X6801D02*
D03*
X6881D02*
D03*
X6961D02*
D03*
Y3370D02*
D03*
X6881D02*
D03*
X6801D02*
D03*
X6721D02*
D03*
X6641D02*
D03*
X6561D02*
D03*
X6481D02*
D03*
X6401D02*
D03*
X6321D02*
D03*
X6241D02*
D03*
X6161D02*
D03*
D15*
X3886Y3251D02*
D03*
Y3378D02*
D03*
Y3505D02*
D03*
Y3632D02*
D03*
Y3759D02*
D03*
Y3886D02*
D03*
Y4013D02*
D03*
Y4140D02*
D03*
Y4267D02*
D03*
X2946Y3251D02*
D03*
Y3378D02*
D03*
Y3505D02*
D03*
Y3632D02*
D03*
Y3759D02*
D03*
Y3886D02*
D03*
Y4013D02*
D03*
Y4140D02*
D03*
Y4267D02*
D03*
X9388Y3404D02*
D03*
Y3531D02*
D03*
Y3658D02*
D03*
Y3785D02*
D03*
Y3912D02*
D03*
Y4039D02*
D03*
Y4166D02*
D03*
Y4293D02*
D03*
Y4420D02*
D03*
Y4547D02*
D03*
X8458Y3404D02*
D03*
Y3531D02*
D03*
Y3658D02*
D03*
Y3785D02*
D03*
Y3912D02*
D03*
Y4039D02*
D03*
Y4166D02*
D03*
Y4293D02*
D03*
Y4420D02*
D03*
Y4547D02*
D03*
D16*
X11227Y2896D02*
D03*
Y3023D02*
D03*
Y3150D02*
D03*
Y3277D02*
D03*
Y3404D02*
D03*
Y3531D02*
D03*
Y3658D02*
D03*
Y3785D02*
D03*
Y3912D02*
D03*
Y4039D02*
D03*
Y4166D02*
D03*
Y4293D02*
D03*
Y4420D02*
D03*
Y4547D02*
D03*
X10277Y2896D02*
D03*
Y3023D02*
D03*
Y3150D02*
D03*
Y3277D02*
D03*
Y3404D02*
D03*
Y3531D02*
D03*
Y3658D02*
D03*
Y3785D02*
D03*
Y3912D02*
D03*
Y4039D02*
D03*
Y4166D02*
D03*
Y4293D02*
D03*
Y4420D02*
D03*
Y4547D02*
D03*
D17*
X8306Y1448D02*
D03*
X8431D02*
D03*
X8556D02*
D03*
X8681D02*
D03*
X8806D02*
D03*
Y633D02*
D03*
X8681D02*
D03*
X8556D02*
D03*
X8431D02*
D03*
X8306D02*
D03*
X9830Y7100D02*
D03*
X9703D02*
D03*
X9576D02*
D03*
X9449D02*
D03*
X9322D02*
D03*
X9195D02*
D03*
X9068D02*
D03*
Y6020D02*
D03*
X9195D02*
D03*
X9322D02*
D03*
X9449D02*
D03*
X9576D02*
D03*
X9703D02*
D03*
X9830D02*
D03*
D18*
X8963Y1290D02*
D03*
Y1165D02*
D03*
Y1040D02*
D03*
Y915D02*
D03*
Y790D02*
D03*
X8148D02*
D03*
Y915D02*
D03*
Y1040D02*
D03*
Y1165D02*
D03*
Y1290D02*
D03*
X9989Y6179D02*
D03*
Y6306D02*
D03*
Y6433D02*
D03*
Y6560D02*
D03*
Y6687D02*
D03*
Y6814D02*
D03*
Y6941D02*
D03*
X8909D02*
D03*
Y6814D02*
D03*
Y6687D02*
D03*
Y6560D02*
D03*
Y6433D02*
D03*
Y6306D02*
D03*
Y6179D02*
D03*
D19*
X1870Y4128D02*
D03*
Y4254D02*
D03*
Y4381D02*
D03*
Y4508D02*
D03*
X1330Y4128D02*
D03*
Y4254D02*
D03*
Y4381D02*
D03*
Y4508D02*
D03*
D20*
X2113Y1422D02*
D03*
Y1930D02*
D03*
D21*
X1143Y1676D02*
D03*
D22*
X6248Y3988D02*
Y4132D01*
X11227Y4804D02*
Y5105D01*
X11227Y4547D02*
Y4803D01*
X6528Y3861D02*
Y4123D01*
X6563Y1336D02*
Y2218D01*
X3886Y4267D02*
Y4801D01*
X5342Y2743D02*
X5393Y2794D01*
X6071Y5766D02*
Y6528D01*
X6019Y6579D02*
X6071Y6528D01*
X6019Y6579D02*
Y6779D01*
X5892Y6578D02*
Y6779D01*
X5817Y6502D02*
X5892Y6578D01*
X5817Y5588D02*
Y6502D01*
X4724Y3886D02*
X5131Y4293D01*
X4724Y2743D02*
Y3886D01*
X6553Y965D02*
X6604Y1016D01*
X6553Y724D02*
Y965D01*
X6604Y1016D02*
X7518D01*
X7061Y889D02*
X7455D01*
X7569Y775D01*
Y724D02*
Y775D01*
X6718Y1181D02*
X7734D01*
X6563Y1336D02*
X6718Y1181D01*
X6909Y1321D02*
X8118D01*
X8148Y1290D01*
X4866Y4816D02*
Y5436D01*
X4716Y4666D02*
X4866Y4816D01*
X5843Y7138D02*
X5994D01*
X6146Y6986D01*
Y6779D02*
Y6986D01*
X5448Y6744D02*
X5843Y7138D01*
X4890Y6744D02*
X5448D01*
X4699Y6553D02*
X4890Y6744D01*
X2157Y6680D02*
X4648D01*
X2007Y6553D02*
X4699D01*
X1643Y6917D02*
X2007Y6553D01*
X1643Y6917D02*
X1643D01*
X1580Y6980D02*
X1643Y6917D01*
X1856Y6980D02*
X2157Y6680D01*
X4826Y6858D02*
Y7290D01*
X4648Y6680D02*
X4826Y6858D01*
Y7290D02*
X5080Y7544D01*
X5918D01*
X6273Y7189D01*
X6520Y6477D02*
Y6502D01*
Y4131D02*
Y6477D01*
X6528Y4123D02*
X6536Y4115D01*
X6520Y4131D02*
X6528Y4123D01*
X6520Y6502D02*
X6527Y6510D01*
Y6779D01*
X6146Y7494D02*
Y7709D01*
X6273Y7519D02*
Y7709D01*
X6908Y7518D02*
Y7709D01*
X6400Y7570D02*
Y7709D01*
X6781Y7569D02*
Y7709D01*
X5105Y3785D02*
X5359Y4039D01*
X5105Y3353D02*
Y3785D01*
Y3353D02*
X5583Y2875D01*
X914Y5715D02*
X1778D01*
X5461Y4623D02*
Y5994D01*
Y4623D02*
X6481Y3603D01*
X5309Y4623D02*
X6399Y3532D01*
X5309Y4623D02*
Y6147D01*
X1778Y6325D02*
Y6350D01*
X5156Y4623D02*
Y6299D01*
Y4623D02*
X6319Y3460D01*
X1905Y6147D02*
X1930D01*
X1778Y5715D02*
X2032Y5969D01*
X6273Y6779D02*
Y7189D01*
X7518Y8153D02*
X7772Y7899D01*
Y6858D02*
Y7899D01*
X7087Y6172D02*
X7772Y6858D01*
X6833Y6172D02*
X7087D01*
X8534Y1803D02*
X8585Y1753D01*
X8755D01*
Y1668D02*
Y1753D01*
X8681Y1594D02*
X8755Y1668D01*
X8681Y1448D02*
Y1594D01*
X8556Y1448D02*
Y1610D01*
X8207Y1959D02*
X8556Y1610D01*
X2227Y4453D02*
X2413Y4267D01*
X2159Y4453D02*
X2227D01*
X2278D02*
X3158D01*
X2057D02*
X2159D01*
X1986Y4381D02*
X2057Y4453D01*
X1870Y4381D02*
X1986D01*
X2134Y1951D02*
Y2286D01*
X1880Y2540D02*
X2134Y2286D01*
X2113Y1930D02*
X2134Y1951D01*
X4521Y1448D02*
Y1803D01*
X4343Y1270D02*
X4521Y1448D01*
X3150Y1270D02*
X4343D01*
X2489Y1930D02*
X3150Y1270D01*
X2113Y1930D02*
X2489D01*
X4521Y1803D02*
X4953D01*
X5486Y2337D01*
X9388Y4886D02*
Y5121D01*
Y4813D02*
Y4886D01*
X9220Y5055D02*
X9388Y4886D01*
X7476Y5055D02*
X9220D01*
X6536Y4115D02*
X7476Y5055D01*
X8128Y4420D02*
X8458D01*
X7468D02*
X8128D01*
X6561Y2795D02*
Y2802D01*
Y2220D02*
Y2795D01*
X5986D02*
X6561D01*
X6641Y2882D02*
Y3370D01*
X6561Y2802D02*
X6641Y2882D01*
X8889Y6947D02*
X8902Y6934D01*
X11227Y2895D02*
X11227Y2896D01*
X8001Y3531D02*
X8458D01*
X11227Y4804D02*
X11227Y4803D01*
X10363Y5334D02*
X10592Y5105D01*
X9881Y5334D02*
X10363D01*
X10592Y4140D02*
Y5105D01*
X10147Y4813D02*
X10414Y5080D01*
X9388Y4813D02*
X10147D01*
X9576Y6020D02*
Y7100D01*
X10516Y6807D02*
Y7087D01*
X9576Y5309D02*
Y6020D01*
X9388Y5121D02*
X9576Y5309D01*
X9195Y5791D02*
Y6020D01*
X9550Y8026D02*
Y8153D01*
X9398Y7874D02*
X9550Y8026D01*
X9271Y7874D02*
X9398D01*
X9804Y8026D02*
Y8153D01*
X9525Y7747D02*
X9804Y8026D01*
X9322Y7747D02*
X9525D01*
X9093Y7518D02*
X9322Y7747D01*
X8687Y7290D02*
X9271Y7874D01*
X8560Y7340D02*
X9296Y8077D01*
Y8153D01*
X7925Y7747D02*
X8026Y7849D01*
X7925Y6452D02*
Y7747D01*
Y6452D02*
X8204Y6172D01*
X8534D01*
X8026Y7849D02*
Y8153D01*
X8052Y7671D02*
X8280Y7899D01*
X8052Y6516D02*
Y7671D01*
Y6516D02*
X8262Y6306D01*
X8179Y7595D02*
X8534Y7950D01*
X8179Y6604D02*
Y7595D01*
Y6604D02*
X8350Y6433D01*
X8306Y7493D02*
X8788Y7976D01*
X8306Y6731D02*
Y7493D01*
Y6731D02*
X8357Y6680D01*
X8433Y7417D02*
X9042Y8026D01*
X8433Y6858D02*
Y7417D01*
Y6858D02*
X8477Y6814D01*
X8560Y6947D02*
X8889D01*
X8560D02*
Y7340D01*
X8687Y7100D02*
Y7290D01*
Y7100D02*
X9068D01*
X8280Y7899D02*
Y8153D01*
X8262Y6306D02*
X8661D01*
X8534Y7950D02*
Y8153D01*
X8350Y6433D02*
X8534D01*
X8788Y7976D02*
Y8153D01*
X8357Y6680D02*
X8534D01*
X8902D02*
X8909Y6687D01*
X8534Y6680D02*
X8902D01*
X8477Y6814D02*
X8661D01*
X9042Y8026D02*
Y8153D01*
X8534Y6172D02*
X8541Y6179D01*
X8909D01*
X8534Y6433D02*
X8909D01*
X8661Y6306D02*
X8909D01*
X8902Y6934D02*
X8909Y6941D01*
X8661Y6814D02*
X8909D01*
X9093Y7366D02*
Y7518D01*
Y7341D02*
X9195Y7239D01*
X9093Y7341D02*
Y7366D01*
X9314Y7423D02*
X9322Y7431D01*
X10287Y7315D02*
X10516Y7087D01*
X9754Y7315D02*
X10287D01*
X9703Y7264D02*
X9754Y7315D01*
X9703Y7100D02*
Y7264D01*
X10312Y6553D02*
X10490D01*
X10192Y6433D02*
X10312Y6553D01*
X9989Y6433D02*
X10192D01*
X10338Y6045D02*
X10490D01*
X10204Y6179D02*
X10338Y6045D01*
X9989Y6179D02*
X10204D01*
X9906Y5791D02*
X10490D01*
X9830Y5867D02*
X9906Y5791D01*
X9830Y5867D02*
Y6020D01*
X9989Y6306D02*
X10497D01*
X9068Y5664D02*
Y6020D01*
X8814Y5410D02*
X9068Y5664D01*
X6706Y5410D02*
X8814D01*
X9703Y5512D02*
X9881Y5334D01*
X9703Y5512D02*
Y6020D01*
X7087Y5207D02*
X9042D01*
X9322Y5486D01*
Y6020D01*
X6528Y3861D02*
X6641Y3747D01*
Y3370D02*
Y3747D01*
X6481Y3370D02*
Y3603D01*
X6721Y3370D02*
Y3673D01*
X7138Y3117D02*
X7216D01*
X7884Y3785D01*
X6971Y2210D02*
X7071D01*
X7136Y2555D02*
X7406D01*
X8179Y1829D02*
X8431Y1577D01*
X6961Y3370D02*
X7028D01*
X7696Y4039D01*
X6801Y3370D02*
Y3575D01*
X7136Y3035D02*
X7328D01*
X7136Y2395D02*
X7206D01*
X4039Y1803D02*
X4242D01*
X7136Y3275D02*
X7772Y3912D01*
X7136Y3195D02*
Y3275D01*
Y2715D02*
X7363D01*
X6881Y3370D02*
Y3452D01*
X7595Y4166D01*
X7136Y2475D02*
X7329D01*
X6321Y3370D02*
Y3432D01*
X7136Y2955D02*
X7425D01*
X9195Y7100D02*
Y7239D01*
X7976Y3505D02*
X8001D01*
X7425Y2955D02*
X7976Y3505D01*
X8001D02*
Y3531D01*
X7950Y3658D02*
X8128D01*
X8458D01*
X7884Y3785D02*
X8255D01*
X7328Y3035D02*
X7950Y3658D01*
X8255Y3785D02*
X8458D01*
X7772Y3912D02*
X8128D01*
X8458D01*
X8128Y4166D02*
X8458D01*
X7595D02*
X8128D01*
X7696Y4039D02*
X8255D01*
X8458D01*
X7518Y4293D02*
X8255D01*
X8458D01*
X6801Y3575D02*
X7518Y4293D01*
X7239Y2235D02*
Y2362D01*
X7518Y2235D02*
Y2443D01*
X7366Y2362D02*
Y2438D01*
X5487Y2795D02*
X5986D01*
X5832Y2555D02*
X5986D01*
X5779Y3035D02*
X5986D01*
X6028Y3370D02*
X6161D01*
X5588Y3593D02*
X5986Y3195D01*
X6399Y3372D02*
Y3532D01*
X5612Y2717D02*
X5985D01*
X5681Y2955D02*
X5986D01*
X5681Y2633D02*
X5985D01*
X5855Y3117D02*
X5985D01*
X5583Y2875D02*
X5986D01*
X9314Y7423D02*
X9322Y7415D01*
X9576D02*
X9584Y7423D01*
X9576Y7100D02*
Y7415D01*
X8331Y2718D02*
Y2896D01*
Y2718D02*
X8687Y2362D01*
X8128Y2692D02*
X8458Y2362D01*
X8128Y2692D02*
Y2896D01*
X7925Y2692D02*
X8255Y2362D01*
X7925Y2692D02*
Y2896D01*
X8992Y2921D02*
X9449D01*
X8839Y3073D02*
X8992Y2921D01*
X7899Y3073D02*
X8839D01*
X7696Y2870D02*
X7899Y3073D01*
X7696Y2083D02*
Y2870D01*
X9029Y3200D02*
X9093Y3137D01*
X7849Y3200D02*
X9029D01*
X7363Y2715D02*
X7849Y3200D01*
X9449Y2921D02*
X9931Y3404D01*
X10277D01*
X8026Y2210D02*
X11227D01*
X7899Y2083D02*
X8026Y2210D01*
X8806Y1448D02*
X9754D01*
X9028Y1956D02*
X11379D01*
X11227Y2210D02*
X11697Y2680D01*
X7061Y1956D02*
X8204D01*
X8758D02*
X8870D01*
X8755Y1959D02*
X8758Y1956D01*
X8207Y1959D02*
X8755D01*
X9025D02*
X9028Y1956D01*
X8873Y1959D02*
X9025D01*
X8870Y1956D02*
X8873Y1959D01*
X11379Y1956D02*
X11989Y2565D01*
X11303Y2083D02*
X11836Y2616D01*
X8153Y2083D02*
X11303D01*
X6881Y2136D02*
X7061Y1956D01*
X8306Y1448D02*
Y1549D01*
X8204Y1651D02*
X8306Y1549D01*
X7899Y1651D02*
X8204D01*
X6985Y1803D02*
X8153D01*
X8179Y1829D01*
X6803Y1985D02*
X6985Y1803D01*
X8431Y1448D02*
Y1577D01*
X6960Y1651D02*
X7899D01*
X6723Y1888D02*
X6960Y1651D01*
X6934Y1499D02*
X7696D01*
X6643Y1790D02*
X6934Y1499D01*
X7206Y2395D02*
X7239Y2362D01*
X6803Y1985D02*
Y2218D01*
X6723Y1888D02*
Y2218D01*
X6643Y1790D02*
Y2218D01*
X9194Y1040D02*
X9195Y1041D01*
X8963Y1040D02*
X9194D01*
X8963Y1165D02*
X9369D01*
X9520Y1290D02*
X9525Y1295D01*
X8963Y1290D02*
X9520D01*
X10922Y2616D02*
Y3429D01*
X11024Y3531D01*
X10566Y2616D02*
Y3429D01*
X6961Y2220D02*
X6971Y2210D01*
X6321Y1927D02*
Y2220D01*
X6401Y1880D02*
Y2220D01*
X6161Y2199D02*
Y2220D01*
X6881Y2136D02*
Y2220D01*
X6241Y2025D02*
Y2220D01*
X10922Y3785D02*
X10947D01*
X10592Y4140D02*
X10947Y3785D01*
X11227D01*
X10566Y3429D02*
X10922Y3785D01*
X11024Y3531D02*
X11227D01*
X11659Y4166D02*
X11989Y3835D01*
Y2565D02*
Y3835D01*
X11227Y4420D02*
X11633D01*
X11031Y4331D02*
X11069Y4293D01*
X11227D01*
X11836Y2616D02*
Y3785D01*
X11582Y4039D02*
X11836Y3785D01*
X11227Y3404D02*
X11582D01*
X11227Y3150D02*
X11582D01*
X11227Y3277D02*
X11430D01*
X11227Y2896D02*
X11582D01*
X10277Y3023D02*
X10277D01*
X10135D02*
X10277D01*
Y4039D02*
X10277D01*
X9388D02*
X10277D01*
Y3404D02*
X10277D01*
X10277Y3785D02*
X10277D01*
X9388D02*
X10277D01*
Y4420D02*
X10277D01*
X9388D02*
X10277D01*
Y3531D02*
X10277D01*
X9388D02*
X10277D01*
Y4166D02*
X10277D01*
X9388D02*
X10277D01*
X10058Y3150D02*
X10277D01*
X11227Y3658D02*
X11227D01*
X10277Y3912D02*
X10277D01*
X9388D02*
X10277D01*
Y3658D02*
X10277D01*
X9388D02*
X10277D01*
Y4293D02*
X10277D01*
X9388D02*
X10277D01*
X11227Y4547D02*
X11227D01*
X11069D02*
X11227D01*
Y4293D02*
X11227D01*
X10277Y3277D02*
X10277D01*
X9982D02*
X10277D01*
X11557Y3912D02*
X11697Y3772D01*
Y2680D02*
Y3772D01*
X11227Y3023D02*
X11430D01*
X11227Y4039D02*
X11582D01*
X11227Y4166D02*
X11659D01*
X11227Y3912D02*
X11557D01*
X10033Y2921D02*
X10135Y3023D01*
X9982Y2921D02*
X10033D01*
X10008Y3099D02*
X10058Y3150D01*
X9982Y3099D02*
X10008D01*
X7136Y3115D02*
X7138Y3117D01*
X6721Y3673D02*
X7468Y4420D01*
X6020Y2057D02*
X6161Y2199D01*
X6147Y1930D02*
X6241Y2025D01*
X7406Y2555D02*
X7518Y2443D01*
X5766Y2489D02*
X5832Y2555D01*
X5486Y2591D02*
X5612Y2717D01*
X5486Y2794D02*
X5487Y2795D01*
X5985Y2553D02*
X5986Y2555D01*
X5486Y3150D02*
X5681Y2955D01*
X6172Y1651D02*
X6401Y1880D01*
X6147Y1753D02*
X6321Y1927D01*
X5985Y2717D02*
X5986Y2715D01*
X3886Y3505D02*
X4064D01*
X5393Y2794D02*
X5486D01*
X6319Y3434D02*
Y3460D01*
X5639Y3759D02*
X6028Y3370D01*
X5436Y3759D02*
X5639D01*
X5588Y3593D02*
Y3607D01*
X5486Y3480D02*
X5492D01*
X5410Y3302D02*
X5512D01*
X5779Y3035D01*
X5492Y3480D02*
X5855Y3117D01*
X1600Y5334D02*
Y5436D01*
X3886Y3759D02*
X4394D01*
X7329Y2475D02*
X7366Y2438D01*
X2159Y4453D02*
Y4775D01*
X1600Y5334D02*
X2159Y4775D01*
X838Y5639D02*
X914Y5715D01*
X660Y5639D02*
X838D01*
X889Y6071D02*
X1524D01*
X813Y6147D02*
X889Y6071D01*
X660Y6147D02*
X813D01*
X1524Y6071D02*
X1778Y6325D01*
Y6350D02*
X1803Y6325D01*
X1651Y5893D02*
X1905Y6147D01*
X660Y5893D02*
X1651D01*
X997Y4262D02*
X1331D01*
X635Y4280D02*
X979D01*
X590D02*
X635D01*
Y4534D02*
X844D01*
X489D02*
X635D01*
X984Y4394D02*
X1336D01*
X979Y4280D02*
X997Y4262D01*
X844Y4534D02*
X984Y4394D01*
X3886Y4013D02*
X4343D01*
X3886Y3886D02*
X4089D01*
X3886Y3632D02*
X4115D01*
X4047Y2159D02*
X4216D01*
X4047D02*
Y2159D01*
Y1803D02*
Y2159D01*
X4216D02*
X4293Y2235D01*
X4047Y2159D02*
X4089D01*
X6319Y3434D02*
X6321Y3432D01*
X6399Y3372D02*
X6401Y3370D01*
X3820Y5116D02*
Y5120D01*
X3158Y4453D02*
X3820Y5116D01*
X6481Y2220D02*
X6483Y2218D01*
X6561Y2220D02*
X6563Y2218D01*
X6641Y2220D02*
X6643Y2218D01*
X6721Y2220D02*
X6723Y2218D01*
X6801Y2220D02*
X6803Y2218D01*
X3353Y1753D02*
X3404Y1803D01*
X3777D01*
X4013Y4928D02*
X4158D01*
X4166Y4936D01*
X3820Y5120D02*
X4013Y4928D01*
X3820Y5120D02*
Y5436D01*
X3886Y4801D02*
X4013Y4928D01*
X4496Y4666D02*
X4716D01*
X4166D02*
X4496D01*
X4166Y4504D02*
Y4666D01*
X4072Y4140D02*
X4166Y4234D01*
X3886Y4140D02*
X4072D01*
X5985Y2633D02*
X5986Y2635D01*
X5985Y3117D02*
X5986Y3115D01*
X6908Y6779D02*
Y6986D01*
X6807Y7087D02*
X6908Y6986D01*
X6553Y7087D02*
X6807D01*
X6146Y7494D02*
X6553Y7087D01*
X6756Y7366D02*
X6908Y7518D01*
X6426Y7366D02*
X6756D01*
X6273Y7519D02*
X6426Y7366D01*
X6706Y7493D02*
X6781Y7569D01*
X6477Y7493D02*
X6706D01*
X6400Y7570D02*
X6477Y7493D01*
X6398Y6776D02*
X6400Y6779D01*
X1143Y1405D02*
Y1676D01*
X1330Y4128D02*
X1330Y4128D01*
X1330Y3958D02*
Y4128D01*
X11031Y4508D02*
X11069Y4547D01*
X11031Y4331D02*
Y4508D01*
X10930Y4796D02*
X10947Y4813D01*
X9388Y4547D02*
X9388Y4547D01*
Y4813D01*
X9363Y3378D02*
X9388Y3404D01*
X9363Y3137D02*
Y3378D01*
X2946Y3378D02*
X2946Y3378D01*
X2400Y4013D02*
X2654Y4267D01*
X1994Y4013D02*
X2400D01*
X1880Y4128D02*
X1994Y4013D01*
X2654Y4267D02*
X2946D01*
X1892Y4531D02*
Y4674D01*
X1870Y4508D02*
X1892Y4531D01*
X2730Y4140D02*
X2946D01*
X1870Y4128D02*
X1880D01*
X997Y3721D02*
Y3992D01*
X387Y4432D02*
X489Y4534D01*
X387Y3874D02*
Y4432D01*
Y3874D02*
X539Y3721D01*
X743D01*
X4724Y2743D02*
X4877Y2591D01*
X5486D01*
X5512Y2464D02*
X5681Y2633D01*
X4826Y2464D02*
X5512D01*
X4597Y2692D02*
X4826Y2464D01*
X4597Y2692D02*
Y2972D01*
X4064Y3505D02*
X4597Y2972D01*
X1964Y3658D02*
X2012Y3609D01*
X2337D01*
X1964Y3251D02*
X2012Y3299D01*
X2337D01*
Y3609D02*
X2614D01*
X2718Y3505D01*
X2946D01*
X2337Y3299D02*
X2614D01*
X2692Y3378D01*
X2946D01*
X5662Y1753D02*
X6147D01*
X5131Y1024D02*
Y1222D01*
X5382Y1473D01*
X5662Y1753D01*
X5692Y1473D02*
X5870Y1651D01*
X6172D01*
X5563Y1151D02*
Y1344D01*
X5692Y1473D01*
X5563Y1151D02*
X5563Y1151D01*
X5563Y1024D02*
Y1151D01*
X9754Y1448D02*
X9804Y1499D01*
Y1524D01*
D23*
X2113Y767D02*
Y1422D01*
X1626Y652D02*
X1999D01*
X2113Y767D01*
X1118Y660D02*
X1126Y652D01*
X1626D01*
D24*
X997Y3721D02*
X997Y3721D01*
D25*
X6553Y432D02*
D03*
Y686D02*
D03*
X6807Y432D02*
D03*
Y686D02*
D03*
X7061Y432D02*
D03*
Y686D02*
D03*
X7315Y432D02*
D03*
Y686D02*
D03*
X7569Y432D02*
D03*
X10058Y8153D02*
D03*
X9804D02*
D03*
X9550D02*
D03*
X9296D02*
D03*
X9042D02*
D03*
X8788D02*
D03*
X8534D02*
D03*
X8280D02*
D03*
X8026D02*
D03*
X7772D02*
D03*
X7518D02*
D03*
X635Y5893D02*
D03*
Y6147D02*
D03*
Y4534D02*
D03*
X997Y3721D02*
D03*
X10516Y6807D02*
D03*
Y6553D02*
D03*
Y6299D02*
D03*
Y6045D02*
D03*
X1118Y914D02*
D03*
D26*
X7569Y686D02*
D03*
X7264Y8153D02*
D03*
X743Y3721D02*
D03*
D27*
X635Y5639D02*
D03*
Y4280D02*
D03*
X10516Y5791D02*
D03*
X1118Y660D02*
D03*
D28*
X4866Y5436D02*
D03*
D29*
X3820D02*
D03*
D30*
X2337Y3299D02*
D03*
Y3609D02*
D03*
X5692Y1473D02*
D03*
X5382D02*
D03*
D31*
X4617Y6980D02*
D03*
X4479Y7264D02*
D03*
X4341Y6980D02*
D03*
X4203Y7264D02*
D03*
X4065Y6980D02*
D03*
X3927Y7264D02*
D03*
X3789Y6980D02*
D03*
X3651Y7264D02*
D03*
X3513Y6980D02*
D03*
X3375Y7264D02*
D03*
X3237Y6980D02*
D03*
X3099Y7264D02*
D03*
X2961Y6980D02*
D03*
X2823Y7264D02*
D03*
X2685Y6980D02*
D03*
X2547Y7264D02*
D03*
X2409Y6980D02*
D03*
X2270Y7264D02*
D03*
X2132Y6980D02*
D03*
X1994Y7264D02*
D03*
X1856Y6980D02*
D03*
X1718Y7264D02*
D03*
X1580Y6980D02*
D03*
X1442Y7264D02*
D03*
D32*
X1304Y6980D02*
D03*
D33*
X608Y7122D02*
D03*
X5313D02*
D03*
D34*
X3277Y2261D02*
D03*
D35*
Y1753D02*
D03*
D36*
X2692Y965D02*
D03*
X1168Y2642D02*
D03*
X330Y1854D02*
D03*
X10770Y1499D02*
D03*
X7341Y7341D02*
D03*
X4750Y2184D02*
D03*
X2997Y5461D02*
D03*
X6071Y5766D02*
D03*
X5817Y5588D02*
D03*
X5131Y4293D02*
D03*
X4343Y1270D02*
D03*
X7518Y1016D02*
D03*
X7061Y889D02*
D03*
X7734Y1181D02*
D03*
X6909Y1321D02*
D03*
X5359Y4039D02*
D03*
X5461Y5994D02*
D03*
X5309Y6147D02*
D03*
X5156Y6299D02*
D03*
X1930Y6147D02*
D03*
X2032Y5969D02*
D03*
X8534Y1803D02*
D03*
X1880Y2540D02*
D03*
X2413Y4267D02*
D03*
X5486Y2337D02*
D03*
X8128Y4420D02*
D03*
X11227Y5105D02*
D03*
X10414Y5080D02*
D03*
X9195Y5791D02*
D03*
X6833Y6172D02*
D03*
X8560Y6947D02*
D03*
X8687Y7100D02*
D03*
X8534Y6433D02*
D03*
Y6172D02*
D03*
X8661Y6306D02*
D03*
X8534Y6680D02*
D03*
X8661Y6814D02*
D03*
X9093Y7366D02*
D03*
X6706Y5410D02*
D03*
X7087Y5207D02*
D03*
X8001Y3505D02*
D03*
X8128Y3658D02*
D03*
X8255Y3785D02*
D03*
X8128Y3912D02*
D03*
Y4166D02*
D03*
X8255Y4039D02*
D03*
Y4293D02*
D03*
X7239Y2235D02*
D03*
X7518D02*
D03*
X7071Y2210D02*
D03*
X7366Y2362D02*
D03*
X8331Y2896D02*
D03*
X8128D02*
D03*
X7925D02*
D03*
X8687Y2362D02*
D03*
X8458D02*
D03*
X8255D02*
D03*
X8153Y2083D02*
D03*
X7899D02*
D03*
X7696D02*
D03*
X8153Y1803D02*
D03*
X7899Y1651D02*
D03*
X7696Y1499D02*
D03*
X9195Y1041D02*
D03*
X9369Y1165D02*
D03*
X9525Y1295D02*
D03*
X10922Y2616D02*
D03*
X10566D02*
D03*
X11633Y4420D02*
D03*
X11582Y3404D02*
D03*
X11430Y3277D02*
D03*
X11582Y2896D02*
D03*
Y3150D02*
D03*
X11430Y3023D02*
D03*
X9982Y2921D02*
D03*
Y3099D02*
D03*
Y3277D02*
D03*
X6020Y2057D02*
D03*
X6147Y1930D02*
D03*
X5766Y2489D02*
D03*
X5486Y2794D02*
D03*
X5436Y3759D02*
D03*
X5588Y3607D02*
D03*
X5486Y3480D02*
D03*
X5410Y3302D02*
D03*
X5486Y3150D02*
D03*
X1803Y6325D02*
D03*
X4343Y4013D02*
D03*
X4394Y3759D02*
D03*
X4089Y3886D02*
D03*
X4115Y3632D02*
D03*
X4293Y2235D02*
D03*
X1892Y4674D02*
D03*
X2730Y4140D02*
D03*
X9804Y1524D02*
D03*
M02*
