G04 Layer_Color=32768*
%FSLAX42Y42*%
%MOMM*%
G71*
G01*
G75*
%ADD67C,0.10*%
%ADD68C,0.05*%
D67*
X2109Y4318D02*
X2209D01*
X2159Y4268D02*
Y4368D01*
X2019Y4118D02*
Y4518D01*
X2299Y4118D02*
Y4518D01*
X2019Y4118D02*
X2299D01*
X2019Y4518D02*
X2299D01*
X6287Y7244D02*
X6387D01*
X6337Y7194D02*
Y7294D01*
X9428Y2997D02*
Y3277D01*
X9028Y2997D02*
Y3277D01*
Y2997D02*
X9428D01*
X9028Y3277D02*
X9428D01*
X9178Y3137D02*
X9278D01*
X9228Y3087D02*
Y3187D01*
X9449Y7373D02*
Y7473D01*
X9399Y7423D02*
X9499D01*
X9249Y7563D02*
X9649D01*
X9249Y7283D02*
X9649D01*
X9249D02*
Y7563D01*
X9649Y7283D02*
Y7563D01*
X6401Y4065D02*
Y4165D01*
X6351Y4115D02*
X6451D01*
X6201Y4255D02*
X6601D01*
X6201Y3975D02*
X6601D01*
X6201D02*
Y4255D01*
X6601Y3975D02*
Y4255D01*
X1190Y3623D02*
X1470D01*
X1190Y4023D02*
X1470D01*
X1190Y3623D02*
Y4023D01*
X1470Y3623D02*
Y4023D01*
X1330Y3773D02*
Y3873D01*
X1280Y3823D02*
X1380D01*
X856Y3928D02*
X1136D01*
X856Y4328D02*
X1136D01*
X856Y3928D02*
Y4328D01*
X1136Y3928D02*
Y4328D01*
X997Y4078D02*
Y4178D01*
X947Y4128D02*
X1047D01*
X6511Y2795D02*
X6611D01*
X6561Y2745D02*
Y2845D01*
X1460Y5388D02*
X1740D01*
X1460Y5788D02*
X1740D01*
X1460Y5388D02*
Y5788D01*
X1740Y5388D02*
Y5788D01*
X1600Y5538D02*
Y5638D01*
X1550Y5588D02*
X1650D01*
X4186Y1663D02*
Y1943D01*
X4586Y1663D02*
Y1943D01*
X4186D02*
X4586D01*
X4186Y1663D02*
X4586D01*
X4336Y1803D02*
X4436D01*
X4386Y1753D02*
Y1853D01*
X3712Y1663D02*
Y1943D01*
X4112Y1663D02*
Y1943D01*
X3712D02*
X4112D01*
X3712Y1663D02*
X4112D01*
X3862Y1803D02*
X3962D01*
X3912Y1753D02*
Y1853D01*
Y2109D02*
Y2209D01*
X3862Y2159D02*
X3962D01*
X3712Y2019D02*
X4112D01*
X3712Y2299D02*
X4112D01*
Y2019D02*
Y2299D01*
X3712Y2019D02*
Y2299D01*
X3759Y4471D02*
Y4571D01*
X3709Y4521D02*
X3809D01*
X3559Y4381D02*
X3959D01*
X3559Y4661D02*
X3959D01*
Y4381D02*
Y4661D01*
X3559Y4381D02*
Y4661D01*
X5207Y2744D02*
Y2844D01*
X5157Y2794D02*
X5257D01*
X5007Y2934D02*
X5407D01*
X5007Y2654D02*
X5407D01*
X5007D02*
Y2934D01*
X5407Y2654D02*
Y2934D01*
X3416Y3709D02*
Y3809D01*
X3366Y3759D02*
X3466D01*
X11082Y4763D02*
Y4863D01*
X11032Y4813D02*
X11132D01*
X10882Y4953D02*
X11282D01*
X10882Y4673D02*
X11282D01*
X10882D02*
Y4953D01*
X11282Y4673D02*
Y4953D01*
X9253Y4763D02*
Y4863D01*
X9203Y4813D02*
X9303D01*
X9053Y4953D02*
X9453D01*
X9053Y4673D02*
X9453D01*
X9053D02*
Y4953D01*
X9453Y4673D02*
Y4953D01*
X10752Y3671D02*
Y3771D01*
X10702Y3721D02*
X10802D01*
X8923Y3925D02*
Y4025D01*
X8873Y3975D02*
X8973D01*
X8890Y1703D02*
Y1803D01*
X8840Y1753D02*
X8940D01*
X8690Y1893D02*
X9090D01*
X8690Y1613D02*
X9090D01*
X8690D02*
Y1893D01*
X9090Y1613D02*
Y1893D01*
X8556Y990D02*
Y1090D01*
X8506Y1040D02*
X8606D01*
X4026Y5001D02*
X4306D01*
X4026Y4601D02*
X4306D01*
Y5001D01*
X4026Y4601D02*
Y5001D01*
X4166Y4751D02*
Y4851D01*
X4116Y4801D02*
X4216D01*
X4026Y4569D02*
X4306D01*
X4026Y4169D02*
X4306D01*
Y4569D01*
X4026Y4169D02*
Y4569D01*
X4166Y4319D02*
Y4419D01*
X4116Y4369D02*
X4216D01*
X4446Y4801D02*
X4546D01*
X4496Y4751D02*
Y4851D01*
X4636Y4601D02*
Y5001D01*
X4356Y4601D02*
Y5001D01*
X4636D01*
X4356Y4601D02*
X4636D01*
X1550Y4318D02*
X1650D01*
X1600Y4268D02*
Y4368D01*
X1829Y3608D02*
Y3708D01*
X1779Y3658D02*
X1879D01*
X1629Y3798D02*
X2029D01*
X1629Y3518D02*
X2029D01*
X1629D02*
Y3798D01*
X2029Y3518D02*
Y3798D01*
X1829Y3201D02*
Y3301D01*
X1779Y3251D02*
X1879D01*
X1629Y3391D02*
X2029D01*
X1629Y3111D02*
X2029D01*
X1629D02*
Y3391D01*
X2029Y3111D02*
Y3391D01*
X9399Y6560D02*
X9499D01*
X9449Y6510D02*
Y6610D01*
X6655Y6427D02*
Y6527D01*
X6605Y6477D02*
X6705D01*
X6455Y6337D02*
X6855D01*
X6455Y6617D02*
X6855D01*
Y6337D02*
Y6617D01*
X6455Y6337D02*
Y6617D01*
X6426Y1410D02*
Y1510D01*
X6376Y1460D02*
X6476D01*
X6226Y1600D02*
X6626D01*
X6226Y1320D02*
X6626D01*
X6226D02*
Y1600D01*
X6626Y1320D02*
Y1600D01*
X5081Y889D02*
X5181D01*
X5131Y839D02*
Y939D01*
X4991Y689D02*
Y1089D01*
X5271Y689D02*
Y1089D01*
X4991Y689D02*
X5271D01*
X4991Y1089D02*
X5271D01*
X5513Y889D02*
X5613D01*
X5563Y839D02*
Y939D01*
X5703Y689D02*
Y1089D01*
X5423Y689D02*
Y1089D01*
X5703D01*
X5423Y689D02*
X5703D01*
X1453Y1676D02*
X1553D01*
X1503Y1626D02*
Y1726D01*
X1576Y787D02*
X1676D01*
X1626Y737D02*
Y837D01*
X1486Y587D02*
Y987D01*
X1766Y587D02*
Y987D01*
X1486Y587D02*
X1766D01*
X1486Y987D02*
X1766D01*
D68*
X7012Y6651D02*
Y7836D01*
X5662Y6651D02*
Y7836D01*
X7012D01*
X5662Y6651D02*
X7012D01*
X5889Y2122D02*
Y3467D01*
X7234Y2122D02*
Y3467D01*
X5889D02*
X7234D01*
X5889Y2122D02*
X7234D01*
X2834Y3154D02*
X3999D01*
X2834Y4364D02*
X3999D01*
Y3154D02*
Y4364D01*
X2834Y3154D02*
Y4364D01*
X10159Y2786D02*
X11344D01*
X10159Y4656D02*
X11344D01*
Y2786D02*
Y4656D01*
X10159Y2786D02*
Y4656D01*
X8331Y3300D02*
X9516D01*
X8331Y4650D02*
X9516D01*
Y3300D02*
Y4650D01*
X8331Y3300D02*
Y4650D01*
X7998Y483D02*
X9113D01*
X7998Y1598D02*
X9113D01*
Y483D02*
Y1598D01*
X7998Y483D02*
Y1598D01*
X1968Y4048D02*
Y4588D01*
X1233Y4048D02*
Y4588D01*
Y4048D02*
X1968D01*
X1233Y4588D02*
X1968D01*
X10139Y5870D02*
Y7250D01*
X8759Y5870D02*
Y7250D01*
Y5870D02*
X10139D01*
X8759Y7250D02*
X10139D01*
X2298Y1139D02*
Y2214D01*
X708Y1139D02*
Y2214D01*
Y1139D02*
X2298D01*
X708Y2214D02*
X2298D01*
M02*
