G04 Layer_Color=65535*
%FSLAX42Y42*%
%MOMM*%
G71*
G01*
G75*
%ADD24C,0.25*%
%ADD37C,0.60*%
%ADD38C,0.25*%
%ADD39C,0.20*%
%ADD40C,0.20*%
%ADD41C,0.15*%
%ADD42R,0.80X2.80*%
D24*
X2388Y4699D02*
X2362Y4724D01*
X2311D01*
X2286Y4699D01*
Y4597D01*
X2311Y4572D01*
X2362D01*
X2388Y4597D01*
X2438Y4572D02*
X2489D01*
X2464D01*
Y4724D01*
X2438Y4699D01*
X2667Y4572D02*
X2565D01*
X2667Y4674D01*
Y4699D01*
X2641Y4724D01*
X2591D01*
X2565Y4699D01*
X5963Y423D02*
Y372D01*
Y397D01*
X6090D01*
X6115Y372D01*
Y347D01*
X6090Y321D01*
X5963Y474D02*
Y575D01*
Y524D01*
X6115D01*
Y626D02*
X6013D01*
X5963Y677D01*
X6013Y728D01*
X6115D01*
X6039D01*
Y626D01*
X5988Y880D02*
X5963Y855D01*
Y804D01*
X5988Y778D01*
X6090D01*
X6115Y804D01*
Y855D01*
X6090Y880D01*
X6039D01*
Y829D01*
X7229Y8519D02*
X7178D01*
X7153Y8494D01*
Y8392D01*
X7178Y8367D01*
X7229D01*
X7254Y8392D01*
Y8494D01*
X7229Y8519D01*
X7305D02*
Y8367D01*
X7407D01*
X7559Y8519D02*
X7457D01*
Y8367D01*
X7559D01*
X7457Y8443D02*
X7508D01*
X7610Y8519D02*
Y8367D01*
X7686D01*
X7711Y8392D01*
Y8494D01*
X7686Y8519D01*
X7610D01*
X2997Y305D02*
Y406D01*
X3048Y457D01*
X3099Y406D01*
Y305D01*
Y381D01*
X2997D01*
X3150Y457D02*
X3251D01*
X3200D01*
Y305D01*
X3302D02*
Y457D01*
X3353Y406D01*
X3403Y457D01*
Y305D01*
X3556Y457D02*
X3454D01*
Y305D01*
X3556D01*
X3454Y381D02*
X3505D01*
X3708Y432D02*
X3683Y457D01*
X3632D01*
X3607Y432D01*
Y330D01*
X3632Y305D01*
X3683D01*
X3708Y330D01*
Y381D01*
X3657D01*
X3759Y305D02*
Y406D01*
X3810Y457D01*
X3861Y406D01*
Y305D01*
Y381D01*
X3759D01*
X3911Y305D02*
X3962D01*
X3937D01*
Y457D01*
X3911Y432D01*
X4140Y457D02*
X4089Y432D01*
X4038Y381D01*
Y330D01*
X4064Y305D01*
X4114D01*
X4140Y330D01*
Y356D01*
X4114Y381D01*
X4038D01*
X4292Y305D02*
X4191D01*
X4292Y406D01*
Y432D01*
X4267Y457D01*
X4216D01*
X4191Y432D01*
X4470Y5207D02*
X4445Y5232D01*
X4394D01*
X4369Y5207D01*
Y5105D01*
X4394Y5080D01*
X4445D01*
X4470Y5105D01*
X4521Y5080D02*
X4572D01*
X4547D01*
Y5232D01*
X4521Y5207D01*
X4648D02*
X4674Y5232D01*
X4724D01*
X4750Y5207D01*
Y5182D01*
X4724Y5156D01*
X4750Y5131D01*
Y5105D01*
X4724Y5080D01*
X4674D01*
X4648Y5105D01*
Y5131D01*
X4674Y5156D01*
X4648Y5182D01*
Y5207D01*
X4674Y5156D02*
X4724D01*
X660Y2261D02*
Y2413D01*
X711Y2362D01*
X762Y2413D01*
Y2261D01*
X914Y2388D02*
X889Y2413D01*
X838D01*
X813Y2388D01*
Y2286D01*
X838Y2261D01*
X889D01*
X914Y2286D01*
X965Y2413D02*
X1067D01*
Y2388D01*
X965Y2286D01*
Y2261D01*
X1117Y2388D02*
X1143Y2413D01*
X1194D01*
X1219Y2388D01*
Y2362D01*
X1194Y2337D01*
X1219Y2311D01*
Y2286D01*
X1194Y2261D01*
X1143D01*
X1117Y2286D01*
Y2311D01*
X1143Y2337D01*
X1117Y2362D01*
Y2388D01*
X1143Y2337D02*
X1194D01*
X1270Y2388D02*
X1295Y2413D01*
X1346D01*
X1371Y2388D01*
Y2286D01*
X1346Y2261D01*
X1295D01*
X1270Y2286D01*
Y2388D01*
X1524Y2413D02*
X1422D01*
Y2337D01*
X1473Y2362D01*
X1498D01*
X1524Y2337D01*
Y2286D01*
X1498Y2261D01*
X1448D01*
X1422Y2286D01*
X2273Y3734D02*
X2299D01*
X2350Y3785D01*
X2299Y3835D01*
X2273D01*
X2350Y3785D02*
X2426D01*
Y3988D02*
Y3886D01*
X2324Y3988D01*
X2299D01*
X2273Y3962D01*
Y3912D01*
X2299Y3886D01*
X5029Y1626D02*
Y1600D01*
X5080Y1549D01*
X5131Y1600D01*
Y1626D01*
X5080Y1549D02*
Y1473D01*
X5182D02*
X5232D01*
X5207D01*
Y1626D01*
X5182Y1600D01*
X178Y3404D02*
X279D01*
X229D01*
Y3251D01*
X406D02*
X356D01*
X330Y3277D01*
Y3327D01*
X356Y3353D01*
X406D01*
X432Y3327D01*
Y3302D01*
X330D01*
X483Y3353D02*
Y3251D01*
Y3302D01*
X508Y3327D01*
X533Y3353D01*
X559D01*
X635Y3251D02*
Y3353D01*
X660D01*
X686Y3327D01*
Y3251D01*
Y3327D01*
X711Y3353D01*
X736Y3327D01*
Y3251D01*
X889Y3404D02*
X838D01*
X863D01*
Y3277D01*
X838Y3251D01*
X813D01*
X787Y3277D01*
X940Y3353D02*
Y3277D01*
X965Y3251D01*
X1041D01*
Y3353D01*
X1092Y3251D02*
Y3353D01*
X1117D01*
X1143Y3327D01*
Y3251D01*
Y3327D01*
X1168Y3353D01*
X1193Y3327D01*
Y3251D01*
X1244Y3200D02*
Y3353D01*
X1320D01*
X1346Y3327D01*
Y3277D01*
X1320Y3251D01*
X1244D01*
X8865Y3480D02*
X8839Y3454D01*
Y3404D01*
X8865Y3378D01*
X8890D01*
X8915Y3404D01*
Y3454D01*
X8941Y3480D01*
X8966D01*
X8992Y3454D01*
Y3404D01*
X8966Y3378D01*
X8992Y3531D02*
X8839D01*
X8992Y3632D01*
X8839D01*
Y3683D02*
Y3784D01*
X8865D01*
X8966Y3683D01*
X8992D01*
Y3911D02*
X8839D01*
X8915Y3835D01*
Y3937D01*
X8992Y3988D02*
X8890D01*
X8839Y4038D01*
X8890Y4089D01*
X8992D01*
X8915D01*
Y3988D01*
X8839Y4140D02*
X8992D01*
Y4242D01*
X8865Y4394D02*
X8839Y4368D01*
Y4318D01*
X8865Y4292D01*
X8890D01*
X8915Y4318D01*
Y4368D01*
X8941Y4394D01*
X8966D01*
X8992Y4368D01*
Y4318D01*
X8966Y4292D01*
X8839Y4546D02*
Y4445D01*
X8915D01*
X8890Y4495D01*
Y4521D01*
X8915Y4546D01*
X8966D01*
X8992Y4521D01*
Y4470D01*
X8966Y4445D01*
X8839Y4597D02*
Y4699D01*
X8865D01*
X8966Y4597D01*
X8992D01*
X8865Y4749D02*
X8839Y4775D01*
Y4826D01*
X8865Y4851D01*
X8890D01*
X8915Y4826D01*
Y4800D01*
Y4826D01*
X8941Y4851D01*
X8966D01*
X8992Y4826D01*
Y4775D01*
X8966Y4749D01*
X3266Y2710D02*
X3241Y2736D01*
X3190D01*
X3165Y2710D01*
Y2685D01*
X3190Y2659D01*
X3241D01*
X3266Y2634D01*
Y2609D01*
X3241Y2583D01*
X3190D01*
X3165Y2609D01*
X3317Y2583D02*
X3368D01*
X3343D01*
Y2736D01*
X3317Y2710D01*
X4521Y4242D02*
X4369D01*
Y4318D01*
X4394Y4343D01*
X4445D01*
X4470Y4318D01*
Y4242D01*
Y4293D02*
X4521Y4343D01*
X4394Y4394D02*
X4369Y4420D01*
Y4470D01*
X4394Y4496D01*
X4420D01*
X4445Y4470D01*
X4470Y4496D01*
X4496D01*
X4521Y4470D01*
Y4420D01*
X4496Y4394D01*
X4470D01*
X4445Y4420D01*
X4420Y4394D01*
X4394D01*
X4445Y4420D02*
Y4470D01*
X4039Y5055D02*
Y5207D01*
X4115D01*
X4140Y5182D01*
Y5131D01*
X4115Y5105D01*
X4039D01*
X4089D02*
X4140Y5055D01*
X4191Y5207D02*
X4293D01*
Y5182D01*
X4191Y5080D01*
Y5055D01*
X559Y3937D02*
Y4089D01*
X635D01*
X660Y4064D01*
Y4013D01*
X635Y3988D01*
X559D01*
X610D02*
X660Y3937D01*
X813Y4089D02*
X762Y4064D01*
X711Y4013D01*
Y3962D01*
X737Y3937D01*
X787D01*
X813Y3962D01*
Y3988D01*
X787Y4013D01*
X711D01*
X1295Y3429D02*
Y3581D01*
X1372D01*
X1397Y3556D01*
Y3505D01*
X1372Y3480D01*
X1295D01*
X1346D02*
X1397Y3429D01*
X1549Y3581D02*
X1448D01*
Y3505D01*
X1499Y3531D01*
X1524D01*
X1549Y3505D01*
Y3454D01*
X1524Y3429D01*
X1473D01*
X1448Y3454D01*
X9119Y2667D02*
Y2819D01*
X9195D01*
X9220Y2794D01*
Y2743D01*
X9195Y2718D01*
X9119D01*
X9169D02*
X9220Y2667D01*
X9347D02*
Y2819D01*
X9271Y2743D01*
X9373D01*
X4089Y1448D02*
Y1600D01*
X4166D01*
X4191Y1575D01*
Y1524D01*
X4166Y1499D01*
X4089D01*
X4140D02*
X4191Y1448D01*
X4242Y1575D02*
X4267Y1600D01*
X4318D01*
X4343Y1575D01*
Y1549D01*
X4318Y1524D01*
X4293D01*
X4318D01*
X4343Y1499D01*
Y1473D01*
X4318Y1448D01*
X4267D01*
X4242Y1473D01*
X3683Y1448D02*
Y1600D01*
X3759D01*
X3785Y1575D01*
Y1524D01*
X3759Y1499D01*
X3683D01*
X3734D02*
X3785Y1448D01*
X3937D02*
X3835D01*
X3937Y1549D01*
Y1575D01*
X3912Y1600D01*
X3861D01*
X3835Y1575D01*
X1981Y5436D02*
X1829D01*
Y5512D01*
X1854Y5537D01*
X1905D01*
X1930Y5512D01*
Y5436D01*
Y5486D02*
X1981Y5537D01*
Y5588D02*
Y5639D01*
Y5613D01*
X1829D01*
X1854Y5588D01*
X914Y381D02*
X762D01*
Y457D01*
X787Y483D01*
X838D01*
X864Y457D01*
Y381D01*
X762Y610D02*
Y559D01*
X787Y533D01*
X889D01*
X914Y559D01*
Y610D01*
X889Y635D01*
X787D01*
X762Y610D01*
Y686D02*
X914D01*
X864Y736D01*
X914Y787D01*
X762D01*
Y940D02*
Y838D01*
X914D01*
Y940D01*
X838Y838D02*
Y889D01*
X914Y990D02*
X762D01*
Y1067D01*
X787Y1092D01*
X838D01*
X864Y1067D01*
Y990D01*
Y1041D02*
X914Y1092D01*
Y4801D02*
Y4953D01*
X965Y4902D01*
X1016Y4953D01*
Y4801D01*
X1168Y4928D02*
X1143Y4953D01*
X1092D01*
X1067Y4928D01*
Y4826D01*
X1092Y4801D01*
X1143D01*
X1168Y4826D01*
X1219Y4801D02*
Y4953D01*
X1295D01*
X1321Y4928D01*
Y4877D01*
X1295Y4851D01*
X1219D01*
X1473Y4801D02*
X1371D01*
X1473Y4902D01*
Y4928D01*
X1448Y4953D01*
X1397D01*
X1371Y4928D01*
X1625Y4953D02*
X1524D01*
Y4877D01*
X1575Y4902D01*
X1600D01*
X1625Y4877D01*
Y4826D01*
X1600Y4801D01*
X1549D01*
X1524Y4826D01*
X1778Y4953D02*
X1676D01*
Y4877D01*
X1727Y4902D01*
X1752D01*
X1778Y4877D01*
Y4826D01*
X1752Y4801D01*
X1702D01*
X1676Y4826D01*
X1829Y4801D02*
X1879D01*
X1854D01*
Y4953D01*
X1829Y4928D01*
X3505Y3277D02*
X3353D01*
X3404Y3327D01*
X3353Y3378D01*
X3505D01*
X3378Y3531D02*
X3353Y3505D01*
Y3454D01*
X3378Y3429D01*
X3480D01*
X3505Y3454D01*
Y3505D01*
X3480Y3531D01*
X3505Y3581D02*
X3353D01*
Y3657D01*
X3378Y3683D01*
X3429D01*
X3454Y3657D01*
Y3581D01*
X3505Y3835D02*
Y3734D01*
X3404Y3835D01*
X3378D01*
X3353Y3810D01*
Y3759D01*
X3378Y3734D01*
X3353Y3988D02*
Y3886D01*
X3429D01*
X3404Y3937D01*
Y3962D01*
X3429Y3988D01*
X3480D01*
X3505Y3962D01*
Y3911D01*
X3480Y3886D01*
X3505Y4038D02*
Y4089D01*
Y4064D01*
X3353D01*
X3378Y4038D01*
X3353Y4267D02*
Y4165D01*
X3429D01*
X3404Y4216D01*
Y4241D01*
X3429Y4267D01*
X3480D01*
X3505Y4241D01*
Y4191D01*
X3480Y4165D01*
X5867Y7925D02*
Y8077D01*
X5918Y8026D01*
X5969Y8077D01*
Y7925D01*
X6020D02*
Y8026D01*
X6071Y8077D01*
X6121Y8026D01*
Y7925D01*
Y8001D01*
X6020D01*
X6172Y8077D02*
X6274Y7925D01*
Y8077D02*
X6172Y7925D01*
X6426D02*
X6324D01*
X6426Y8026D01*
Y8052D01*
X6401Y8077D01*
X6350D01*
X6324Y8052D01*
X6477D02*
X6502Y8077D01*
X6553D01*
X6578Y8052D01*
Y8026D01*
X6553Y8001D01*
X6528D01*
X6553D01*
X6578Y7976D01*
Y7950D01*
X6553Y7925D01*
X6502D01*
X6477Y7950D01*
X6629Y8052D02*
X6655Y8077D01*
X6705D01*
X6731Y8052D01*
Y8026D01*
X6705Y8001D01*
X6680D01*
X6705D01*
X6731Y7976D01*
Y7950D01*
X6705Y7925D01*
X6655D01*
X6629Y7950D01*
X10719Y5639D02*
Y5588D01*
Y5613D01*
X10846D01*
X10871Y5588D01*
Y5563D01*
X10846Y5537D01*
X10871Y5715D02*
Y5766D01*
X10846Y5791D01*
X10795D01*
X10770Y5766D01*
Y5715D01*
X10795Y5690D01*
X10846D01*
X10871Y5715D01*
X10770Y5842D02*
X10846D01*
X10871Y5867D01*
Y5943D01*
X10897D01*
X10922Y5918D01*
Y5893D01*
X10871Y5943D02*
X10770D01*
X10871Y5994D02*
Y6070D01*
X10846Y6096D01*
X10820Y6070D01*
Y6020D01*
X10795Y5994D01*
X10770Y6020D01*
Y6096D01*
X10744Y6172D02*
X10770D01*
Y6147D01*
Y6197D01*
Y6172D01*
X10846D01*
X10871Y6197D01*
Y6274D02*
Y6324D01*
Y6299D01*
X10770D01*
Y6274D01*
Y6502D02*
Y6426D01*
X10795Y6401D01*
X10846D01*
X10871Y6426D01*
Y6502D01*
Y6553D02*
X10719D01*
X10820D02*
X10770Y6629D01*
X10820Y6553D02*
X10871Y6629D01*
Y6807D02*
X10846Y6781D01*
X10871Y6756D01*
Y6731D01*
X10846Y6705D01*
X10820D01*
X10795Y6731D01*
X10770Y6705D01*
X10744D01*
X10719Y6731D01*
Y6756D01*
X10744Y6781D01*
X10770D01*
X10795Y6756D01*
X10820Y6781D01*
X10846D01*
X10795Y6807D02*
X10820Y6781D01*
X10795Y6731D02*
Y6756D01*
X10744Y6959D02*
X10719Y6934D01*
Y6883D01*
X10744Y6858D01*
X10770D01*
X10795Y6883D01*
Y6934D01*
X10820Y6959D01*
X10846D01*
X10871Y6934D01*
Y6883D01*
X10846Y6858D01*
X10871Y7010D02*
Y7061D01*
Y7035D01*
X10719D01*
Y7010D01*
X10871Y7137D02*
Y7188D01*
Y7162D01*
X10770D01*
Y7137D01*
X10719Y7365D02*
X10871D01*
Y7289D01*
X10846Y7264D01*
X10795D01*
X10770Y7289D01*
Y7365D01*
X10871Y7492D02*
Y7442D01*
X10846Y7416D01*
X10795D01*
X10770Y7442D01*
Y7492D01*
X10795Y7518D01*
X10820D01*
Y7416D01*
X10770Y7569D02*
X10871D01*
X10820D01*
X10795Y7594D01*
X10770Y7619D01*
Y7645D01*
X581Y8484D02*
X531D01*
X556D01*
Y8357D01*
X531Y8331D01*
X505D01*
X480Y8357D01*
X708Y8331D02*
Y8484D01*
X632Y8407D01*
X734D01*
X9042Y610D02*
X9017Y635D01*
X8966D01*
X8941Y610D01*
Y508D01*
X8966Y483D01*
X9017D01*
X9042Y508D01*
Y559D01*
X8992D01*
X9093Y483D02*
Y584D01*
X9144Y635D01*
X9195Y584D01*
Y483D01*
Y559D01*
X9093D01*
X9246Y635D02*
Y483D01*
X9347D01*
X9398D02*
X9449D01*
X9423D01*
Y635D01*
X9398Y610D01*
X9626Y635D02*
X9576Y610D01*
X9525Y559D01*
Y508D01*
X9550Y483D01*
X9601D01*
X9626Y508D01*
Y533D01*
X9601Y559D01*
X9525D01*
X9677Y635D02*
Y533D01*
X9728Y483D01*
X9779Y533D01*
Y635D01*
X9830Y610D02*
X9855Y635D01*
X9906D01*
X9931Y610D01*
Y584D01*
X9906Y559D01*
X9931Y533D01*
Y508D01*
X9906Y483D01*
X9855D01*
X9830Y508D01*
Y533D01*
X9855Y559D01*
X9830Y584D01*
Y610D01*
X9855Y559D02*
X9906D01*
X9982Y635D02*
Y483D01*
X10058D01*
X10083Y508D01*
Y610D01*
X10058Y635D01*
X9982D01*
X10134Y559D02*
X10236D01*
X10287Y483D02*
X10337D01*
X10312D01*
Y635D01*
X10287Y610D01*
X10515Y635D02*
X10414D01*
Y559D01*
X10464Y584D01*
X10490D01*
X10515Y559D01*
Y508D01*
X10490Y483D01*
X10439D01*
X10414Y508D01*
X10667D02*
Y610D01*
X10642Y635D01*
X10591D01*
X10566Y610D01*
Y508D01*
X10591Y483D01*
X10642D01*
X10617Y533D02*
X10667Y483D01*
X10642D02*
X10667Y508D01*
X10718Y483D02*
Y635D01*
X10794D01*
X10820Y610D01*
Y559D01*
X10794Y533D01*
X10718D01*
X4445Y5359D02*
Y5512D01*
X4369D01*
X4343Y5486D01*
Y5385D01*
X4369Y5359D01*
X4445D01*
X4293Y5512D02*
X4242D01*
X4267D01*
Y5359D01*
X4293Y5385D01*
X10719Y3353D02*
X10693Y3327D01*
Y3277D01*
X10719Y3251D01*
X10820D01*
X10846Y3277D01*
Y3327D01*
X10820Y3353D01*
X10693Y3404D02*
X10719D01*
X10770Y3454D01*
X10719Y3505D01*
X10693D01*
X10770Y3454D02*
X10846D01*
X10693Y3556D02*
Y3657D01*
X10719D01*
X10820Y3556D01*
X10846D01*
X10719Y3810D02*
X10693Y3784D01*
Y3734D01*
X10719Y3708D01*
X10820D01*
X10846Y3734D01*
Y3784D01*
X10820Y3810D01*
X10846Y3861D02*
Y3911D01*
Y3886D01*
X10693D01*
X10719Y3861D01*
Y3988D02*
X10693Y4013D01*
Y4064D01*
X10719Y4089D01*
X10744D01*
X10770Y4064D01*
X10795Y4089D01*
X10820D01*
X10846Y4064D01*
Y4013D01*
X10820Y3988D01*
X10795D01*
X10770Y4013D01*
X10744Y3988D01*
X10719D01*
X10770Y4013D02*
Y4064D01*
X10693Y4241D02*
Y4140D01*
X10770D01*
X10744Y4191D01*
Y4216D01*
X10770Y4241D01*
X10820D01*
X10846Y4216D01*
Y4165D01*
X10820Y4140D01*
X584Y4851D02*
X559Y4826D01*
Y4775D01*
X584Y4750D01*
X686D01*
X711Y4775D01*
Y4826D01*
X686Y4851D01*
X711Y4902D02*
X610D01*
X559Y4953D01*
X610Y5004D01*
X711D01*
X635D01*
Y4902D01*
X711Y5055D02*
X559D01*
X711Y5156D01*
X559D01*
X7010Y6528D02*
X6985Y6553D01*
X6934D01*
X6909Y6528D01*
Y6426D01*
X6934Y6401D01*
X6985D01*
X7010Y6426D01*
X7061Y6401D02*
X7112D01*
X7087D01*
Y6553D01*
X7061Y6528D01*
X7188Y6553D02*
X7290D01*
Y6528D01*
X7188Y6426D01*
Y6401D01*
X6274Y1219D02*
X6248Y1245D01*
X6198D01*
X6172Y1219D01*
Y1118D01*
X6198Y1092D01*
X6248D01*
X6274Y1118D01*
X6325Y1092D02*
X6375D01*
X6350D01*
Y1245D01*
X6325Y1219D01*
X6553Y1245D02*
X6502Y1219D01*
X6452Y1168D01*
Y1118D01*
X6477Y1092D01*
X6528D01*
X6553Y1118D01*
Y1143D01*
X6528Y1168D01*
X6452D01*
X1727Y3023D02*
X1702Y3048D01*
X1651D01*
X1626Y3023D01*
Y2921D01*
X1651Y2896D01*
X1702D01*
X1727Y2921D01*
X1778Y2896D02*
X1829D01*
X1803D01*
Y3048D01*
X1778Y3023D01*
X2006Y3048D02*
X1905D01*
Y2972D01*
X1956Y2997D01*
X1981D01*
X2006Y2972D01*
Y2921D01*
X1981Y2896D01*
X1930D01*
X1905Y2921D01*
X1651Y3962D02*
X1626Y3988D01*
X1575D01*
X1549Y3962D01*
Y3861D01*
X1575Y3835D01*
X1626D01*
X1651Y3861D01*
X1702Y3835D02*
X1753D01*
X1727D01*
Y3988D01*
X1702Y3962D01*
X1905Y3835D02*
Y3988D01*
X1829Y3912D01*
X1930D01*
X3251Y5055D02*
X3226Y5080D01*
X3175D01*
X3150Y5055D01*
Y4953D01*
X3175Y4928D01*
X3226D01*
X3251Y4953D01*
X3302Y4928D02*
X3353D01*
X3327D01*
Y5080D01*
X3302Y5055D01*
X3429D02*
X3454Y5080D01*
X3505D01*
X3530Y5055D01*
Y5029D01*
X3505Y5004D01*
X3480D01*
X3505D01*
X3530Y4978D01*
Y4953D01*
X3505Y4928D01*
X3454D01*
X3429Y4953D01*
X9804Y7645D02*
X9779Y7671D01*
X9728D01*
X9703Y7645D01*
Y7544D01*
X9728Y7518D01*
X9779D01*
X9804Y7544D01*
X9855Y7518D02*
X9906D01*
X9881D01*
Y7671D01*
X9855Y7645D01*
X9982Y7518D02*
X10033D01*
X10008D01*
Y7671D01*
X9982Y7645D01*
X9246Y1803D02*
X9220Y1829D01*
X9169D01*
X9144Y1803D01*
Y1702D01*
X9169Y1676D01*
X9220D01*
X9246Y1702D01*
X9296Y1676D02*
X9347D01*
X9322D01*
Y1829D01*
X9296Y1803D01*
X9423D02*
X9449Y1829D01*
X9499D01*
X9525Y1803D01*
Y1702D01*
X9499Y1676D01*
X9449D01*
X9423Y1702D01*
Y1803D01*
X11405Y4775D02*
X11379Y4750D01*
Y4699D01*
X11405Y4674D01*
X11506D01*
X11532Y4699D01*
Y4750D01*
X11506Y4775D01*
Y4826D02*
X11532Y4851D01*
Y4902D01*
X11506Y4928D01*
X11405D01*
X11379Y4902D01*
Y4851D01*
X11405Y4826D01*
X11430D01*
X11455Y4851D01*
Y4928D01*
X9525Y4978D02*
X9500Y4953D01*
Y4902D01*
X9525Y4877D01*
X9627D01*
X9652Y4902D01*
Y4953D01*
X9627Y4978D01*
X9525Y5029D02*
X9500Y5055D01*
Y5105D01*
X9525Y5131D01*
X9550D01*
X9576Y5105D01*
X9601Y5131D01*
X9627D01*
X9652Y5105D01*
Y5055D01*
X9627Y5029D01*
X9601D01*
X9576Y5055D01*
X9550Y5029D01*
X9525D01*
X9576Y5055D02*
Y5105D01*
X6248Y4470D02*
X6223Y4496D01*
X6172D01*
X6147Y4470D01*
Y4369D01*
X6172Y4343D01*
X6223D01*
X6248Y4369D01*
X6299Y4496D02*
X6401D01*
Y4470D01*
X6299Y4369D01*
Y4343D01*
X5029Y3124D02*
X5004Y3150D01*
X4953D01*
X4928Y3124D01*
Y3023D01*
X4953Y2997D01*
X5004D01*
X5029Y3023D01*
X5182Y3150D02*
X5131Y3124D01*
X5080Y3073D01*
Y3023D01*
X5105Y2997D01*
X5156D01*
X5182Y3023D01*
Y3048D01*
X5156Y3073D01*
X5080D01*
X3886Y2515D02*
X3861Y2540D01*
X3810D01*
X3785Y2515D01*
Y2413D01*
X3810Y2388D01*
X3861D01*
X3886Y2413D01*
X4039Y2540D02*
X3937D01*
Y2464D01*
X3988Y2489D01*
X4013D01*
X4039Y2464D01*
Y2413D01*
X4013Y2388D01*
X3962D01*
X3937Y2413D01*
X5550Y622D02*
X5524Y648D01*
X5474D01*
X5448Y622D01*
Y521D01*
X5474Y495D01*
X5524D01*
X5550Y521D01*
X5677Y495D02*
Y648D01*
X5601Y571D01*
X5702D01*
X5105Y622D02*
X5080Y648D01*
X5029D01*
X5004Y622D01*
Y521D01*
X5029Y495D01*
X5080D01*
X5105Y521D01*
X5156Y622D02*
X5182Y648D01*
X5232D01*
X5258Y622D01*
Y597D01*
X5232Y571D01*
X5207D01*
X5232D01*
X5258Y546D01*
Y521D01*
X5232Y495D01*
X5182D01*
X5156Y521D01*
X1626Y457D02*
X1600Y483D01*
X1549D01*
X1524Y457D01*
Y356D01*
X1549Y330D01*
X1600D01*
X1626Y356D01*
X1676Y330D02*
X1727D01*
X1702D01*
Y483D01*
X1676Y457D01*
X305Y5410D02*
X457D01*
Y5486D01*
X432Y5512D01*
X406D01*
X381Y5486D01*
Y5410D01*
Y5486D01*
X356Y5512D01*
X330D01*
X305Y5486D01*
Y5410D01*
X356Y5563D02*
X432D01*
X457Y5588D01*
Y5664D01*
X356D01*
X330Y5740D02*
X356D01*
Y5715D01*
Y5766D01*
Y5740D01*
X432D01*
X457Y5766D01*
X330Y5867D02*
X356D01*
Y5842D01*
Y5893D01*
Y5867D01*
X432D01*
X457Y5893D01*
Y5994D02*
Y6045D01*
X432Y6070D01*
X381D01*
X356Y6045D01*
Y5994D01*
X381Y5969D01*
X432D01*
X457Y5994D01*
Y6121D02*
X356D01*
Y6197D01*
X381Y6223D01*
X457D01*
Y6274D02*
Y6350D01*
X432Y6375D01*
X406Y6350D01*
Y6299D01*
X381Y6274D01*
X356Y6299D01*
Y6375D01*
X7391Y5740D02*
Y5842D01*
X7442Y5893D01*
X7493Y5842D01*
Y5740D01*
Y5817D01*
X7391D01*
X7544Y5893D02*
Y5740D01*
X7620D01*
X7645Y5766D01*
Y5867D01*
X7620Y5893D01*
X7544D01*
X7798Y5867D02*
X7772Y5893D01*
X7721D01*
X7696Y5867D01*
Y5766D01*
X7721Y5740D01*
X7772D01*
X7798Y5766D01*
X7848Y5867D02*
X7874Y5893D01*
X7925D01*
X7950Y5867D01*
Y5766D01*
X7925Y5740D01*
X7874D01*
X7848Y5766D01*
Y5867D01*
X8001D02*
X8026Y5893D01*
X8077D01*
X8102Y5867D01*
Y5842D01*
X8077Y5817D01*
X8102Y5791D01*
Y5766D01*
X8077Y5740D01*
X8026D01*
X8001Y5766D01*
Y5791D01*
X8026Y5817D01*
X8001Y5842D01*
Y5867D01*
X8026Y5817D02*
X8077D01*
X8229Y5740D02*
Y5893D01*
X8153Y5817D01*
X8255D01*
X8382Y5740D02*
Y5893D01*
X8306Y5817D01*
X8407D01*
X8559Y5867D02*
X8534Y5893D01*
X8483D01*
X8458Y5867D01*
Y5766D01*
X8483Y5740D01*
X8534D01*
X8559Y5766D01*
X8610Y5740D02*
Y5893D01*
X8712Y5740D01*
Y5893D01*
X8763Y5740D02*
Y5893D01*
X8864Y5740D01*
Y5893D01*
D37*
X5817Y7004D02*
G03*
X5817Y7004I-30J0D01*
G01*
X6231Y3155D02*
G03*
X6231Y3155I-30J0D01*
G01*
X3211Y4239D02*
G03*
X3211Y4239I-30J0D01*
G01*
X10542Y4526D02*
G03*
X10542Y4526I-30J0D01*
G01*
X8713Y4525D02*
G03*
X8713Y4525I-30J0D01*
G01*
X8586Y1083D02*
G03*
X8586Y1083I-30J0D01*
G01*
X1685Y4173D02*
G03*
X1685Y4173I-30J0D01*
G01*
X9479Y6385D02*
G03*
X9479Y6385I-30J0D01*
G01*
D38*
X5693Y6779D02*
G03*
X5693Y6779I-12J0D01*
G01*
X5999Y3277D02*
G03*
X5999Y3277I-12J0D01*
G01*
X2959Y4352D02*
G03*
X2959Y4352I-12J0D01*
G01*
X10289Y4632D02*
G03*
X10289Y4632I-12J0D01*
G01*
X8471D02*
G03*
X8471Y4632I-12J0D01*
G01*
X8568Y1628D02*
G03*
X8568Y1628I-12J0D01*
G01*
X1883Y4042D02*
G03*
X1883Y4042I-12J0D01*
G01*
X9461Y5840D02*
G03*
X9461Y5840I-12J0D01*
G01*
X2125Y1317D02*
G03*
X2125Y1317I-12J0D01*
G01*
X3289Y2483D02*
G03*
X3289Y2483I-12J0D01*
G01*
D39*
X2439Y3339D02*
G03*
X2437Y3573I-102J117D01*
G01*
X2236Y3572D02*
G03*
X2235Y3338I101J-118D01*
G01*
X1046Y8672D02*
G03*
X977Y8603I0J-69D01*
G01*
X4956Y8142D02*
G03*
X5026Y8073I69J0D01*
G01*
X907D02*
G03*
X976Y8142I0J69D01*
G01*
X4956Y8603D02*
G03*
X4886Y8672I-69J0D01*
G01*
X5653Y1575D02*
G03*
X5418Y1574I-117J-102D01*
G01*
X5419Y1373D02*
G03*
X5654Y1371I118J101D01*
G01*
X2039Y4278D02*
Y4358D01*
X2279Y4278D02*
Y4358D01*
X6426Y813D02*
X7696D01*
X6426Y305D02*
X7696D01*
Y813D01*
X6426Y305D02*
Y813D01*
X6987Y6904D02*
Y7584D01*
X5687Y6904D02*
Y7584D01*
X6987D01*
X5687Y6904D02*
X6987D01*
X9188Y3017D02*
X9268D01*
X9188Y3257D02*
X9268D01*
X7328Y8280D02*
X10185D01*
X7137D02*
X7328D01*
X7137Y8026D02*
Y8280D01*
Y8026D02*
X10185D01*
Y8280D01*
X9409Y7543D02*
X9489D01*
X9409Y7303D02*
X9489D01*
X6361Y4235D02*
X6441D01*
X6361Y3995D02*
X6441D01*
X1210Y3783D02*
Y3863D01*
X1450Y3783D02*
Y3863D01*
X877Y4088D02*
Y4167D01*
X1116Y4088D02*
Y4167D01*
X6101Y2335D02*
Y3255D01*
X7021Y2335D02*
Y3255D01*
X6101D02*
X7021D01*
X6101Y2335D02*
X7021D01*
X1480Y5548D02*
Y5628D01*
X1720Y5548D02*
Y5628D01*
X762Y5512D02*
Y6274D01*
X508D02*
X762D01*
X508Y5512D02*
Y6274D01*
Y5512D02*
X762D01*
X4346Y1923D02*
X4426D01*
X4346Y1683D02*
X4426D01*
X3872Y1923D02*
X3952D01*
X3872Y1683D02*
X3952D01*
X3872Y2039D02*
X3952D01*
X3872Y2279D02*
X3952D01*
X3719Y4401D02*
X3799D01*
X3719Y4641D02*
X3799D01*
X5167Y2914D02*
X5247D01*
X5167Y2674D02*
X5247D01*
X3081Y3179D02*
X3751D01*
X3081Y4339D02*
X3751D01*
Y3179D02*
Y4339D01*
X3081Y3179D02*
Y4339D01*
X11042Y4933D02*
X11122D01*
X11042Y4693D02*
X11122D01*
X9213Y4933D02*
X9293D01*
X9213Y4693D02*
X9293D01*
X10412Y2816D02*
X11092D01*
X10412Y4626D02*
X11092D01*
Y2816D02*
Y4626D01*
X10412Y2816D02*
Y4626D01*
X8583Y3325D02*
X9263D01*
X8583Y4625D02*
X9263D01*
Y3325D02*
Y4625D01*
X8583Y3325D02*
Y4625D01*
X8850Y1873D02*
X8930D01*
X8850Y1633D02*
X8930D01*
X8313Y1183D02*
X8798D01*
X8413Y1283D02*
X8798D01*
Y798D02*
Y1283D01*
X8313Y798D02*
X8798D01*
X8313D02*
Y1183D01*
X8413Y1283D01*
X4286Y4761D02*
Y4841D01*
X4046Y4761D02*
Y4841D01*
X4286Y4329D02*
Y4409D01*
X4046Y4329D02*
Y4409D01*
X4608Y5296D02*
Y5576D01*
X4078Y5296D02*
X4608D01*
X4078Y5576D02*
X4608D01*
X4616Y4761D02*
Y4841D01*
X4376Y4761D02*
Y4841D01*
X508Y4661D02*
X762D01*
Y4153D02*
Y4661D01*
X508Y4153D02*
X762D01*
X508D02*
Y4661D01*
X1755Y4073D02*
Y4563D01*
X1445Y4073D02*
Y4563D01*
Y4073D02*
X1755D01*
X1445Y4563D02*
X1755D01*
X1123Y3594D02*
Y3848D01*
X616Y3594D02*
X1123D01*
X616D02*
Y3848D01*
X1123D01*
X1789Y3778D02*
X1869D01*
X1789Y3538D02*
X1869D01*
X1789Y3371D02*
X1869D01*
X1789Y3131D02*
X1869D01*
X10389Y5664D02*
X10643D01*
X10389D02*
Y6934D01*
X10643Y5664D02*
Y6934D01*
X10389D02*
X10643D01*
X9724Y6185D02*
X9824Y6285D01*
Y6935D01*
X9074D02*
X9824D01*
X9074Y6185D02*
Y6935D01*
Y6185D02*
X9724D01*
X9074Y6285D02*
X9824D01*
X6615Y6357D02*
X6695D01*
X6615Y6597D02*
X6695D01*
X311Y7772D02*
X5621D01*
X976Y8142D02*
Y8602D01*
X4956Y8142D02*
Y8602D01*
X1046Y8672D02*
X4886D01*
X1166Y6822D02*
Y7772D01*
X311Y8072D02*
X5621D01*
X4766Y6822D02*
Y7772D01*
X311Y6822D02*
X5621D01*
X311D02*
Y8072D01*
X5621Y6822D02*
Y8072D01*
X6386Y1581D02*
X6466D01*
X6386Y1340D02*
X6466D01*
X5011Y849D02*
Y929D01*
X5251Y849D02*
Y929D01*
X5683Y849D02*
Y929D01*
X5443Y849D02*
Y929D01*
X1593Y1166D02*
X1853D01*
Y2186D01*
X1593D02*
X1853D01*
X1506Y747D02*
Y827D01*
X1746Y747D02*
Y827D01*
X991Y1041D02*
X1245D01*
Y533D02*
Y1041D01*
X991Y533D02*
X1245D01*
X991D02*
Y1041D01*
X3404Y1579D02*
Y2435D01*
X3150Y1579D02*
X3404D01*
X3150D02*
Y2435D01*
X3404D01*
D40*
X6401Y483D02*
X6358D01*
X6380D01*
Y356D01*
X6401Y377D01*
X6295D02*
X6274Y356D01*
X6232D01*
X6210Y377D01*
Y461D01*
X6232Y483D01*
X6274D01*
X6295Y461D01*
Y377D01*
X6401Y715D02*
X6380Y737D01*
X6337D01*
X6316Y715D01*
Y631D01*
X6337Y610D01*
X6380D01*
X6401Y631D01*
Y652D01*
X6380Y673D01*
X6316D01*
X7772Y737D02*
X7730D01*
X7751D01*
Y610D01*
X7772Y631D01*
X7739Y483D02*
X7823D01*
X7739Y398D01*
Y377D01*
X7760Y356D01*
X7802D01*
X7823Y377D01*
D41*
X1279Y6625D02*
X1329D01*
X1304D01*
Y6775D01*
X1279Y6750D01*
X4505Y6625D02*
X4555D01*
X4530D01*
Y6775D01*
X4505Y6750D01*
X4630D02*
X4655Y6775D01*
X4705D01*
X4730Y6750D01*
Y6725D01*
X4705Y6700D01*
X4680D01*
X4705D01*
X4730Y6675D01*
Y6650D01*
X4705Y6625D01*
X4655D01*
X4630Y6650D01*
X1330Y7575D02*
X1380D01*
X1355D01*
Y7725D01*
X1330Y7700D01*
X1530Y7575D02*
Y7725D01*
X1455Y7650D01*
X1555D01*
X4454Y7575D02*
X4354D01*
X4454Y7675D01*
Y7700D01*
X4429Y7725D01*
X4379D01*
X4354Y7700D01*
X4604Y7725D02*
X4504D01*
Y7650D01*
X4554Y7675D01*
X4579D01*
X4604Y7650D01*
Y7600D01*
X4579Y7575D01*
X4529D01*
X4504Y7600D01*
D42*
X4108Y5436D02*
D03*
M02*
